%TF.GenerationSoftware,KiCad,Pcbnew,9.0.7*%
%TF.CreationDate,2026-06-26T15:37:16+05:30*%
%TF.ProjectId,smart_home,736d6172-745f-4686-9f6d-652e6b696361,0.1*%
%TF.SameCoordinates,Original*%
%TF.FileFunction,Other,User*%
%FSLAX46Y46*%
G04 Gerber Fmt 4.6, Leading zero omitted, Abs format (unit mm)*
G04 Created by KiCad (PCBNEW 9.0.7) date 2026-06-26 15:37:16*
%MOMM*%
%LPD*%
G01*
G04 APERTURE LIST*
%ADD10C,0.050000*%
G04 APERTURE END LIST*
%TO.C,J2B*%
D10*
X99040000Y-55710000D02*
X87870000Y-55710000D01*
X87870000Y-44900000D01*
X99040000Y-44900000D01*
X99040000Y-55710000D01*
%TO.C,R5*%
X128320000Y-85050000D02*
X131680000Y-85050000D01*
X131680000Y-86950000D01*
X128320000Y-86950000D01*
X128320000Y-85050000D01*
%TO.C,J7*%
X194770000Y-38230000D02*
X186150000Y-38230000D01*
X186150000Y-41770000D01*
X194770000Y-41770000D01*
X194770000Y-38230000D01*
%TO.C,F3*%
X28250000Y-64950000D02*
X54250000Y-64950000D01*
X28250000Y-75050000D02*
X28250000Y-64950000D01*
X54250000Y-64950000D02*
X54250000Y-75050000D01*
X54250000Y-75050000D02*
X28250000Y-75050000D01*
%TO.C,U2*%
X122940000Y-28480000D02*
X132670000Y-28480000D01*
X132670000Y-49300000D01*
X122940000Y-49300000D01*
X122940000Y-28480000D01*
%TO.C,U6*%
X80000000Y-67540000D02*
X81500000Y-67540000D01*
X80000000Y-72460000D02*
X80000000Y-67540000D01*
X81500000Y-67300000D02*
X85900000Y-67300000D01*
X81500000Y-67540000D02*
X81500000Y-67300000D01*
X81500000Y-72460000D02*
X80000000Y-72460000D01*
X81500000Y-72700000D02*
X81500000Y-72460000D01*
X85900000Y-67300000D02*
X85900000Y-67540000D01*
X85900000Y-67540000D02*
X87400000Y-67540000D01*
X85900000Y-72460000D02*
X85900000Y-72700000D01*
X85900000Y-72700000D02*
X81500000Y-72700000D01*
X87400000Y-67540000D02*
X87400000Y-72460000D01*
X87400000Y-72460000D02*
X85900000Y-72460000D01*
%TO.C,R22*%
X87320000Y-97050000D02*
X90680000Y-97050000D01*
X90680000Y-98950000D01*
X87320000Y-98950000D01*
X87320000Y-97050000D01*
%TO.C,J8*%
X194770000Y-43230000D02*
X186150000Y-43230000D01*
X186150000Y-46770000D01*
X194770000Y-46770000D01*
X194770000Y-43230000D01*
%TO.C,C3*%
X136300000Y-16020000D02*
X139700000Y-16020000D01*
X139700000Y-17980000D01*
X136300000Y-17980000D01*
X136300000Y-16020000D01*
%TO.C,R2*%
X140320000Y-74050000D02*
X143680000Y-74050000D01*
X143680000Y-75950000D01*
X140320000Y-75950000D01*
X140320000Y-74050000D01*
%TO.C,J2D*%
X99040000Y-95710000D02*
X87870000Y-95710000D01*
X87870000Y-84900000D01*
X99040000Y-84900000D01*
X99040000Y-95710000D01*
%TO.C,C10*%
X79300000Y-79020000D02*
X82700000Y-79020000D01*
X82700000Y-80980000D01*
X79300000Y-80980000D01*
X79300000Y-79020000D01*
%TO.C,K3*%
X59450000Y-77950000D02*
X59450000Y-62050000D01*
X59450000Y-77950000D02*
X79550000Y-77950000D01*
X79550000Y-62050000D02*
X59450000Y-62050000D01*
X79550000Y-62050000D02*
X79550000Y-77950000D01*
%TO.C,J1D*%
X6960000Y-84290000D02*
X23210000Y-84290000D01*
X23210000Y-95100000D01*
X6960000Y-95100000D01*
X6960000Y-84290000D01*
%TO.C,K4*%
X59450000Y-97950000D02*
X59450000Y-82050000D01*
X59450000Y-97950000D02*
X79550000Y-97950000D01*
X79550000Y-82050000D02*
X59450000Y-82050000D01*
X79550000Y-82050000D02*
X79550000Y-97950000D01*
%TO.C,R15*%
X83320000Y-39050000D02*
X86680000Y-39050000D01*
X86680000Y-40950000D01*
X83320000Y-40950000D01*
X83320000Y-39050000D01*
%TO.C,F1*%
X28250000Y-24950000D02*
X54250000Y-24950000D01*
X28250000Y-35050000D02*
X28250000Y-24950000D01*
X54250000Y-24950000D02*
X54250000Y-35050000D01*
X54250000Y-35050000D02*
X28250000Y-35050000D01*
%TO.C,R9*%
X152680000Y-15950000D02*
X149320000Y-15950000D01*
X149320000Y-14050000D01*
X152680000Y-14050000D01*
X152680000Y-15950000D01*
%TO.C,R1*%
X128320000Y-74050000D02*
X131680000Y-74050000D01*
X131680000Y-75950000D01*
X128320000Y-75950000D01*
X128320000Y-74050000D01*
%TO.C,U1*%
X134000000Y-19260000D02*
X134000000Y-40200000D01*
X134000000Y-40200000D02*
X148250000Y-40200000D01*
X148250000Y-60510000D02*
X148250000Y-40200000D01*
X148250000Y-60510000D02*
X167750000Y-60510000D01*
X167750000Y-40200000D02*
X167750000Y-60510000D01*
X167750000Y-40200000D02*
X182000000Y-40200000D01*
X182000000Y-19260000D02*
X134000000Y-19260000D01*
X182000000Y-40200000D02*
X182000000Y-19260000D01*
%TO.C,R3*%
X152320000Y-74050000D02*
X155680000Y-74050000D01*
X155680000Y-75950000D01*
X152320000Y-75950000D01*
X152320000Y-74050000D01*
%TO.C,R6*%
X140320000Y-85050000D02*
X143680000Y-85050000D01*
X143680000Y-86950000D01*
X140320000Y-86950000D01*
X140320000Y-85050000D01*
%TO.C,K2*%
X59450000Y-57950000D02*
X59450000Y-42050000D01*
X59450000Y-57950000D02*
X79550000Y-57950000D01*
X79550000Y-42050000D02*
X59450000Y-42050000D01*
X79550000Y-42050000D02*
X79550000Y-57950000D01*
%TO.C,D4*%
X164850000Y-77790000D02*
X169690000Y-77790000D01*
X169690000Y-82210000D01*
X164850000Y-82210000D01*
X164850000Y-77790000D01*
%TO.C,R14*%
X168320000Y-44550000D02*
X171680000Y-44550000D01*
X171680000Y-46450000D01*
X168320000Y-46450000D01*
X168320000Y-44550000D01*
%TO.C,R18*%
X83320000Y-97050000D02*
X86680000Y-97050000D01*
X86680000Y-98950000D01*
X83320000Y-98950000D01*
X83320000Y-97050000D01*
%TO.C,U8*%
X182050000Y-20200000D02*
X182050000Y-23800000D01*
X182050000Y-20200000D02*
X187950000Y-20200000D01*
X182050000Y-23800000D02*
X187950000Y-23800000D01*
X187950000Y-20200000D02*
X187950000Y-23800000D01*
%TO.C,K1*%
X59450000Y-37950000D02*
X59450000Y-22050000D01*
X59450000Y-37950000D02*
X79550000Y-37950000D01*
X79550000Y-22050000D02*
X59450000Y-22050000D01*
X79550000Y-22050000D02*
X79550000Y-37950000D01*
%TO.C,C11*%
X79300000Y-97020000D02*
X82700000Y-97020000D01*
X82700000Y-98980000D01*
X79300000Y-98980000D01*
X79300000Y-97020000D01*
%TO.C,SW4*%
X164500000Y-88500000D02*
X164750000Y-88500000D01*
X164500000Y-88750000D02*
X164500000Y-88500000D01*
X164500000Y-95750000D02*
X164500000Y-88750000D01*
X164500000Y-95750000D02*
X164500000Y-96000000D01*
X164500000Y-96000000D02*
X164750000Y-96000000D01*
X164750000Y-88500000D02*
X173750000Y-88500000D01*
X173750000Y-88500000D02*
X174000000Y-88500000D01*
X173750000Y-96000000D02*
X164750000Y-96000000D01*
X173750000Y-96000000D02*
X174000000Y-96000000D01*
X174000000Y-88500000D02*
X174000000Y-88750000D01*
X174000000Y-88750000D02*
X174000000Y-95750000D01*
X174000000Y-96000000D02*
X174000000Y-95750000D01*
%TO.C,PS1*%
X8150000Y-400000D02*
X43350000Y-400000D01*
X8150000Y-21800000D02*
X8150000Y-400000D01*
X43350000Y-400000D02*
X43350000Y-21800000D01*
X43350000Y-21800000D02*
X8150000Y-21800000D01*
%TO.C,SW2*%
X140500000Y-88500000D02*
X140750000Y-88500000D01*
X140500000Y-88750000D02*
X140500000Y-88500000D01*
X140500000Y-95750000D02*
X140500000Y-88750000D01*
X140500000Y-95750000D02*
X140500000Y-96000000D01*
X140500000Y-96000000D02*
X140750000Y-96000000D01*
X140750000Y-88500000D02*
X149750000Y-88500000D01*
X149750000Y-88500000D02*
X150000000Y-88500000D01*
X149750000Y-96000000D02*
X140750000Y-96000000D01*
X149750000Y-96000000D02*
X150000000Y-96000000D01*
X150000000Y-88500000D02*
X150000000Y-88750000D01*
X150000000Y-88750000D02*
X150000000Y-95750000D01*
X150000000Y-96000000D02*
X150000000Y-95750000D01*
%TO.C,J4*%
X163230000Y-13770000D02*
X174390000Y-13770000D01*
X174390000Y-10230000D01*
X163230000Y-10230000D01*
X163230000Y-13770000D01*
%TO.C,C7*%
X132800000Y-46020000D02*
X136200000Y-46020000D01*
X136200000Y-47980000D01*
X132800000Y-47980000D01*
X132800000Y-46020000D01*
%TO.C,D2*%
X140850000Y-77790000D02*
X145690000Y-77790000D01*
X145690000Y-82210000D01*
X140850000Y-82210000D01*
X140850000Y-77790000D01*
%TO.C,J5*%
X194770000Y-28230000D02*
X186150000Y-28230000D01*
X186150000Y-31770000D01*
X194770000Y-31770000D01*
X194770000Y-28230000D01*
%TO.C,R4*%
X164320000Y-74050000D02*
X167680000Y-74050000D01*
X167680000Y-75950000D01*
X164320000Y-75950000D01*
X164320000Y-74050000D01*
%TO.C,R19*%
X87320000Y-39050000D02*
X90680000Y-39050000D01*
X90680000Y-40950000D01*
X87320000Y-40950000D01*
X87320000Y-39050000D01*
%TO.C,R21*%
X87320000Y-79050000D02*
X90680000Y-79050000D01*
X90680000Y-80950000D01*
X87320000Y-80950000D01*
X87320000Y-79050000D01*
%TO.C,SW5*%
X123500000Y-53500000D02*
X123750000Y-53500000D01*
X123500000Y-53750000D02*
X123500000Y-53500000D01*
X123500000Y-60750000D02*
X123500000Y-53750000D01*
X123500000Y-60750000D02*
X123500000Y-61000000D01*
X123500000Y-61000000D02*
X123750000Y-61000000D01*
X123750000Y-53500000D02*
X132750000Y-53500000D01*
X132750000Y-53500000D02*
X133000000Y-53500000D01*
X132750000Y-61000000D02*
X123750000Y-61000000D01*
X132750000Y-61000000D02*
X133000000Y-61000000D01*
X133000000Y-53500000D02*
X133000000Y-53750000D01*
X133000000Y-53750000D02*
X133000000Y-60750000D01*
X133000000Y-61000000D02*
X133000000Y-60750000D01*
%TO.C,SW1*%
X128500000Y-88500000D02*
X128750000Y-88500000D01*
X128500000Y-88750000D02*
X128500000Y-88500000D01*
X128500000Y-95750000D02*
X128500000Y-88750000D01*
X128500000Y-95750000D02*
X128500000Y-96000000D01*
X128500000Y-96000000D02*
X128750000Y-96000000D01*
X128750000Y-88500000D02*
X137750000Y-88500000D01*
X137750000Y-88500000D02*
X138000000Y-88500000D01*
X137750000Y-96000000D02*
X128750000Y-96000000D01*
X137750000Y-96000000D02*
X138000000Y-96000000D01*
X138000000Y-88500000D02*
X138000000Y-88750000D01*
X138000000Y-88750000D02*
X138000000Y-95750000D01*
X138000000Y-96000000D02*
X138000000Y-95750000D01*
%TO.C,J3*%
X196770000Y-68230000D02*
X180530000Y-68230000D01*
X180530000Y-71770000D01*
X196770000Y-71770000D01*
X196770000Y-68230000D01*
%TO.C,R20*%
X87320000Y-59050000D02*
X90680000Y-59050000D01*
X90680000Y-60950000D01*
X87320000Y-60950000D01*
X87320000Y-59050000D01*
%TO.C,C8*%
X79300000Y-39020000D02*
X82700000Y-39020000D01*
X82700000Y-40980000D01*
X79300000Y-40980000D01*
X79300000Y-39020000D01*
%TO.C,C4*%
X144800000Y-41520000D02*
X148200000Y-41520000D01*
X148200000Y-43480000D01*
X144800000Y-43480000D01*
X144800000Y-41520000D01*
%TO.C,F2*%
X28250000Y-44950000D02*
X54250000Y-44950000D01*
X28250000Y-55050000D02*
X28250000Y-44950000D01*
X54250000Y-44950000D02*
X54250000Y-55050000D01*
X54250000Y-55050000D02*
X28250000Y-55050000D01*
%TO.C,R8*%
X164320000Y-85050000D02*
X167680000Y-85050000D01*
X167680000Y-86950000D01*
X164320000Y-86950000D01*
X164320000Y-85050000D01*
%TO.C,D5*%
X141850000Y-12790000D02*
X146690000Y-12790000D01*
X146690000Y-17210000D01*
X141850000Y-17210000D01*
X141850000Y-12790000D01*
%TO.C,C16*%
X183300000Y-26020000D02*
X186700000Y-26020000D01*
X186700000Y-27980000D01*
X183300000Y-27980000D01*
X183300000Y-26020000D01*
%TO.C,U7*%
X80000000Y-87540000D02*
X81500000Y-87540000D01*
X80000000Y-92460000D02*
X80000000Y-87540000D01*
X81500000Y-87300000D02*
X85900000Y-87300000D01*
X81500000Y-87540000D02*
X81500000Y-87300000D01*
X81500000Y-92460000D02*
X80000000Y-92460000D01*
X81500000Y-92700000D02*
X81500000Y-92460000D01*
X85900000Y-87300000D02*
X85900000Y-87540000D01*
X85900000Y-87540000D02*
X87400000Y-87540000D01*
X85900000Y-92460000D02*
X85900000Y-92700000D01*
X85900000Y-92700000D02*
X81500000Y-92700000D01*
X87400000Y-87540000D02*
X87400000Y-92460000D01*
X87400000Y-92460000D02*
X85900000Y-92460000D01*
%TO.C,J2A*%
X99040000Y-35710000D02*
X87870000Y-35710000D01*
X87870000Y-24900000D01*
X99040000Y-24900000D01*
X99040000Y-35710000D01*
%TO.C,J1C*%
X6960000Y-64290000D02*
X23210000Y-64290000D01*
X23210000Y-75100000D01*
X6960000Y-75100000D01*
X6960000Y-64290000D01*
%TO.C,J6*%
X194770000Y-33230000D02*
X186150000Y-33230000D01*
X186150000Y-36770000D01*
X194770000Y-36770000D01*
X194770000Y-33230000D01*
%TO.C,C5*%
X144800000Y-44020000D02*
X148200000Y-44020000D01*
X148200000Y-45980000D01*
X144800000Y-45980000D01*
X144800000Y-44020000D01*
%TO.C,R12*%
X144820000Y-51550000D02*
X148180000Y-51550000D01*
X148180000Y-53450000D01*
X144820000Y-53450000D01*
X144820000Y-51550000D01*
%TO.C,RV1*%
X49750000Y-6400000D02*
X49750000Y-12100000D01*
X49750000Y-6400000D02*
X59250000Y-6400000D01*
X49750000Y-12100000D02*
X59250000Y-12100000D01*
X59250000Y-6400000D02*
X59250000Y-12100000D01*
%TO.C,U4*%
X80000000Y-27540000D02*
X81500000Y-27540000D01*
X80000000Y-32460000D02*
X80000000Y-27540000D01*
X81500000Y-27300000D02*
X85900000Y-27300000D01*
X81500000Y-27540000D02*
X81500000Y-27300000D01*
X81500000Y-32460000D02*
X80000000Y-32460000D01*
X81500000Y-32700000D02*
X81500000Y-32460000D01*
X85900000Y-27300000D02*
X85900000Y-27540000D01*
X85900000Y-27540000D02*
X87400000Y-27540000D01*
X85900000Y-32460000D02*
X85900000Y-32700000D01*
X85900000Y-32700000D02*
X81500000Y-32700000D01*
X87400000Y-27540000D02*
X87400000Y-32460000D01*
X87400000Y-32460000D02*
X85900000Y-32460000D01*
%TO.C,R7*%
X152320000Y-85050000D02*
X155680000Y-85050000D01*
X155680000Y-86950000D01*
X152320000Y-86950000D01*
X152320000Y-85050000D01*
%TO.C,J1B*%
X6960000Y-44290000D02*
X23210000Y-44290000D01*
X23210000Y-55100000D01*
X6960000Y-55100000D01*
X6960000Y-44290000D01*
%TO.C,J2C*%
X99040000Y-75710000D02*
X87870000Y-75710000D01*
X87870000Y-64900000D01*
X99040000Y-64900000D01*
X99040000Y-75710000D01*
%TO.C,R16*%
X83320000Y-59050000D02*
X86680000Y-59050000D01*
X86680000Y-60950000D01*
X83320000Y-60950000D01*
X83320000Y-59050000D01*
%TO.C,SW3*%
X152500000Y-88500000D02*
X152750000Y-88500000D01*
X152500000Y-88750000D02*
X152500000Y-88500000D01*
X152500000Y-95750000D02*
X152500000Y-88750000D01*
X152500000Y-95750000D02*
X152500000Y-96000000D01*
X152500000Y-96000000D02*
X152750000Y-96000000D01*
X152750000Y-88500000D02*
X161750000Y-88500000D01*
X161750000Y-88500000D02*
X162000000Y-88500000D01*
X161750000Y-96000000D02*
X152750000Y-96000000D01*
X161750000Y-96000000D02*
X162000000Y-96000000D01*
X162000000Y-88500000D02*
X162000000Y-88750000D01*
X162000000Y-88750000D02*
X162000000Y-95750000D01*
X162000000Y-96000000D02*
X162000000Y-95750000D01*
%TO.C,R13*%
X168320000Y-41050000D02*
X171680000Y-41050000D01*
X171680000Y-42950000D01*
X168320000Y-42950000D01*
X168320000Y-41050000D01*
%TO.C,U5*%
X80000000Y-47540000D02*
X81500000Y-47540000D01*
X80000000Y-52460000D02*
X80000000Y-47540000D01*
X81500000Y-47300000D02*
X85900000Y-47300000D01*
X81500000Y-47540000D02*
X81500000Y-47300000D01*
X81500000Y-52460000D02*
X80000000Y-52460000D01*
X81500000Y-52700000D02*
X81500000Y-52460000D01*
X85900000Y-47300000D02*
X85900000Y-47540000D01*
X85900000Y-47540000D02*
X87400000Y-47540000D01*
X85900000Y-52460000D02*
X85900000Y-52700000D01*
X85900000Y-52700000D02*
X81500000Y-52700000D01*
X87400000Y-47540000D02*
X87400000Y-52460000D01*
X87400000Y-52460000D02*
X85900000Y-52460000D01*
%TO.C,C1*%
X142650000Y-55000000D02*
G75*
G02*
X135850000Y-55000000I-3400000J0D01*
G01*
X135850000Y-55000000D02*
G75*
G02*
X142650000Y-55000000I3400000J0D01*
G01*
%TO.C,R17*%
X83320000Y-79050000D02*
X86680000Y-79050000D01*
X86680000Y-80950000D01*
X83320000Y-80950000D01*
X83320000Y-79050000D01*
%TO.C,C2*%
X136300000Y-12020000D02*
X139700000Y-12020000D01*
X139700000Y-13980000D01*
X136300000Y-13980000D01*
X136300000Y-12020000D01*
%TO.C,D1*%
X128850000Y-77790000D02*
X133690000Y-77790000D01*
X133690000Y-82210000D01*
X128850000Y-82210000D01*
X128850000Y-77790000D01*
%TO.C,U3*%
X125600000Y-11400000D02*
X125600000Y-18600000D01*
X125600000Y-18600000D02*
X134400000Y-18600000D01*
X134400000Y-11400000D02*
X125600000Y-11400000D01*
X134400000Y-18600000D02*
X134400000Y-11400000D01*
%TO.C,D3*%
X152850000Y-77790000D02*
X157690000Y-77790000D01*
X157690000Y-82210000D01*
X152850000Y-82210000D01*
X152850000Y-77790000D01*
%TO.C,J1A*%
X6960000Y-24290000D02*
X23210000Y-24290000D01*
X23210000Y-35100000D01*
X6960000Y-35100000D01*
X6960000Y-24290000D01*
%TO.C,R11*%
X144820000Y-49050000D02*
X148180000Y-49050000D01*
X148180000Y-50950000D01*
X144820000Y-50950000D01*
X144820000Y-49050000D01*
%TO.C,C6*%
X144800000Y-46520000D02*
X148200000Y-46520000D01*
X148200000Y-48480000D01*
X144800000Y-48480000D01*
X144800000Y-46520000D01*
%TO.C,F4*%
X28250000Y-84950000D02*
X54250000Y-84950000D01*
X28250000Y-95050000D02*
X28250000Y-84950000D01*
X54250000Y-84950000D02*
X54250000Y-95050000D01*
X54250000Y-95050000D02*
X28250000Y-95050000D01*
%TO.C,SW6*%
X123500000Y-63500000D02*
X123750000Y-63500000D01*
X123500000Y-63750000D02*
X123500000Y-63500000D01*
X123500000Y-70750000D02*
X123500000Y-63750000D01*
X123500000Y-70750000D02*
X123500000Y-71000000D01*
X123500000Y-71000000D02*
X123750000Y-71000000D01*
X123750000Y-63500000D02*
X132750000Y-63500000D01*
X132750000Y-63500000D02*
X133000000Y-63500000D01*
X132750000Y-71000000D02*
X123750000Y-71000000D01*
X132750000Y-71000000D02*
X133000000Y-71000000D01*
X133000000Y-63500000D02*
X133000000Y-63750000D01*
X133000000Y-63750000D02*
X133000000Y-70750000D01*
X133000000Y-71000000D02*
X133000000Y-70750000D01*
%TO.C,C9*%
X79300000Y-59020000D02*
X82700000Y-59020000D01*
X82700000Y-60980000D01*
X79300000Y-60980000D01*
X79300000Y-59020000D01*
%TD*%
M02*
