%TF.GenerationSoftware,KiCad,Pcbnew,9.0.7*%
%TF.CreationDate,2026-06-26T15:37:16+05:30*%
%TF.ProjectId,smart_home,736d6172-745f-4686-9f6d-652e6b696361,0.1*%
%TF.SameCoordinates,Original*%
%TF.FileFunction,Legend,Bot*%
%TF.FilePolarity,Positive*%
%FSLAX46Y46*%
G04 Gerber Fmt 4.6, Leading zero omitted, Abs format (unit mm)*
G04 Created by KiCad (PCBNEW 9.0.7) date 2026-06-26 15:37:16*
%MOMM*%
%LPD*%
G01*
G04 APERTURE LIST*
%ADD10C,0.150000*%
G04 APERTURE END LIST*
D10*
X121761907Y-2407200D02*
X121619050Y-2454819D01*
X121619050Y-2454819D02*
X121380955Y-2454819D01*
X121380955Y-2454819D02*
X121285717Y-2407200D01*
X121285717Y-2407200D02*
X121238098Y-2359580D01*
X121238098Y-2359580D02*
X121190479Y-2264342D01*
X121190479Y-2264342D02*
X121190479Y-2169104D01*
X121190479Y-2169104D02*
X121238098Y-2073866D01*
X121238098Y-2073866D02*
X121285717Y-2026247D01*
X121285717Y-2026247D02*
X121380955Y-1978628D01*
X121380955Y-1978628D02*
X121571431Y-1931009D01*
X121571431Y-1931009D02*
X121666669Y-1883390D01*
X121666669Y-1883390D02*
X121714288Y-1835771D01*
X121714288Y-1835771D02*
X121761907Y-1740533D01*
X121761907Y-1740533D02*
X121761907Y-1645295D01*
X121761907Y-1645295D02*
X121714288Y-1550057D01*
X121714288Y-1550057D02*
X121666669Y-1502438D01*
X121666669Y-1502438D02*
X121571431Y-1454819D01*
X121571431Y-1454819D02*
X121333336Y-1454819D01*
X121333336Y-1454819D02*
X121190479Y-1502438D01*
X120761907Y-2454819D02*
X120761907Y-1788152D01*
X120761907Y-1883390D02*
X120714288Y-1835771D01*
X120714288Y-1835771D02*
X120619050Y-1788152D01*
X120619050Y-1788152D02*
X120476193Y-1788152D01*
X120476193Y-1788152D02*
X120380955Y-1835771D01*
X120380955Y-1835771D02*
X120333336Y-1931009D01*
X120333336Y-1931009D02*
X120333336Y-2454819D01*
X120333336Y-1931009D02*
X120285717Y-1835771D01*
X120285717Y-1835771D02*
X120190479Y-1788152D01*
X120190479Y-1788152D02*
X120047622Y-1788152D01*
X120047622Y-1788152D02*
X119952383Y-1835771D01*
X119952383Y-1835771D02*
X119904764Y-1931009D01*
X119904764Y-1931009D02*
X119904764Y-2454819D01*
X119000003Y-2454819D02*
X119000003Y-1931009D01*
X119000003Y-1931009D02*
X119047622Y-1835771D01*
X119047622Y-1835771D02*
X119142860Y-1788152D01*
X119142860Y-1788152D02*
X119333336Y-1788152D01*
X119333336Y-1788152D02*
X119428574Y-1835771D01*
X119000003Y-2407200D02*
X119095241Y-2454819D01*
X119095241Y-2454819D02*
X119333336Y-2454819D01*
X119333336Y-2454819D02*
X119428574Y-2407200D01*
X119428574Y-2407200D02*
X119476193Y-2311961D01*
X119476193Y-2311961D02*
X119476193Y-2216723D01*
X119476193Y-2216723D02*
X119428574Y-2121485D01*
X119428574Y-2121485D02*
X119333336Y-2073866D01*
X119333336Y-2073866D02*
X119095241Y-2073866D01*
X119095241Y-2073866D02*
X119000003Y-2026247D01*
X118523812Y-2454819D02*
X118523812Y-1788152D01*
X118523812Y-1978628D02*
X118476193Y-1883390D01*
X118476193Y-1883390D02*
X118428574Y-1835771D01*
X118428574Y-1835771D02*
X118333336Y-1788152D01*
X118333336Y-1788152D02*
X118238098Y-1788152D01*
X118047621Y-1788152D02*
X117666669Y-1788152D01*
X117904764Y-1454819D02*
X117904764Y-2311961D01*
X117904764Y-2311961D02*
X117857145Y-2407200D01*
X117857145Y-2407200D02*
X117761907Y-2454819D01*
X117761907Y-2454819D02*
X117666669Y-2454819D01*
X116571430Y-2454819D02*
X116571430Y-1454819D01*
X116571430Y-1931009D02*
X116000002Y-1931009D01*
X116000002Y-2454819D02*
X116000002Y-1454819D01*
X115380954Y-2454819D02*
X115476192Y-2407200D01*
X115476192Y-2407200D02*
X115523811Y-2359580D01*
X115523811Y-2359580D02*
X115571430Y-2264342D01*
X115571430Y-2264342D02*
X115571430Y-1978628D01*
X115571430Y-1978628D02*
X115523811Y-1883390D01*
X115523811Y-1883390D02*
X115476192Y-1835771D01*
X115476192Y-1835771D02*
X115380954Y-1788152D01*
X115380954Y-1788152D02*
X115238097Y-1788152D01*
X115238097Y-1788152D02*
X115142859Y-1835771D01*
X115142859Y-1835771D02*
X115095240Y-1883390D01*
X115095240Y-1883390D02*
X115047621Y-1978628D01*
X115047621Y-1978628D02*
X115047621Y-2264342D01*
X115047621Y-2264342D02*
X115095240Y-2359580D01*
X115095240Y-2359580D02*
X115142859Y-2407200D01*
X115142859Y-2407200D02*
X115238097Y-2454819D01*
X115238097Y-2454819D02*
X115380954Y-2454819D01*
X114619049Y-2454819D02*
X114619049Y-1788152D01*
X114619049Y-1883390D02*
X114571430Y-1835771D01*
X114571430Y-1835771D02*
X114476192Y-1788152D01*
X114476192Y-1788152D02*
X114333335Y-1788152D01*
X114333335Y-1788152D02*
X114238097Y-1835771D01*
X114238097Y-1835771D02*
X114190478Y-1931009D01*
X114190478Y-1931009D02*
X114190478Y-2454819D01*
X114190478Y-1931009D02*
X114142859Y-1835771D01*
X114142859Y-1835771D02*
X114047621Y-1788152D01*
X114047621Y-1788152D02*
X113904764Y-1788152D01*
X113904764Y-1788152D02*
X113809525Y-1835771D01*
X113809525Y-1835771D02*
X113761906Y-1931009D01*
X113761906Y-1931009D02*
X113761906Y-2454819D01*
X112904764Y-2407200D02*
X113000002Y-2454819D01*
X113000002Y-2454819D02*
X113190478Y-2454819D01*
X113190478Y-2454819D02*
X113285716Y-2407200D01*
X113285716Y-2407200D02*
X113333335Y-2311961D01*
X113333335Y-2311961D02*
X113333335Y-1931009D01*
X113333335Y-1931009D02*
X113285716Y-1835771D01*
X113285716Y-1835771D02*
X113190478Y-1788152D01*
X113190478Y-1788152D02*
X113000002Y-1788152D01*
X113000002Y-1788152D02*
X112904764Y-1835771D01*
X112904764Y-1835771D02*
X112857145Y-1931009D01*
X112857145Y-1931009D02*
X112857145Y-2026247D01*
X112857145Y-2026247D02*
X113333335Y-2121485D01*
X111238097Y-1788152D02*
X111238097Y-2454819D01*
X111476192Y-1407200D02*
X111714287Y-2121485D01*
X111714287Y-2121485D02*
X111095240Y-2121485D01*
X110714287Y-2073866D02*
X109952383Y-2073866D01*
X108904764Y-2359580D02*
X108952383Y-2407200D01*
X108952383Y-2407200D02*
X109095240Y-2454819D01*
X109095240Y-2454819D02*
X109190478Y-2454819D01*
X109190478Y-2454819D02*
X109333335Y-2407200D01*
X109333335Y-2407200D02*
X109428573Y-2311961D01*
X109428573Y-2311961D02*
X109476192Y-2216723D01*
X109476192Y-2216723D02*
X109523811Y-2026247D01*
X109523811Y-2026247D02*
X109523811Y-1883390D01*
X109523811Y-1883390D02*
X109476192Y-1692914D01*
X109476192Y-1692914D02*
X109428573Y-1597676D01*
X109428573Y-1597676D02*
X109333335Y-1502438D01*
X109333335Y-1502438D02*
X109190478Y-1454819D01*
X109190478Y-1454819D02*
X109095240Y-1454819D01*
X109095240Y-1454819D02*
X108952383Y-1502438D01*
X108952383Y-1502438D02*
X108904764Y-1550057D01*
X108476192Y-2454819D02*
X108476192Y-1454819D01*
X108047621Y-2454819D02*
X108047621Y-1931009D01*
X108047621Y-1931009D02*
X108095240Y-1835771D01*
X108095240Y-1835771D02*
X108190478Y-1788152D01*
X108190478Y-1788152D02*
X108333335Y-1788152D01*
X108333335Y-1788152D02*
X108428573Y-1835771D01*
X108428573Y-1835771D02*
X108476192Y-1883390D01*
X107142859Y-2454819D02*
X107142859Y-1931009D01*
X107142859Y-1931009D02*
X107190478Y-1835771D01*
X107190478Y-1835771D02*
X107285716Y-1788152D01*
X107285716Y-1788152D02*
X107476192Y-1788152D01*
X107476192Y-1788152D02*
X107571430Y-1835771D01*
X107142859Y-2407200D02*
X107238097Y-2454819D01*
X107238097Y-2454819D02*
X107476192Y-2454819D01*
X107476192Y-2454819D02*
X107571430Y-2407200D01*
X107571430Y-2407200D02*
X107619049Y-2311961D01*
X107619049Y-2311961D02*
X107619049Y-2216723D01*
X107619049Y-2216723D02*
X107571430Y-2121485D01*
X107571430Y-2121485D02*
X107476192Y-2073866D01*
X107476192Y-2073866D02*
X107238097Y-2073866D01*
X107238097Y-2073866D02*
X107142859Y-2026247D01*
X106666668Y-1788152D02*
X106666668Y-2454819D01*
X106666668Y-1883390D02*
X106619049Y-1835771D01*
X106619049Y-1835771D02*
X106523811Y-1788152D01*
X106523811Y-1788152D02*
X106380954Y-1788152D01*
X106380954Y-1788152D02*
X106285716Y-1835771D01*
X106285716Y-1835771D02*
X106238097Y-1931009D01*
X106238097Y-1931009D02*
X106238097Y-2454819D01*
X105761906Y-1788152D02*
X105761906Y-2454819D01*
X105761906Y-1883390D02*
X105714287Y-1835771D01*
X105714287Y-1835771D02*
X105619049Y-1788152D01*
X105619049Y-1788152D02*
X105476192Y-1788152D01*
X105476192Y-1788152D02*
X105380954Y-1835771D01*
X105380954Y-1835771D02*
X105333335Y-1931009D01*
X105333335Y-1931009D02*
X105333335Y-2454819D01*
X104476192Y-2407200D02*
X104571430Y-2454819D01*
X104571430Y-2454819D02*
X104761906Y-2454819D01*
X104761906Y-2454819D02*
X104857144Y-2407200D01*
X104857144Y-2407200D02*
X104904763Y-2311961D01*
X104904763Y-2311961D02*
X104904763Y-1931009D01*
X104904763Y-1931009D02*
X104857144Y-1835771D01*
X104857144Y-1835771D02*
X104761906Y-1788152D01*
X104761906Y-1788152D02*
X104571430Y-1788152D01*
X104571430Y-1788152D02*
X104476192Y-1835771D01*
X104476192Y-1835771D02*
X104428573Y-1931009D01*
X104428573Y-1931009D02*
X104428573Y-2026247D01*
X104428573Y-2026247D02*
X104904763Y-2121485D01*
X103857144Y-2454819D02*
X103952382Y-2407200D01*
X103952382Y-2407200D02*
X104000001Y-2311961D01*
X104000001Y-2311961D02*
X104000001Y-1454819D01*
X102761905Y-2169104D02*
X102285715Y-2169104D01*
X102857143Y-2454819D02*
X102523810Y-1454819D01*
X102523810Y-1454819D02*
X102190477Y-2454819D01*
X101285715Y-2359580D02*
X101333334Y-2407200D01*
X101333334Y-2407200D02*
X101476191Y-2454819D01*
X101476191Y-2454819D02*
X101571429Y-2454819D01*
X101571429Y-2454819D02*
X101714286Y-2407200D01*
X101714286Y-2407200D02*
X101809524Y-2311961D01*
X101809524Y-2311961D02*
X101857143Y-2216723D01*
X101857143Y-2216723D02*
X101904762Y-2026247D01*
X101904762Y-2026247D02*
X101904762Y-1883390D01*
X101904762Y-1883390D02*
X101857143Y-1692914D01*
X101857143Y-1692914D02*
X101809524Y-1597676D01*
X101809524Y-1597676D02*
X101714286Y-1502438D01*
X101714286Y-1502438D02*
X101571429Y-1454819D01*
X101571429Y-1454819D02*
X101476191Y-1454819D01*
X101476191Y-1454819D02*
X101333334Y-1502438D01*
X101333334Y-1502438D02*
X101285715Y-1550057D01*
X99523810Y-2454819D02*
X99857143Y-1978628D01*
X100095238Y-2454819D02*
X100095238Y-1454819D01*
X100095238Y-1454819D02*
X99714286Y-1454819D01*
X99714286Y-1454819D02*
X99619048Y-1502438D01*
X99619048Y-1502438D02*
X99571429Y-1550057D01*
X99571429Y-1550057D02*
X99523810Y-1645295D01*
X99523810Y-1645295D02*
X99523810Y-1788152D01*
X99523810Y-1788152D02*
X99571429Y-1883390D01*
X99571429Y-1883390D02*
X99619048Y-1931009D01*
X99619048Y-1931009D02*
X99714286Y-1978628D01*
X99714286Y-1978628D02*
X100095238Y-1978628D01*
X98714286Y-2407200D02*
X98809524Y-2454819D01*
X98809524Y-2454819D02*
X99000000Y-2454819D01*
X99000000Y-2454819D02*
X99095238Y-2407200D01*
X99095238Y-2407200D02*
X99142857Y-2311961D01*
X99142857Y-2311961D02*
X99142857Y-1931009D01*
X99142857Y-1931009D02*
X99095238Y-1835771D01*
X99095238Y-1835771D02*
X99000000Y-1788152D01*
X99000000Y-1788152D02*
X98809524Y-1788152D01*
X98809524Y-1788152D02*
X98714286Y-1835771D01*
X98714286Y-1835771D02*
X98666667Y-1931009D01*
X98666667Y-1931009D02*
X98666667Y-2026247D01*
X98666667Y-2026247D02*
X99142857Y-2121485D01*
X98095238Y-2454819D02*
X98190476Y-2407200D01*
X98190476Y-2407200D02*
X98238095Y-2311961D01*
X98238095Y-2311961D02*
X98238095Y-1454819D01*
X97285714Y-2454819D02*
X97285714Y-1931009D01*
X97285714Y-1931009D02*
X97333333Y-1835771D01*
X97333333Y-1835771D02*
X97428571Y-1788152D01*
X97428571Y-1788152D02*
X97619047Y-1788152D01*
X97619047Y-1788152D02*
X97714285Y-1835771D01*
X97285714Y-2407200D02*
X97380952Y-2454819D01*
X97380952Y-2454819D02*
X97619047Y-2454819D01*
X97619047Y-2454819D02*
X97714285Y-2407200D01*
X97714285Y-2407200D02*
X97761904Y-2311961D01*
X97761904Y-2311961D02*
X97761904Y-2216723D01*
X97761904Y-2216723D02*
X97714285Y-2121485D01*
X97714285Y-2121485D02*
X97619047Y-2073866D01*
X97619047Y-2073866D02*
X97380952Y-2073866D01*
X97380952Y-2073866D02*
X97285714Y-2026247D01*
X96904761Y-1788152D02*
X96666666Y-2454819D01*
X96428571Y-1788152D02*
X96666666Y-2454819D01*
X96666666Y-2454819D02*
X96761904Y-2692914D01*
X96761904Y-2692914D02*
X96809523Y-2740533D01*
X96809523Y-2740533D02*
X96904761Y-2788152D01*
X94714285Y-2359580D02*
X94761904Y-2407200D01*
X94761904Y-2407200D02*
X94904761Y-2454819D01*
X94904761Y-2454819D02*
X94999999Y-2454819D01*
X94999999Y-2454819D02*
X95142856Y-2407200D01*
X95142856Y-2407200D02*
X95238094Y-2311961D01*
X95238094Y-2311961D02*
X95285713Y-2216723D01*
X95285713Y-2216723D02*
X95333332Y-2026247D01*
X95333332Y-2026247D02*
X95333332Y-1883390D01*
X95333332Y-1883390D02*
X95285713Y-1692914D01*
X95285713Y-1692914D02*
X95238094Y-1597676D01*
X95238094Y-1597676D02*
X95142856Y-1502438D01*
X95142856Y-1502438D02*
X94999999Y-1454819D01*
X94999999Y-1454819D02*
X94904761Y-1454819D01*
X94904761Y-1454819D02*
X94761904Y-1502438D01*
X94761904Y-1502438D02*
X94714285Y-1550057D01*
X94142856Y-2454819D02*
X94238094Y-2407200D01*
X94238094Y-2407200D02*
X94285713Y-2359580D01*
X94285713Y-2359580D02*
X94333332Y-2264342D01*
X94333332Y-2264342D02*
X94333332Y-1978628D01*
X94333332Y-1978628D02*
X94285713Y-1883390D01*
X94285713Y-1883390D02*
X94238094Y-1835771D01*
X94238094Y-1835771D02*
X94142856Y-1788152D01*
X94142856Y-1788152D02*
X93999999Y-1788152D01*
X93999999Y-1788152D02*
X93904761Y-1835771D01*
X93904761Y-1835771D02*
X93857142Y-1883390D01*
X93857142Y-1883390D02*
X93809523Y-1978628D01*
X93809523Y-1978628D02*
X93809523Y-2264342D01*
X93809523Y-2264342D02*
X93857142Y-2359580D01*
X93857142Y-2359580D02*
X93904761Y-2407200D01*
X93904761Y-2407200D02*
X93999999Y-2454819D01*
X93999999Y-2454819D02*
X94142856Y-2454819D01*
X93380951Y-1788152D02*
X93380951Y-2454819D01*
X93380951Y-1883390D02*
X93333332Y-1835771D01*
X93333332Y-1835771D02*
X93238094Y-1788152D01*
X93238094Y-1788152D02*
X93095237Y-1788152D01*
X93095237Y-1788152D02*
X92999999Y-1835771D01*
X92999999Y-1835771D02*
X92952380Y-1931009D01*
X92952380Y-1931009D02*
X92952380Y-2454819D01*
X92619046Y-1788152D02*
X92238094Y-1788152D01*
X92476189Y-1454819D02*
X92476189Y-2311961D01*
X92476189Y-2311961D02*
X92428570Y-2407200D01*
X92428570Y-2407200D02*
X92333332Y-2454819D01*
X92333332Y-2454819D02*
X92238094Y-2454819D01*
X91904760Y-2454819D02*
X91904760Y-1788152D01*
X91904760Y-1978628D02*
X91857141Y-1883390D01*
X91857141Y-1883390D02*
X91809522Y-1835771D01*
X91809522Y-1835771D02*
X91714284Y-1788152D01*
X91714284Y-1788152D02*
X91619046Y-1788152D01*
X91142855Y-2454819D02*
X91238093Y-2407200D01*
X91238093Y-2407200D02*
X91285712Y-2359580D01*
X91285712Y-2359580D02*
X91333331Y-2264342D01*
X91333331Y-2264342D02*
X91333331Y-1978628D01*
X91333331Y-1978628D02*
X91285712Y-1883390D01*
X91285712Y-1883390D02*
X91238093Y-1835771D01*
X91238093Y-1835771D02*
X91142855Y-1788152D01*
X91142855Y-1788152D02*
X90999998Y-1788152D01*
X90999998Y-1788152D02*
X90904760Y-1835771D01*
X90904760Y-1835771D02*
X90857141Y-1883390D01*
X90857141Y-1883390D02*
X90809522Y-1978628D01*
X90809522Y-1978628D02*
X90809522Y-2264342D01*
X90809522Y-2264342D02*
X90857141Y-2359580D01*
X90857141Y-2359580D02*
X90904760Y-2407200D01*
X90904760Y-2407200D02*
X90999998Y-2454819D01*
X90999998Y-2454819D02*
X91142855Y-2454819D01*
X90238093Y-2454819D02*
X90333331Y-2407200D01*
X90333331Y-2407200D02*
X90380950Y-2311961D01*
X90380950Y-2311961D02*
X90380950Y-1454819D01*
X89714283Y-2454819D02*
X89809521Y-2407200D01*
X89809521Y-2407200D02*
X89857140Y-2311961D01*
X89857140Y-2311961D02*
X89857140Y-1454819D01*
X88952378Y-2407200D02*
X89047616Y-2454819D01*
X89047616Y-2454819D02*
X89238092Y-2454819D01*
X89238092Y-2454819D02*
X89333330Y-2407200D01*
X89333330Y-2407200D02*
X89380949Y-2311961D01*
X89380949Y-2311961D02*
X89380949Y-1931009D01*
X89380949Y-1931009D02*
X89333330Y-1835771D01*
X89333330Y-1835771D02*
X89238092Y-1788152D01*
X89238092Y-1788152D02*
X89047616Y-1788152D01*
X89047616Y-1788152D02*
X88952378Y-1835771D01*
X88952378Y-1835771D02*
X88904759Y-1931009D01*
X88904759Y-1931009D02*
X88904759Y-2026247D01*
X88904759Y-2026247D02*
X89380949Y-2121485D01*
X88476187Y-2454819D02*
X88476187Y-1788152D01*
X88476187Y-1978628D02*
X88428568Y-1883390D01*
X88428568Y-1883390D02*
X88380949Y-1835771D01*
X88380949Y-1835771D02*
X88285711Y-1788152D01*
X88285711Y-1788152D02*
X88190473Y-1788152D01*
X86333329Y-2073866D02*
X85571425Y-2073866D01*
X82999996Y-2454819D02*
X83333329Y-1978628D01*
X83571424Y-2454819D02*
X83571424Y-1454819D01*
X83571424Y-1454819D02*
X83190472Y-1454819D01*
X83190472Y-1454819D02*
X83095234Y-1502438D01*
X83095234Y-1502438D02*
X83047615Y-1550057D01*
X83047615Y-1550057D02*
X82999996Y-1645295D01*
X82999996Y-1645295D02*
X82999996Y-1788152D01*
X82999996Y-1788152D02*
X83047615Y-1883390D01*
X83047615Y-1883390D02*
X83095234Y-1931009D01*
X83095234Y-1931009D02*
X83190472Y-1978628D01*
X83190472Y-1978628D02*
X83571424Y-1978628D01*
X82190472Y-2407200D02*
X82285710Y-2454819D01*
X82285710Y-2454819D02*
X82476186Y-2454819D01*
X82476186Y-2454819D02*
X82571424Y-2407200D01*
X82571424Y-2407200D02*
X82619043Y-2311961D01*
X82619043Y-2311961D02*
X82619043Y-1931009D01*
X82619043Y-1931009D02*
X82571424Y-1835771D01*
X82571424Y-1835771D02*
X82476186Y-1788152D01*
X82476186Y-1788152D02*
X82285710Y-1788152D01*
X82285710Y-1788152D02*
X82190472Y-1835771D01*
X82190472Y-1835771D02*
X82142853Y-1931009D01*
X82142853Y-1931009D02*
X82142853Y-2026247D01*
X82142853Y-2026247D02*
X82619043Y-2121485D01*
X81809519Y-1788152D02*
X81571424Y-2454819D01*
X81571424Y-2454819D02*
X81333329Y-1788152D01*
X79999995Y-1454819D02*
X79904757Y-1454819D01*
X79904757Y-1454819D02*
X79809519Y-1502438D01*
X79809519Y-1502438D02*
X79761900Y-1550057D01*
X79761900Y-1550057D02*
X79714281Y-1645295D01*
X79714281Y-1645295D02*
X79666662Y-1835771D01*
X79666662Y-1835771D02*
X79666662Y-2073866D01*
X79666662Y-2073866D02*
X79714281Y-2264342D01*
X79714281Y-2264342D02*
X79761900Y-2359580D01*
X79761900Y-2359580D02*
X79809519Y-2407200D01*
X79809519Y-2407200D02*
X79904757Y-2454819D01*
X79904757Y-2454819D02*
X79999995Y-2454819D01*
X79999995Y-2454819D02*
X80095233Y-2407200D01*
X80095233Y-2407200D02*
X80142852Y-2359580D01*
X80142852Y-2359580D02*
X80190471Y-2264342D01*
X80190471Y-2264342D02*
X80238090Y-2073866D01*
X80238090Y-2073866D02*
X80238090Y-1835771D01*
X80238090Y-1835771D02*
X80190471Y-1645295D01*
X80190471Y-1645295D02*
X80142852Y-1550057D01*
X80142852Y-1550057D02*
X80095233Y-1502438D01*
X80095233Y-1502438D02*
X79999995Y-1454819D01*
X79238090Y-2359580D02*
X79190471Y-2407200D01*
X79190471Y-2407200D02*
X79238090Y-2454819D01*
X79238090Y-2454819D02*
X79285709Y-2407200D01*
X79285709Y-2407200D02*
X79238090Y-2359580D01*
X79238090Y-2359580D02*
X79238090Y-2454819D01*
X78238091Y-2454819D02*
X78809519Y-2454819D01*
X78523805Y-2454819D02*
X78523805Y-1454819D01*
X78523805Y-1454819D02*
X78619043Y-1597676D01*
X78619043Y-1597676D02*
X78714281Y-1692914D01*
X78714281Y-1692914D02*
X78809519Y-1740533D01*
X114666668Y-98835771D02*
X114714287Y-98788152D01*
X114714287Y-98788152D02*
X114809525Y-98645295D01*
X114809525Y-98645295D02*
X114857144Y-98550057D01*
X114857144Y-98550057D02*
X114904763Y-98407200D01*
X114904763Y-98407200D02*
X114952382Y-98169104D01*
X114952382Y-98169104D02*
X114952382Y-97978628D01*
X114952382Y-97978628D02*
X114904763Y-97740533D01*
X114904763Y-97740533D02*
X114857144Y-97597676D01*
X114857144Y-97597676D02*
X114809525Y-97502438D01*
X114809525Y-97502438D02*
X114714287Y-97359580D01*
X114714287Y-97359580D02*
X114666668Y-97311961D01*
X113857144Y-98407200D02*
X113952382Y-98454819D01*
X113952382Y-98454819D02*
X114142858Y-98454819D01*
X114142858Y-98454819D02*
X114238096Y-98407200D01*
X114238096Y-98407200D02*
X114285715Y-98359580D01*
X114285715Y-98359580D02*
X114333334Y-98264342D01*
X114333334Y-98264342D02*
X114333334Y-97978628D01*
X114333334Y-97978628D02*
X114285715Y-97883390D01*
X114285715Y-97883390D02*
X114238096Y-97835771D01*
X114238096Y-97835771D02*
X114142858Y-97788152D01*
X114142858Y-97788152D02*
X113952382Y-97788152D01*
X113952382Y-97788152D02*
X113857144Y-97835771D01*
X113523810Y-98835771D02*
X113476191Y-98788152D01*
X113476191Y-98788152D02*
X113380953Y-98645295D01*
X113380953Y-98645295D02*
X113333334Y-98550057D01*
X113333334Y-98550057D02*
X113285715Y-98407200D01*
X113285715Y-98407200D02*
X113238096Y-98169104D01*
X113238096Y-98169104D02*
X113238096Y-97978628D01*
X113238096Y-97978628D02*
X113285715Y-97740533D01*
X113285715Y-97740533D02*
X113333334Y-97597676D01*
X113333334Y-97597676D02*
X113380953Y-97502438D01*
X113380953Y-97502438D02*
X113476191Y-97359580D01*
X113476191Y-97359580D02*
X113523810Y-97311961D01*
X112047619Y-97550057D02*
X112000000Y-97502438D01*
X112000000Y-97502438D02*
X111904762Y-97454819D01*
X111904762Y-97454819D02*
X111666667Y-97454819D01*
X111666667Y-97454819D02*
X111571429Y-97502438D01*
X111571429Y-97502438D02*
X111523810Y-97550057D01*
X111523810Y-97550057D02*
X111476191Y-97645295D01*
X111476191Y-97645295D02*
X111476191Y-97740533D01*
X111476191Y-97740533D02*
X111523810Y-97883390D01*
X111523810Y-97883390D02*
X112095238Y-98454819D01*
X112095238Y-98454819D02*
X111476191Y-98454819D01*
X110857143Y-97454819D02*
X110761905Y-97454819D01*
X110761905Y-97454819D02*
X110666667Y-97502438D01*
X110666667Y-97502438D02*
X110619048Y-97550057D01*
X110619048Y-97550057D02*
X110571429Y-97645295D01*
X110571429Y-97645295D02*
X110523810Y-97835771D01*
X110523810Y-97835771D02*
X110523810Y-98073866D01*
X110523810Y-98073866D02*
X110571429Y-98264342D01*
X110571429Y-98264342D02*
X110619048Y-98359580D01*
X110619048Y-98359580D02*
X110666667Y-98407200D01*
X110666667Y-98407200D02*
X110761905Y-98454819D01*
X110761905Y-98454819D02*
X110857143Y-98454819D01*
X110857143Y-98454819D02*
X110952381Y-98407200D01*
X110952381Y-98407200D02*
X111000000Y-98359580D01*
X111000000Y-98359580D02*
X111047619Y-98264342D01*
X111047619Y-98264342D02*
X111095238Y-98073866D01*
X111095238Y-98073866D02*
X111095238Y-97835771D01*
X111095238Y-97835771D02*
X111047619Y-97645295D01*
X111047619Y-97645295D02*
X111000000Y-97550057D01*
X111000000Y-97550057D02*
X110952381Y-97502438D01*
X110952381Y-97502438D02*
X110857143Y-97454819D01*
X110142857Y-97550057D02*
X110095238Y-97502438D01*
X110095238Y-97502438D02*
X110000000Y-97454819D01*
X110000000Y-97454819D02*
X109761905Y-97454819D01*
X109761905Y-97454819D02*
X109666667Y-97502438D01*
X109666667Y-97502438D02*
X109619048Y-97550057D01*
X109619048Y-97550057D02*
X109571429Y-97645295D01*
X109571429Y-97645295D02*
X109571429Y-97740533D01*
X109571429Y-97740533D02*
X109619048Y-97883390D01*
X109619048Y-97883390D02*
X110190476Y-98454819D01*
X110190476Y-98454819D02*
X109571429Y-98454819D01*
X108714286Y-97454819D02*
X108904762Y-97454819D01*
X108904762Y-97454819D02*
X109000000Y-97502438D01*
X109000000Y-97502438D02*
X109047619Y-97550057D01*
X109047619Y-97550057D02*
X109142857Y-97692914D01*
X109142857Y-97692914D02*
X109190476Y-97883390D01*
X109190476Y-97883390D02*
X109190476Y-98264342D01*
X109190476Y-98264342D02*
X109142857Y-98359580D01*
X109142857Y-98359580D02*
X109095238Y-98407200D01*
X109095238Y-98407200D02*
X109000000Y-98454819D01*
X109000000Y-98454819D02*
X108809524Y-98454819D01*
X108809524Y-98454819D02*
X108714286Y-98407200D01*
X108714286Y-98407200D02*
X108666667Y-98359580D01*
X108666667Y-98359580D02*
X108619048Y-98264342D01*
X108619048Y-98264342D02*
X108619048Y-98026247D01*
X108619048Y-98026247D02*
X108666667Y-97931009D01*
X108666667Y-97931009D02*
X108714286Y-97883390D01*
X108714286Y-97883390D02*
X108809524Y-97835771D01*
X108809524Y-97835771D02*
X109000000Y-97835771D01*
X109000000Y-97835771D02*
X109095238Y-97883390D01*
X109095238Y-97883390D02*
X109142857Y-97931009D01*
X109142857Y-97931009D02*
X109190476Y-98026247D01*
X107523809Y-97454819D02*
X107285714Y-98454819D01*
X107285714Y-98454819D02*
X107095238Y-97740533D01*
X107095238Y-97740533D02*
X106904762Y-98454819D01*
X106904762Y-98454819D02*
X106666667Y-97454819D01*
X106285714Y-98454819D02*
X106285714Y-97788152D01*
X106285714Y-97454819D02*
X106333333Y-97502438D01*
X106333333Y-97502438D02*
X106285714Y-97550057D01*
X106285714Y-97550057D02*
X106238095Y-97502438D01*
X106238095Y-97502438D02*
X106285714Y-97454819D01*
X106285714Y-97454819D02*
X106285714Y-97550057D01*
X105857143Y-98407200D02*
X105761905Y-98454819D01*
X105761905Y-98454819D02*
X105571429Y-98454819D01*
X105571429Y-98454819D02*
X105476191Y-98407200D01*
X105476191Y-98407200D02*
X105428572Y-98311961D01*
X105428572Y-98311961D02*
X105428572Y-98264342D01*
X105428572Y-98264342D02*
X105476191Y-98169104D01*
X105476191Y-98169104D02*
X105571429Y-98121485D01*
X105571429Y-98121485D02*
X105714286Y-98121485D01*
X105714286Y-98121485D02*
X105809524Y-98073866D01*
X105809524Y-98073866D02*
X105857143Y-97978628D01*
X105857143Y-97978628D02*
X105857143Y-97931009D01*
X105857143Y-97931009D02*
X105809524Y-97835771D01*
X105809524Y-97835771D02*
X105714286Y-97788152D01*
X105714286Y-97788152D02*
X105571429Y-97788152D01*
X105571429Y-97788152D02*
X105476191Y-97835771D01*
X104428572Y-98454819D02*
X104761905Y-97978628D01*
X105000000Y-98454819D02*
X105000000Y-97454819D01*
X105000000Y-97454819D02*
X104619048Y-97454819D01*
X104619048Y-97454819D02*
X104523810Y-97502438D01*
X104523810Y-97502438D02*
X104476191Y-97550057D01*
X104476191Y-97550057D02*
X104428572Y-97645295D01*
X104428572Y-97645295D02*
X104428572Y-97788152D01*
X104428572Y-97788152D02*
X104476191Y-97883390D01*
X104476191Y-97883390D02*
X104523810Y-97931009D01*
X104523810Y-97931009D02*
X104619048Y-97978628D01*
X104619048Y-97978628D02*
X105000000Y-97978628D01*
X104000000Y-98454819D02*
X104000000Y-97788152D01*
X104000000Y-97454819D02*
X104047619Y-97502438D01*
X104047619Y-97502438D02*
X104000000Y-97550057D01*
X104000000Y-97550057D02*
X103952381Y-97502438D01*
X103952381Y-97502438D02*
X104000000Y-97454819D01*
X104000000Y-97454819D02*
X104000000Y-97550057D01*
X103095239Y-97788152D02*
X103095239Y-98597676D01*
X103095239Y-98597676D02*
X103142858Y-98692914D01*
X103142858Y-98692914D02*
X103190477Y-98740533D01*
X103190477Y-98740533D02*
X103285715Y-98788152D01*
X103285715Y-98788152D02*
X103428572Y-98788152D01*
X103428572Y-98788152D02*
X103523810Y-98740533D01*
X103095239Y-98407200D02*
X103190477Y-98454819D01*
X103190477Y-98454819D02*
X103380953Y-98454819D01*
X103380953Y-98454819D02*
X103476191Y-98407200D01*
X103476191Y-98407200D02*
X103523810Y-98359580D01*
X103523810Y-98359580D02*
X103571429Y-98264342D01*
X103571429Y-98264342D02*
X103571429Y-97978628D01*
X103571429Y-97978628D02*
X103523810Y-97883390D01*
X103523810Y-97883390D02*
X103476191Y-97835771D01*
X103476191Y-97835771D02*
X103380953Y-97788152D01*
X103380953Y-97788152D02*
X103190477Y-97788152D01*
X103190477Y-97788152D02*
X103095239Y-97835771D01*
X102619048Y-98454819D02*
X102619048Y-97454819D01*
X102190477Y-98454819D02*
X102190477Y-97931009D01*
X102190477Y-97931009D02*
X102238096Y-97835771D01*
X102238096Y-97835771D02*
X102333334Y-97788152D01*
X102333334Y-97788152D02*
X102476191Y-97788152D01*
X102476191Y-97788152D02*
X102571429Y-97835771D01*
X102571429Y-97835771D02*
X102619048Y-97883390D01*
X101857143Y-97788152D02*
X101476191Y-97788152D01*
X101714286Y-97454819D02*
X101714286Y-98311961D01*
X101714286Y-98311961D02*
X101666667Y-98407200D01*
X101666667Y-98407200D02*
X101571429Y-98454819D01*
X101571429Y-98454819D02*
X101476191Y-98454819D01*
X100523809Y-97454819D02*
X99952381Y-97454819D01*
X100238095Y-98454819D02*
X100238095Y-97454819D01*
X99238095Y-98407200D02*
X99333333Y-98454819D01*
X99333333Y-98454819D02*
X99523809Y-98454819D01*
X99523809Y-98454819D02*
X99619047Y-98407200D01*
X99619047Y-98407200D02*
X99666666Y-98311961D01*
X99666666Y-98311961D02*
X99666666Y-97931009D01*
X99666666Y-97931009D02*
X99619047Y-97835771D01*
X99619047Y-97835771D02*
X99523809Y-97788152D01*
X99523809Y-97788152D02*
X99333333Y-97788152D01*
X99333333Y-97788152D02*
X99238095Y-97835771D01*
X99238095Y-97835771D02*
X99190476Y-97931009D01*
X99190476Y-97931009D02*
X99190476Y-98026247D01*
X99190476Y-98026247D02*
X99666666Y-98121485D01*
X98333333Y-98407200D02*
X98428571Y-98454819D01*
X98428571Y-98454819D02*
X98619047Y-98454819D01*
X98619047Y-98454819D02*
X98714285Y-98407200D01*
X98714285Y-98407200D02*
X98761904Y-98359580D01*
X98761904Y-98359580D02*
X98809523Y-98264342D01*
X98809523Y-98264342D02*
X98809523Y-97978628D01*
X98809523Y-97978628D02*
X98761904Y-97883390D01*
X98761904Y-97883390D02*
X98714285Y-97835771D01*
X98714285Y-97835771D02*
X98619047Y-97788152D01*
X98619047Y-97788152D02*
X98428571Y-97788152D01*
X98428571Y-97788152D02*
X98333333Y-97835771D01*
X97904761Y-98454819D02*
X97904761Y-97454819D01*
X97476190Y-98454819D02*
X97476190Y-97931009D01*
X97476190Y-97931009D02*
X97523809Y-97835771D01*
X97523809Y-97835771D02*
X97619047Y-97788152D01*
X97619047Y-97788152D02*
X97761904Y-97788152D01*
X97761904Y-97788152D02*
X97857142Y-97835771D01*
X97857142Y-97835771D02*
X97904761Y-97883390D01*
X96999999Y-97788152D02*
X96999999Y-98454819D01*
X96999999Y-97883390D02*
X96952380Y-97835771D01*
X96952380Y-97835771D02*
X96857142Y-97788152D01*
X96857142Y-97788152D02*
X96714285Y-97788152D01*
X96714285Y-97788152D02*
X96619047Y-97835771D01*
X96619047Y-97835771D02*
X96571428Y-97931009D01*
X96571428Y-97931009D02*
X96571428Y-98454819D01*
X95952380Y-98454819D02*
X96047618Y-98407200D01*
X96047618Y-98407200D02*
X96095237Y-98359580D01*
X96095237Y-98359580D02*
X96142856Y-98264342D01*
X96142856Y-98264342D02*
X96142856Y-97978628D01*
X96142856Y-97978628D02*
X96095237Y-97883390D01*
X96095237Y-97883390D02*
X96047618Y-97835771D01*
X96047618Y-97835771D02*
X95952380Y-97788152D01*
X95952380Y-97788152D02*
X95809523Y-97788152D01*
X95809523Y-97788152D02*
X95714285Y-97835771D01*
X95714285Y-97835771D02*
X95666666Y-97883390D01*
X95666666Y-97883390D02*
X95619047Y-97978628D01*
X95619047Y-97978628D02*
X95619047Y-98264342D01*
X95619047Y-98264342D02*
X95666666Y-98359580D01*
X95666666Y-98359580D02*
X95714285Y-98407200D01*
X95714285Y-98407200D02*
X95809523Y-98454819D01*
X95809523Y-98454819D02*
X95952380Y-98454819D01*
X95047618Y-98454819D02*
X95142856Y-98407200D01*
X95142856Y-98407200D02*
X95190475Y-98311961D01*
X95190475Y-98311961D02*
X95190475Y-97454819D01*
X94523808Y-98454819D02*
X94619046Y-98407200D01*
X94619046Y-98407200D02*
X94666665Y-98359580D01*
X94666665Y-98359580D02*
X94714284Y-98264342D01*
X94714284Y-98264342D02*
X94714284Y-97978628D01*
X94714284Y-97978628D02*
X94666665Y-97883390D01*
X94666665Y-97883390D02*
X94619046Y-97835771D01*
X94619046Y-97835771D02*
X94523808Y-97788152D01*
X94523808Y-97788152D02*
X94380951Y-97788152D01*
X94380951Y-97788152D02*
X94285713Y-97835771D01*
X94285713Y-97835771D02*
X94238094Y-97883390D01*
X94238094Y-97883390D02*
X94190475Y-97978628D01*
X94190475Y-97978628D02*
X94190475Y-98264342D01*
X94190475Y-98264342D02*
X94238094Y-98359580D01*
X94238094Y-98359580D02*
X94285713Y-98407200D01*
X94285713Y-98407200D02*
X94380951Y-98454819D01*
X94380951Y-98454819D02*
X94523808Y-98454819D01*
X93333332Y-97788152D02*
X93333332Y-98597676D01*
X93333332Y-98597676D02*
X93380951Y-98692914D01*
X93380951Y-98692914D02*
X93428570Y-98740533D01*
X93428570Y-98740533D02*
X93523808Y-98788152D01*
X93523808Y-98788152D02*
X93666665Y-98788152D01*
X93666665Y-98788152D02*
X93761903Y-98740533D01*
X93333332Y-98407200D02*
X93428570Y-98454819D01*
X93428570Y-98454819D02*
X93619046Y-98454819D01*
X93619046Y-98454819D02*
X93714284Y-98407200D01*
X93714284Y-98407200D02*
X93761903Y-98359580D01*
X93761903Y-98359580D02*
X93809522Y-98264342D01*
X93809522Y-98264342D02*
X93809522Y-97978628D01*
X93809522Y-97978628D02*
X93761903Y-97883390D01*
X93761903Y-97883390D02*
X93714284Y-97835771D01*
X93714284Y-97835771D02*
X93619046Y-97788152D01*
X93619046Y-97788152D02*
X93428570Y-97788152D01*
X93428570Y-97788152D02*
X93333332Y-97835771D01*
X92857141Y-98454819D02*
X92857141Y-97788152D01*
X92857141Y-97454819D02*
X92904760Y-97502438D01*
X92904760Y-97502438D02*
X92857141Y-97550057D01*
X92857141Y-97550057D02*
X92809522Y-97502438D01*
X92809522Y-97502438D02*
X92857141Y-97454819D01*
X92857141Y-97454819D02*
X92857141Y-97550057D01*
X91999999Y-98407200D02*
X92095237Y-98454819D01*
X92095237Y-98454819D02*
X92285713Y-98454819D01*
X92285713Y-98454819D02*
X92380951Y-98407200D01*
X92380951Y-98407200D02*
X92428570Y-98311961D01*
X92428570Y-98311961D02*
X92428570Y-97931009D01*
X92428570Y-97931009D02*
X92380951Y-97835771D01*
X92380951Y-97835771D02*
X92285713Y-97788152D01*
X92285713Y-97788152D02*
X92095237Y-97788152D01*
X92095237Y-97788152D02*
X91999999Y-97835771D01*
X91999999Y-97835771D02*
X91952380Y-97931009D01*
X91952380Y-97931009D02*
X91952380Y-98026247D01*
X91952380Y-98026247D02*
X92428570Y-98121485D01*
X91571427Y-98407200D02*
X91476189Y-98454819D01*
X91476189Y-98454819D02*
X91285713Y-98454819D01*
X91285713Y-98454819D02*
X91190475Y-98407200D01*
X91190475Y-98407200D02*
X91142856Y-98311961D01*
X91142856Y-98311961D02*
X91142856Y-98264342D01*
X91142856Y-98264342D02*
X91190475Y-98169104D01*
X91190475Y-98169104D02*
X91285713Y-98121485D01*
X91285713Y-98121485D02*
X91428570Y-98121485D01*
X91428570Y-98121485D02*
X91523808Y-98073866D01*
X91523808Y-98073866D02*
X91571427Y-97978628D01*
X91571427Y-97978628D02*
X91571427Y-97931009D01*
X91571427Y-97931009D02*
X91523808Y-97835771D01*
X91523808Y-97835771D02*
X91428570Y-97788152D01*
X91428570Y-97788152D02*
X91285713Y-97788152D01*
X91285713Y-97788152D02*
X91190475Y-97835771D01*
X89952379Y-98454819D02*
X89952379Y-97454819D01*
X89952379Y-97454819D02*
X89571427Y-97454819D01*
X89571427Y-97454819D02*
X89476189Y-97502438D01*
X89476189Y-97502438D02*
X89428570Y-97550057D01*
X89428570Y-97550057D02*
X89380951Y-97645295D01*
X89380951Y-97645295D02*
X89380951Y-97788152D01*
X89380951Y-97788152D02*
X89428570Y-97883390D01*
X89428570Y-97883390D02*
X89476189Y-97931009D01*
X89476189Y-97931009D02*
X89571427Y-97978628D01*
X89571427Y-97978628D02*
X89952379Y-97978628D01*
X89047617Y-97788152D02*
X88809522Y-98454819D01*
X88809522Y-98454819D02*
X88571427Y-97788152D01*
X88333331Y-97788152D02*
X87952379Y-97788152D01*
X88190474Y-97454819D02*
X88190474Y-98311961D01*
X88190474Y-98311961D02*
X88142855Y-98407200D01*
X88142855Y-98407200D02*
X88047617Y-98454819D01*
X88047617Y-98454819D02*
X87952379Y-98454819D01*
X86380950Y-98454819D02*
X86857140Y-98454819D01*
X86857140Y-98454819D02*
X86857140Y-97454819D01*
X86190473Y-97788152D02*
X85809521Y-97788152D01*
X86047616Y-97454819D02*
X86047616Y-98311961D01*
X86047616Y-98311961D02*
X85999997Y-98407200D01*
X85999997Y-98407200D02*
X85904759Y-98454819D01*
X85904759Y-98454819D02*
X85809521Y-98454819D01*
X85047616Y-98454819D02*
X85047616Y-97454819D01*
X85047616Y-98407200D02*
X85142854Y-98454819D01*
X85142854Y-98454819D02*
X85333330Y-98454819D01*
X85333330Y-98454819D02*
X85428568Y-98407200D01*
X85428568Y-98407200D02*
X85476187Y-98359580D01*
X85476187Y-98359580D02*
X85523806Y-98264342D01*
X85523806Y-98264342D02*
X85523806Y-97978628D01*
X85523806Y-97978628D02*
X85476187Y-97883390D01*
X85476187Y-97883390D02*
X85428568Y-97835771D01*
X85428568Y-97835771D02*
X85333330Y-97788152D01*
X85333330Y-97788152D02*
X85142854Y-97788152D01*
X85142854Y-97788152D02*
X85047616Y-97835771D01*
M02*
