%TF.GenerationSoftware,KiCad,Pcbnew,9.0.7*%
%TF.CreationDate,2026-06-26T15:37:17+05:30*%
%TF.ProjectId,smart_home,736d6172-745f-4686-9f6d-652e6b696361,0.1*%
%TF.SameCoordinates,Original*%
%TF.FileFunction,Drillmap*%
%TF.FilePolarity,Positive*%
%FSLAX45Y45*%
G04 Gerber Fmt 4.5, Leading zero omitted, Abs format (unit mm)*
G04 Created by KiCad (PCBNEW 9.0.7) date 2026-06-26 15:37:17*
%MOMM*%
%LPD*%
G01*
G04 APERTURE LIST*
%ADD10C,0.100000*%
%ADD11C,0.200000*%
%ADD12C,0.110000*%
%ADD13C,0.130000*%
%ADD14C,0.270000*%
G04 APERTURE END LIST*
D10*
X0Y0D02*
X20000000Y0D01*
X20000000Y0D02*
X20000000Y-10000000D01*
X20000000Y-10000000D02*
X0Y-10000000D01*
X0Y-10000000D02*
X0Y0D01*
X11000000Y-500000D02*
X11800000Y-500000D01*
X11800000Y-500000D02*
X11800000Y-9500000D01*
X11800000Y-9500000D02*
X11000000Y-9500000D01*
X11000000Y-9500000D02*
X11000000Y-500000D01*
X660000Y-500000D02*
G75*
G02*
X340000Y-500000I-160000J0D01*
G01*
X340000Y-500000D02*
G75*
G02*
X660000Y-500000I160000J0D01*
G01*
X19660000Y-500000D02*
G75*
G02*
X19340000Y-500000I-160000J0D01*
G01*
X19340000Y-500000D02*
G75*
G02*
X19660000Y-500000I160000J0D01*
G01*
X660000Y-9500000D02*
G75*
G02*
X340000Y-9500000I-160000J0D01*
G01*
X340000Y-9500000D02*
G75*
G02*
X660000Y-9500000I160000J0D01*
G01*
X19660000Y-9500000D02*
G75*
G02*
X19340000Y-9500000I-160000J0D01*
G01*
X19340000Y-9500000D02*
G75*
G02*
X19660000Y-9500000I160000J0D01*
G01*
D11*
D10*
X15569500Y-4822750D02*
X15589500Y-4842750D01*
X15589500Y-4822750D02*
X15569500Y-4842750D01*
X15569500Y-4975250D02*
X15589500Y-4995250D01*
X15589500Y-4975250D02*
X15569500Y-4995250D01*
X15645750Y-4746500D02*
X15665750Y-4766500D01*
X15665750Y-4746500D02*
X15645750Y-4766500D01*
X15645750Y-4899000D02*
X15665750Y-4919000D01*
X15665750Y-4899000D02*
X15645750Y-4919000D01*
X15645750Y-5051500D02*
X15665750Y-5071500D01*
X15665750Y-5051500D02*
X15645750Y-5071500D01*
X15722000Y-4822750D02*
X15742000Y-4842750D01*
X15742000Y-4822750D02*
X15722000Y-4842750D01*
X15722000Y-4975250D02*
X15742000Y-4995250D01*
X15742000Y-4975250D02*
X15722000Y-4995250D01*
X15798250Y-4746500D02*
X15818250Y-4766500D01*
X15818250Y-4746500D02*
X15798250Y-4766500D01*
X15798250Y-4899000D02*
X15818250Y-4919000D01*
X15818250Y-4899000D02*
X15798250Y-4919000D01*
X15798250Y-5051500D02*
X15818250Y-5071500D01*
X15818250Y-5051500D02*
X15798250Y-5071500D01*
X15874500Y-4822750D02*
X15894500Y-4842750D01*
X15894500Y-4822750D02*
X15874500Y-4842750D01*
X15874500Y-4975250D02*
X15894500Y-4995250D01*
X15894500Y-4975250D02*
X15874500Y-4995250D01*
X12128510Y-3644680D02*
G75*
G02*
X12098510Y-3644680I-15000J0D01*
G01*
X12098510Y-3644680D02*
G75*
G02*
X12128510Y-3644680I15000J0D01*
G01*
X12405620Y-7504960D02*
G75*
G02*
X12375620Y-7504960I-15000J0D01*
G01*
X12375620Y-7504960D02*
G75*
G02*
X12405620Y-7504960I15000J0D01*
G01*
X13600860Y-7504960D02*
G75*
G02*
X13570860Y-7504960I-15000J0D01*
G01*
X13570860Y-7504960D02*
G75*
G02*
X13600860Y-7504960I15000J0D01*
G01*
X13783160Y-6688690D02*
G75*
G02*
X13753160Y-6688690I-15000J0D01*
G01*
X13753160Y-6688690D02*
G75*
G02*
X13783160Y-6688690I15000J0D01*
G01*
X14755850Y-4876250D02*
G75*
G02*
X14725850Y-4876250I-15000J0D01*
G01*
X14725850Y-4876250D02*
G75*
G02*
X14755850Y-4876250I15000J0D01*
G01*
X15065500Y-5476660D02*
G75*
G02*
X15035500Y-5476660I-15000J0D01*
G01*
X15035500Y-5476660D02*
G75*
G02*
X15065500Y-5476660I15000J0D01*
G01*
X15066670Y-4429000D02*
G75*
G02*
X15036670Y-4429000I-15000J0D01*
G01*
X15036670Y-4429000D02*
G75*
G02*
X15066670Y-4429000I15000J0D01*
G01*
X15272470Y-3809670D02*
G75*
G02*
X15242470Y-3809670I-15000J0D01*
G01*
X15242470Y-3809670D02*
G75*
G02*
X15272470Y-3809670I15000J0D01*
G01*
X15337820Y-5824810D02*
G75*
G02*
X15307820Y-5824810I-15000J0D01*
G01*
X15307820Y-5824810D02*
G75*
G02*
X15337820Y-5824810I15000J0D01*
G01*
X15406800Y-7401950D02*
G75*
G02*
X15376800Y-7401950I-15000J0D01*
G01*
X15376800Y-7401950D02*
G75*
G02*
X15406800Y-7401950I15000J0D01*
G01*
X15816650Y-5699000D02*
G75*
G02*
X15786650Y-5699000I-15000J0D01*
G01*
X15786650Y-5699000D02*
G75*
G02*
X15816650Y-5699000I15000J0D01*
G01*
X16485220Y-5191000D02*
G75*
G02*
X16455220Y-5191000I-15000J0D01*
G01*
X16455220Y-5191000D02*
G75*
G02*
X16485220Y-5191000I15000J0D01*
G01*
X16564390Y-5064000D02*
G75*
G02*
X16534390Y-5064000I-15000J0D01*
G01*
X16534390Y-5064000D02*
G75*
G02*
X16564390Y-5064000I15000J0D01*
G01*
X16606800Y-7401950D02*
G75*
G02*
X16576800Y-7401950I-15000J0D01*
G01*
X16576800Y-7401950D02*
G75*
G02*
X16606800Y-7401950I15000J0D01*
G01*
X16801910Y-5908080D02*
G75*
G02*
X16771910Y-5908080I-15000J0D01*
G01*
X16771910Y-5908080D02*
G75*
G02*
X16801910Y-5908080I15000J0D01*
G01*
X16818700Y-4540660D02*
G75*
G02*
X16788700Y-4540660I-15000J0D01*
G01*
X16788700Y-4540660D02*
G75*
G02*
X16818700Y-4540660I15000J0D01*
G01*
X17150840Y-4079450D02*
G75*
G02*
X17120840Y-4079450I-15000J0D01*
G01*
X17120840Y-4079450D02*
G75*
G02*
X17150840Y-4079450I15000J0D01*
G01*
X17246790Y-4540500D02*
G75*
G02*
X17216790Y-4540500I-15000J0D01*
G01*
X17216790Y-4540500D02*
G75*
G02*
X17246790Y-4540500I15000J0D01*
G01*
X18216350Y-4683000D02*
G75*
G02*
X18186350Y-4683000I-15000J0D01*
G01*
X18186350Y-4683000D02*
G75*
G02*
X18216350Y-4683000I15000J0D01*
G01*
X18578350Y-2250000D02*
G75*
G02*
X18548350Y-2250000I-15000J0D01*
G01*
X18548350Y-2250000D02*
G75*
G02*
X18578350Y-2250000I15000J0D01*
G01*
X18642330Y-2350790D02*
G75*
G02*
X18612330Y-2350790I-15000J0D01*
G01*
X18612330Y-2350790D02*
G75*
G02*
X18642330Y-2350790I15000J0D01*
G01*
X12988240Y-1621560D02*
X12988240Y-1661560D01*
X12968240Y-1641560D02*
X13008240Y-1641560D01*
X13544240Y-1338050D02*
X13544240Y-1378050D01*
X13524240Y-1358050D02*
X13564240Y-1358050D01*
X14675850Y-4605000D02*
X14675850Y-4645000D01*
X14655850Y-4625000D02*
X14695850Y-4625000D01*
X14684280Y-1799610D02*
X14684280Y-1839610D01*
X14664280Y-1819610D02*
X14704280Y-1819610D01*
X15062020Y-3653730D02*
X15062020Y-3693730D01*
X15042020Y-3673730D02*
X15082020Y-3673730D01*
X15062020Y-4303810D02*
X15062020Y-4343810D01*
X15042020Y-4323810D02*
X15082020Y-4323810D01*
X15808250Y-4155000D02*
X15808250Y-4195000D01*
X15788250Y-4175000D02*
X15828250Y-4175000D01*
X5221213Y-821213D02*
X5221213Y-778787D01*
X5178787Y-778787D01*
X5178787Y-821213D01*
X5221213Y-821213D01*
X5721213Y-1071213D02*
X5721213Y-1028787D01*
X5678787Y-1028787D01*
X5678787Y-1071213D01*
X5721213Y-1071213D01*
X12400000Y-3040000D02*
X12440000Y-3000000D01*
X12400000Y-2960000D01*
X12360000Y-3000000D01*
X12400000Y-3040000D01*
X12400000Y-3294000D02*
X12440000Y-3254000D01*
X12400000Y-3214000D01*
X12360000Y-3254000D01*
X12400000Y-3294000D01*
X12400000Y-3548000D02*
X12440000Y-3508000D01*
X12400000Y-3468000D01*
X12360000Y-3508000D01*
X12400000Y-3548000D01*
X12400000Y-3802000D02*
X12440000Y-3762000D01*
X12400000Y-3722000D01*
X12360000Y-3762000D01*
X12400000Y-3802000D01*
X12400000Y-4056000D02*
X12440000Y-4016000D01*
X12400000Y-3976000D01*
X12360000Y-4016000D01*
X12400000Y-4056000D01*
X12400000Y-4310000D02*
X12440000Y-4270000D01*
X12400000Y-4230000D01*
X12360000Y-4270000D01*
X12400000Y-4310000D01*
X12400000Y-4564000D02*
X12440000Y-4524000D01*
X12400000Y-4484000D01*
X12360000Y-4524000D01*
X12400000Y-4564000D01*
X12400000Y-4818000D02*
X12440000Y-4778000D01*
X12400000Y-4738000D01*
X12360000Y-4778000D01*
X12400000Y-4818000D01*
X13162000Y-3040000D02*
X13202000Y-3000000D01*
X13162000Y-2960000D01*
X13122000Y-3000000D01*
X13162000Y-3040000D01*
X13162000Y-3294000D02*
X13202000Y-3254000D01*
X13162000Y-3214000D01*
X13122000Y-3254000D01*
X13162000Y-3294000D01*
X13162000Y-3548000D02*
X13202000Y-3508000D01*
X13162000Y-3468000D01*
X13122000Y-3508000D01*
X13162000Y-3548000D01*
X13162000Y-3802000D02*
X13202000Y-3762000D01*
X13162000Y-3722000D01*
X13122000Y-3762000D01*
X13162000Y-3802000D01*
X13162000Y-4056000D02*
X13202000Y-4016000D01*
X13162000Y-3976000D01*
X13122000Y-4016000D01*
X13162000Y-4056000D01*
X13162000Y-4310000D02*
X13202000Y-4270000D01*
X13162000Y-4230000D01*
X13122000Y-4270000D01*
X13162000Y-4310000D01*
X13162000Y-4564000D02*
X13202000Y-4524000D01*
X13162000Y-4484000D01*
X13122000Y-4524000D01*
X13162000Y-4564000D01*
X13162000Y-4818000D02*
X13202000Y-4778000D01*
X13162000Y-4738000D01*
X13122000Y-4778000D01*
X13162000Y-4818000D01*
X13800000Y-5540000D02*
X13840000Y-5500000D01*
X13800000Y-5460000D01*
X13760000Y-5500000D01*
X13800000Y-5540000D01*
X14050000Y-5540000D02*
X14090000Y-5500000D01*
X14050000Y-5460000D01*
X14010000Y-5500000D01*
X14050000Y-5540000D01*
X12955000Y-7955000D02*
X13045000Y-8045000D01*
X13045000Y-7955000D02*
X12955000Y-8045000D01*
X13045000Y-8000000D02*
G75*
G02*
X12955000Y-8000000I-45000J0D01*
G01*
X12955000Y-8000000D02*
G75*
G02*
X13045000Y-8000000I45000J0D01*
G01*
X13209000Y-7955000D02*
X13299000Y-8045000D01*
X13299000Y-7955000D02*
X13209000Y-8045000D01*
X13299000Y-8000000D02*
G75*
G02*
X13209000Y-8000000I-45000J0D01*
G01*
X13209000Y-8000000D02*
G75*
G02*
X13299000Y-8000000I45000J0D01*
G01*
X14155000Y-7955000D02*
X14245000Y-8045000D01*
X14245000Y-7955000D02*
X14155000Y-8045000D01*
X14245000Y-8000000D02*
G75*
G02*
X14155000Y-8000000I-45000J0D01*
G01*
X14155000Y-8000000D02*
G75*
G02*
X14245000Y-8000000I45000J0D01*
G01*
X14255000Y-1455000D02*
X14345000Y-1545000D01*
X14345000Y-1455000D02*
X14255000Y-1545000D01*
X14345000Y-1500000D02*
G75*
G02*
X14255000Y-1500000I-45000J0D01*
G01*
X14255000Y-1500000D02*
G75*
G02*
X14345000Y-1500000I45000J0D01*
G01*
X14409000Y-7955000D02*
X14499000Y-8045000D01*
X14499000Y-7955000D02*
X14409000Y-8045000D01*
X14499000Y-8000000D02*
G75*
G02*
X14409000Y-8000000I-45000J0D01*
G01*
X14409000Y-8000000D02*
G75*
G02*
X14499000Y-8000000I45000J0D01*
G01*
X14509000Y-1455000D02*
X14599000Y-1545000D01*
X14599000Y-1455000D02*
X14509000Y-1545000D01*
X14599000Y-1500000D02*
G75*
G02*
X14509000Y-1500000I-45000J0D01*
G01*
X14509000Y-1500000D02*
G75*
G02*
X14599000Y-1500000I45000J0D01*
G01*
X15355000Y-7955000D02*
X15445000Y-8045000D01*
X15445000Y-7955000D02*
X15355000Y-8045000D01*
X15445000Y-8000000D02*
G75*
G02*
X15355000Y-8000000I-45000J0D01*
G01*
X15355000Y-8000000D02*
G75*
G02*
X15445000Y-8000000I45000J0D01*
G01*
X15609000Y-7955000D02*
X15699000Y-8045000D01*
X15699000Y-7955000D02*
X15609000Y-8045000D01*
X15699000Y-8000000D02*
G75*
G02*
X15609000Y-8000000I-45000J0D01*
G01*
X15609000Y-8000000D02*
G75*
G02*
X15699000Y-8000000I45000J0D01*
G01*
X16555000Y-7955000D02*
X16645000Y-8045000D01*
X16645000Y-7955000D02*
X16555000Y-8045000D01*
X16645000Y-8000000D02*
G75*
G02*
X16555000Y-8000000I-45000J0D01*
G01*
X16555000Y-8000000D02*
G75*
G02*
X16645000Y-8000000I45000J0D01*
G01*
X16809000Y-7955000D02*
X16899000Y-8045000D01*
X16899000Y-7955000D02*
X16809000Y-8045000D01*
X16899000Y-8000000D02*
G75*
G02*
X16809000Y-8000000I-45000J0D01*
G01*
X16809000Y-8000000D02*
G75*
G02*
X16899000Y-8000000I45000J0D01*
G01*
X3900000Y-800000D02*
X4000000Y-900000D01*
X4000000Y-800000D02*
X3900000Y-900000D01*
X3950000Y-800000D02*
X3950000Y-900000D01*
X3900000Y-850000D02*
X4000000Y-850000D01*
X3900000Y-1300000D02*
X4000000Y-1400000D01*
X4000000Y-1300000D02*
X3900000Y-1400000D01*
X3950000Y-1300000D02*
X3950000Y-1400000D01*
X3900000Y-1350000D02*
X4000000Y-1350000D01*
X6245000Y-2355000D02*
X6345000Y-2455000D01*
X6345000Y-2355000D02*
X6245000Y-2455000D01*
X6295000Y-2355000D02*
X6295000Y-2455000D01*
X6245000Y-2405000D02*
X6345000Y-2405000D01*
X6245000Y-3555000D02*
X6345000Y-3655000D01*
X6345000Y-3555000D02*
X6245000Y-3655000D01*
X6295000Y-3555000D02*
X6295000Y-3655000D01*
X6245000Y-3605000D02*
X6345000Y-3605000D01*
X6245000Y-4355000D02*
X6345000Y-4455000D01*
X6345000Y-4355000D02*
X6245000Y-4455000D01*
X6295000Y-4355000D02*
X6295000Y-4455000D01*
X6245000Y-4405000D02*
X6345000Y-4405000D01*
X6245000Y-5555000D02*
X6345000Y-5655000D01*
X6345000Y-5555000D02*
X6245000Y-5655000D01*
X6295000Y-5555000D02*
X6295000Y-5655000D01*
X6245000Y-5605000D02*
X6345000Y-5605000D01*
X6245000Y-6355000D02*
X6345000Y-6455000D01*
X6345000Y-6355000D02*
X6245000Y-6455000D01*
X6295000Y-6355000D02*
X6295000Y-6455000D01*
X6245000Y-6405000D02*
X6345000Y-6405000D01*
X6245000Y-7555000D02*
X6345000Y-7655000D01*
X6345000Y-7555000D02*
X6245000Y-7655000D01*
X6295000Y-7555000D02*
X6295000Y-7655000D01*
X6245000Y-7605000D02*
X6345000Y-7605000D01*
X6245000Y-8355000D02*
X6345000Y-8455000D01*
X6345000Y-8355000D02*
X6245000Y-8455000D01*
X6295000Y-8355000D02*
X6295000Y-8455000D01*
X6245000Y-8405000D02*
X6345000Y-8405000D01*
X6245000Y-9555000D02*
X6345000Y-9655000D01*
X6345000Y-9555000D02*
X6245000Y-9655000D01*
X6295000Y-9555000D02*
X6295000Y-9655000D01*
X6245000Y-9605000D02*
X6345000Y-9605000D01*
X16450000Y-1150000D02*
X16550000Y-1250000D01*
X16550000Y-1150000D02*
X16450000Y-1250000D01*
X16500000Y-1150000D02*
X16500000Y-1250000D01*
X16450000Y-1200000D02*
X16550000Y-1200000D01*
X16704000Y-1150000D02*
X16804000Y-1250000D01*
X16804000Y-1150000D02*
X16704000Y-1250000D01*
X16754000Y-1150000D02*
X16754000Y-1250000D01*
X16704000Y-1200000D02*
X16804000Y-1200000D01*
X16958000Y-1150000D02*
X17058000Y-1250000D01*
X17058000Y-1150000D02*
X16958000Y-1250000D01*
X17008000Y-1150000D02*
X17008000Y-1250000D01*
X16958000Y-1200000D02*
X17058000Y-1200000D01*
X17212000Y-1150000D02*
X17312000Y-1250000D01*
X17312000Y-1150000D02*
X17212000Y-1250000D01*
X17262000Y-1150000D02*
X17262000Y-1250000D01*
X17212000Y-1200000D02*
X17312000Y-1200000D01*
X18180000Y-6950000D02*
X18280000Y-7050000D01*
X18280000Y-6950000D02*
X18180000Y-7050000D01*
X18230000Y-6950000D02*
X18230000Y-7050000D01*
X18180000Y-7000000D02*
X18280000Y-7000000D01*
X18434000Y-6950000D02*
X18534000Y-7050000D01*
X18534000Y-6950000D02*
X18434000Y-7050000D01*
X18484000Y-6950000D02*
X18484000Y-7050000D01*
X18434000Y-7000000D02*
X18534000Y-7000000D01*
X18688000Y-6950000D02*
X18788000Y-7050000D01*
X18788000Y-6950000D02*
X18688000Y-7050000D01*
X18738000Y-6950000D02*
X18738000Y-7050000D01*
X18688000Y-7000000D02*
X18788000Y-7000000D01*
X18742000Y-2950000D02*
X18842000Y-3050000D01*
X18842000Y-2950000D02*
X18742000Y-3050000D01*
X18792000Y-2950000D02*
X18792000Y-3050000D01*
X18742000Y-3000000D02*
X18842000Y-3000000D01*
X18742000Y-3450000D02*
X18842000Y-3550000D01*
X18842000Y-3450000D02*
X18742000Y-3550000D01*
X18792000Y-3450000D02*
X18792000Y-3550000D01*
X18742000Y-3500000D02*
X18842000Y-3500000D01*
X18742000Y-3950000D02*
X18842000Y-4050000D01*
X18842000Y-3950000D02*
X18742000Y-4050000D01*
X18792000Y-3950000D02*
X18792000Y-4050000D01*
X18742000Y-4000000D02*
X18842000Y-4000000D01*
X18742000Y-4450000D02*
X18842000Y-4550000D01*
X18842000Y-4450000D02*
X18742000Y-4550000D01*
X18792000Y-4450000D02*
X18792000Y-4550000D01*
X18742000Y-4500000D02*
X18842000Y-4500000D01*
X18942000Y-6950000D02*
X19042000Y-7050000D01*
X19042000Y-6950000D02*
X18942000Y-7050000D01*
X18992000Y-6950000D02*
X18992000Y-7050000D01*
X18942000Y-7000000D02*
X19042000Y-7000000D01*
X18996000Y-2950000D02*
X19096000Y-3050000D01*
X19096000Y-2950000D02*
X18996000Y-3050000D01*
X19046000Y-2950000D02*
X19046000Y-3050000D01*
X18996000Y-3000000D02*
X19096000Y-3000000D01*
X18996000Y-3450000D02*
X19096000Y-3550000D01*
X19096000Y-3450000D02*
X18996000Y-3550000D01*
X19046000Y-3450000D02*
X19046000Y-3550000D01*
X18996000Y-3500000D02*
X19096000Y-3500000D01*
X18996000Y-3950000D02*
X19096000Y-4050000D01*
X19096000Y-3950000D02*
X18996000Y-4050000D01*
X19046000Y-3950000D02*
X19046000Y-4050000D01*
X18996000Y-4000000D02*
X19096000Y-4000000D01*
X18996000Y-4450000D02*
X19096000Y-4550000D01*
X19096000Y-4450000D02*
X18996000Y-4550000D01*
X19046000Y-4450000D02*
X19046000Y-4550000D01*
X18996000Y-4500000D02*
X19096000Y-4500000D01*
X19196000Y-6950000D02*
X19296000Y-7050000D01*
X19296000Y-6950000D02*
X19196000Y-7050000D01*
X19246000Y-6950000D02*
X19246000Y-7050000D01*
X19196000Y-7000000D02*
X19296000Y-7000000D01*
X19250000Y-2950000D02*
X19350000Y-3050000D01*
X19350000Y-2950000D02*
X19250000Y-3050000D01*
X19300000Y-2950000D02*
X19300000Y-3050000D01*
X19250000Y-3000000D02*
X19350000Y-3000000D01*
X19250000Y-3450000D02*
X19350000Y-3550000D01*
X19350000Y-3450000D02*
X19250000Y-3550000D01*
X19300000Y-3450000D02*
X19300000Y-3550000D01*
X19250000Y-3500000D02*
X19350000Y-3500000D01*
X19250000Y-3950000D02*
X19350000Y-4050000D01*
X19350000Y-3950000D02*
X19250000Y-4050000D01*
X19300000Y-3950000D02*
X19300000Y-4050000D01*
X19250000Y-4000000D02*
X19350000Y-4000000D01*
X19250000Y-4450000D02*
X19350000Y-4550000D01*
X19350000Y-4450000D02*
X19250000Y-4550000D01*
X19300000Y-4450000D02*
X19300000Y-4550000D01*
X19250000Y-4500000D02*
X19350000Y-4500000D01*
X19450000Y-6950000D02*
X19550000Y-7050000D01*
X19550000Y-6950000D02*
X19450000Y-7050000D01*
X19500000Y-6950000D02*
X19500000Y-7050000D01*
X19450000Y-7000000D02*
X19550000Y-7000000D01*
D12*
X12445000Y-5445000D02*
X12555000Y-5555000D01*
X12555000Y-5445000D02*
X12445000Y-5555000D01*
X12538891Y-5538891D02*
X12538891Y-5461109D01*
X12461109Y-5461109D01*
X12461109Y-5538891D01*
X12538891Y-5538891D01*
X12445000Y-5895000D02*
X12555000Y-6005000D01*
X12555000Y-5895000D02*
X12445000Y-6005000D01*
X12538891Y-5988891D02*
X12538891Y-5911109D01*
X12461109Y-5911109D01*
X12461109Y-5988891D01*
X12538891Y-5988891D01*
X12445000Y-6445000D02*
X12555000Y-6555000D01*
X12555000Y-6445000D02*
X12445000Y-6555000D01*
X12538891Y-6538891D02*
X12538891Y-6461109D01*
X12461109Y-6461109D01*
X12461109Y-6538891D01*
X12538891Y-6538891D01*
X12445000Y-6895000D02*
X12555000Y-7005000D01*
X12555000Y-6895000D02*
X12445000Y-7005000D01*
X12538891Y-6988891D02*
X12538891Y-6911109D01*
X12461109Y-6911109D01*
X12461109Y-6988891D01*
X12538891Y-6988891D01*
X12945000Y-8945000D02*
X13055000Y-9055000D01*
X13055000Y-8945000D02*
X12945000Y-9055000D01*
X13038891Y-9038891D02*
X13038891Y-8961109D01*
X12961109Y-8961109D01*
X12961109Y-9038891D01*
X13038891Y-9038891D01*
X12945000Y-9395000D02*
X13055000Y-9505000D01*
X13055000Y-9395000D02*
X12945000Y-9505000D01*
X13038891Y-9488891D02*
X13038891Y-9411109D01*
X12961109Y-9411109D01*
X12961109Y-9488891D01*
X13038891Y-9488891D01*
X13095000Y-5445000D02*
X13205000Y-5555000D01*
X13205000Y-5445000D02*
X13095000Y-5555000D01*
X13188891Y-5538891D02*
X13188891Y-5461109D01*
X13111109Y-5461109D01*
X13111109Y-5538891D01*
X13188891Y-5538891D01*
X13095000Y-5895000D02*
X13205000Y-6005000D01*
X13205000Y-5895000D02*
X13095000Y-6005000D01*
X13188891Y-5988891D02*
X13188891Y-5911109D01*
X13111109Y-5911109D01*
X13111109Y-5988891D01*
X13188891Y-5988891D01*
X13095000Y-6445000D02*
X13205000Y-6555000D01*
X13205000Y-6445000D02*
X13095000Y-6555000D01*
X13188891Y-6538891D02*
X13188891Y-6461109D01*
X13111109Y-6461109D01*
X13111109Y-6538891D01*
X13188891Y-6538891D01*
X13095000Y-6895000D02*
X13205000Y-7005000D01*
X13205000Y-6895000D02*
X13095000Y-7005000D01*
X13188891Y-6988891D02*
X13188891Y-6911109D01*
X13111109Y-6911109D01*
X13111109Y-6988891D01*
X13188891Y-6988891D01*
X13595000Y-8945000D02*
X13705000Y-9055000D01*
X13705000Y-8945000D02*
X13595000Y-9055000D01*
X13688891Y-9038891D02*
X13688891Y-8961109D01*
X13611109Y-8961109D01*
X13611109Y-9038891D01*
X13688891Y-9038891D01*
X13595000Y-9395000D02*
X13705000Y-9505000D01*
X13705000Y-9395000D02*
X13595000Y-9505000D01*
X13688891Y-9488891D02*
X13688891Y-9411109D01*
X13611109Y-9411109D01*
X13611109Y-9488891D01*
X13688891Y-9488891D01*
X14145000Y-8945000D02*
X14255000Y-9055000D01*
X14255000Y-8945000D02*
X14145000Y-9055000D01*
X14238891Y-9038891D02*
X14238891Y-8961109D01*
X14161109Y-8961109D01*
X14161109Y-9038891D01*
X14238891Y-9038891D01*
X14145000Y-9395000D02*
X14255000Y-9505000D01*
X14255000Y-9395000D02*
X14145000Y-9505000D01*
X14238891Y-9488891D02*
X14238891Y-9411109D01*
X14161109Y-9411109D01*
X14161109Y-9488891D01*
X14238891Y-9488891D01*
X14795000Y-8945000D02*
X14905000Y-9055000D01*
X14905000Y-8945000D02*
X14795000Y-9055000D01*
X14888891Y-9038891D02*
X14888891Y-8961109D01*
X14811109Y-8961109D01*
X14811109Y-9038891D01*
X14888891Y-9038891D01*
X14795000Y-9395000D02*
X14905000Y-9505000D01*
X14905000Y-9395000D02*
X14795000Y-9505000D01*
X14888891Y-9488891D02*
X14888891Y-9411109D01*
X14811109Y-9411109D01*
X14811109Y-9488891D01*
X14888891Y-9488891D01*
X15345000Y-8945000D02*
X15455000Y-9055000D01*
X15455000Y-8945000D02*
X15345000Y-9055000D01*
X15438891Y-9038891D02*
X15438891Y-8961109D01*
X15361109Y-8961109D01*
X15361109Y-9038891D01*
X15438891Y-9038891D01*
X15345000Y-9395000D02*
X15455000Y-9505000D01*
X15455000Y-9395000D02*
X15345000Y-9505000D01*
X15438891Y-9488891D02*
X15438891Y-9411109D01*
X15361109Y-9411109D01*
X15361109Y-9488891D01*
X15438891Y-9488891D01*
X15995000Y-8945000D02*
X16105000Y-9055000D01*
X16105000Y-8945000D02*
X15995000Y-9055000D01*
X16088891Y-9038891D02*
X16088891Y-8961109D01*
X16011109Y-8961109D01*
X16011109Y-9038891D01*
X16088891Y-9038891D01*
X15995000Y-9395000D02*
X16105000Y-9505000D01*
X16105000Y-9395000D02*
X15995000Y-9505000D01*
X16088891Y-9488891D02*
X16088891Y-9411109D01*
X16011109Y-9411109D01*
X16011109Y-9488891D01*
X16088891Y-9488891D01*
X16545000Y-8945000D02*
X16655000Y-9055000D01*
X16655000Y-8945000D02*
X16545000Y-9055000D01*
X16638891Y-9038891D02*
X16638891Y-8961109D01*
X16561109Y-8961109D01*
X16561109Y-9038891D01*
X16638891Y-9038891D01*
X16545000Y-9395000D02*
X16655000Y-9505000D01*
X16655000Y-9395000D02*
X16545000Y-9505000D01*
X16638891Y-9488891D02*
X16638891Y-9411109D01*
X16561109Y-9411109D01*
X16561109Y-9488891D01*
X16638891Y-9488891D01*
X17195000Y-8945000D02*
X17305000Y-9055000D01*
X17305000Y-8945000D02*
X17195000Y-9055000D01*
X17288891Y-9038891D02*
X17288891Y-8961109D01*
X17211109Y-8961109D01*
X17211109Y-9038891D01*
X17288891Y-9038891D01*
X17195000Y-9395000D02*
X17305000Y-9505000D01*
X17305000Y-9395000D02*
X17195000Y-9505000D01*
X17288891Y-9488891D02*
X17288891Y-9411109D01*
X17211109Y-9411109D01*
X17211109Y-9488891D01*
X17288891Y-9488891D01*
D13*
X935000Y-2935000D02*
X1065000Y-3065000D01*
X1065000Y-2935000D02*
X935000Y-3065000D01*
X1000000Y-3065000D02*
X1065000Y-3000000D01*
X1000000Y-2935000D01*
X935000Y-3000000D01*
X1000000Y-3065000D01*
X935000Y-4935000D02*
X1065000Y-5065000D01*
X1065000Y-4935000D02*
X935000Y-5065000D01*
X1000000Y-5065000D02*
X1065000Y-5000000D01*
X1000000Y-4935000D01*
X935000Y-5000000D01*
X1000000Y-5065000D01*
X935000Y-6935000D02*
X1065000Y-7065000D01*
X1065000Y-6935000D02*
X935000Y-7065000D01*
X1000000Y-7065000D02*
X1065000Y-7000000D01*
X1000000Y-6935000D01*
X935000Y-7000000D01*
X1000000Y-7065000D01*
X935000Y-8935000D02*
X1065000Y-9065000D01*
X1065000Y-8935000D02*
X935000Y-9065000D01*
X1000000Y-9065000D02*
X1065000Y-9000000D01*
X1000000Y-8935000D01*
X935000Y-9000000D01*
X1000000Y-9065000D01*
X1135000Y-535000D02*
X1265000Y-665000D01*
X1265000Y-535000D02*
X1135000Y-665000D01*
X1200000Y-665000D02*
X1265000Y-600000D01*
X1200000Y-535000D01*
X1135000Y-600000D01*
X1200000Y-665000D01*
X1135000Y-1535000D02*
X1265000Y-1665000D01*
X1265000Y-1535000D02*
X1135000Y-1665000D01*
X1200000Y-1665000D02*
X1265000Y-1600000D01*
X1200000Y-1535000D01*
X1135000Y-1600000D01*
X1200000Y-1665000D01*
X1443000Y-2935000D02*
X1573000Y-3065000D01*
X1573000Y-2935000D02*
X1443000Y-3065000D01*
X1508000Y-3065000D02*
X1573000Y-3000000D01*
X1508000Y-2935000D01*
X1443000Y-3000000D01*
X1508000Y-3065000D01*
X1443000Y-4935000D02*
X1573000Y-5065000D01*
X1573000Y-4935000D02*
X1443000Y-5065000D01*
X1508000Y-5065000D02*
X1573000Y-5000000D01*
X1508000Y-4935000D01*
X1443000Y-5000000D01*
X1508000Y-5065000D01*
X1443000Y-6935000D02*
X1573000Y-7065000D01*
X1573000Y-6935000D02*
X1443000Y-7065000D01*
X1508000Y-7065000D02*
X1573000Y-7000000D01*
X1508000Y-6935000D01*
X1443000Y-7000000D01*
X1508000Y-7065000D01*
X1443000Y-8935000D02*
X1573000Y-9065000D01*
X1573000Y-8935000D02*
X1443000Y-9065000D01*
X1508000Y-9065000D02*
X1573000Y-9000000D01*
X1508000Y-8935000D01*
X1443000Y-9000000D01*
X1508000Y-9065000D01*
X1951000Y-2935000D02*
X2081000Y-3065000D01*
X2081000Y-2935000D02*
X1951000Y-3065000D01*
X2016000Y-3065000D02*
X2081000Y-3000000D01*
X2016000Y-2935000D01*
X1951000Y-3000000D01*
X2016000Y-3065000D01*
X1951000Y-4935000D02*
X2081000Y-5065000D01*
X2081000Y-4935000D02*
X1951000Y-5065000D01*
X2016000Y-5065000D02*
X2081000Y-5000000D01*
X2016000Y-4935000D01*
X1951000Y-5000000D01*
X2016000Y-5065000D01*
X1951000Y-6935000D02*
X2081000Y-7065000D01*
X2081000Y-6935000D02*
X1951000Y-7065000D01*
X2016000Y-7065000D02*
X2081000Y-7000000D01*
X2016000Y-6935000D01*
X1951000Y-7000000D01*
X2016000Y-7065000D01*
X1951000Y-8935000D02*
X2081000Y-9065000D01*
X2081000Y-8935000D02*
X1951000Y-9065000D01*
X2016000Y-9065000D02*
X2081000Y-9000000D01*
X2016000Y-8935000D01*
X1951000Y-9000000D01*
X2016000Y-9065000D01*
X2935000Y-2935000D02*
X3065000Y-3065000D01*
X3065000Y-2935000D02*
X2935000Y-3065000D01*
X3000000Y-3065000D02*
X3065000Y-3000000D01*
X3000000Y-2935000D01*
X2935000Y-3000000D01*
X3000000Y-3065000D01*
X2935000Y-4935000D02*
X3065000Y-5065000D01*
X3065000Y-4935000D02*
X2935000Y-5065000D01*
X3000000Y-5065000D02*
X3065000Y-5000000D01*
X3000000Y-4935000D01*
X2935000Y-5000000D01*
X3000000Y-5065000D01*
X2935000Y-6935000D02*
X3065000Y-7065000D01*
X3065000Y-6935000D02*
X2935000Y-7065000D01*
X3000000Y-7065000D02*
X3065000Y-7000000D01*
X3000000Y-6935000D01*
X2935000Y-7000000D01*
X3000000Y-7065000D01*
X2935000Y-8935000D02*
X3065000Y-9065000D01*
X3065000Y-8935000D02*
X2935000Y-9065000D01*
X3000000Y-9065000D02*
X3065000Y-9000000D01*
X3000000Y-8935000D01*
X2935000Y-9000000D01*
X3000000Y-9065000D01*
X5185000Y-2935000D02*
X5315000Y-3065000D01*
X5315000Y-2935000D02*
X5185000Y-3065000D01*
X5250000Y-3065000D02*
X5315000Y-3000000D01*
X5250000Y-2935000D01*
X5185000Y-3000000D01*
X5250000Y-3065000D01*
X5185000Y-4935000D02*
X5315000Y-5065000D01*
X5315000Y-4935000D02*
X5185000Y-5065000D01*
X5250000Y-5065000D02*
X5315000Y-5000000D01*
X5250000Y-4935000D01*
X5185000Y-5000000D01*
X5250000Y-5065000D01*
X5185000Y-6935000D02*
X5315000Y-7065000D01*
X5315000Y-6935000D02*
X5185000Y-7065000D01*
X5250000Y-7065000D02*
X5315000Y-7000000D01*
X5250000Y-6935000D01*
X5185000Y-7000000D01*
X5250000Y-7065000D01*
X5185000Y-8935000D02*
X5315000Y-9065000D01*
X5315000Y-8935000D02*
X5185000Y-9065000D01*
X5250000Y-9065000D02*
X5315000Y-9000000D01*
X5250000Y-8935000D01*
X5185000Y-9000000D01*
X5250000Y-9065000D01*
X6035000Y-2935000D02*
X6165000Y-3065000D01*
X6165000Y-2935000D02*
X6035000Y-3065000D01*
X6100000Y-3065000D02*
X6165000Y-3000000D01*
X6100000Y-2935000D01*
X6035000Y-3000000D01*
X6100000Y-3065000D01*
X6035000Y-4935000D02*
X6165000Y-5065000D01*
X6165000Y-4935000D02*
X6035000Y-5065000D01*
X6100000Y-5065000D02*
X6165000Y-5000000D01*
X6100000Y-4935000D01*
X6035000Y-5000000D01*
X6100000Y-5065000D01*
X6035000Y-6935000D02*
X6165000Y-7065000D01*
X6165000Y-6935000D02*
X6035000Y-7065000D01*
X6100000Y-7065000D02*
X6165000Y-7000000D01*
X6100000Y-6935000D01*
X6035000Y-7000000D01*
X6100000Y-7065000D01*
X6035000Y-8935000D02*
X6165000Y-9065000D01*
X6165000Y-8935000D02*
X6035000Y-9065000D01*
X6100000Y-9065000D02*
X6165000Y-9000000D01*
X6100000Y-8935000D01*
X6035000Y-9000000D01*
X6100000Y-9065000D01*
X7450000Y-3540000D02*
X7580000Y-3670000D01*
X7580000Y-3540000D02*
X7450000Y-3670000D01*
X7515000Y-3670000D02*
X7580000Y-3605000D01*
X7515000Y-3540000D01*
X7450000Y-3605000D01*
X7515000Y-3670000D01*
X7450000Y-5540000D02*
X7580000Y-5670000D01*
X7580000Y-5540000D02*
X7450000Y-5670000D01*
X7515000Y-5670000D02*
X7580000Y-5605000D01*
X7515000Y-5540000D01*
X7450000Y-5605000D01*
X7515000Y-5670000D01*
X7450000Y-7540000D02*
X7580000Y-7670000D01*
X7580000Y-7540000D02*
X7450000Y-7670000D01*
X7515000Y-7670000D02*
X7580000Y-7605000D01*
X7515000Y-7540000D01*
X7450000Y-7605000D01*
X7515000Y-7670000D01*
X7450000Y-9540000D02*
X7580000Y-9670000D01*
X7580000Y-9540000D02*
X7450000Y-9670000D01*
X7515000Y-9670000D02*
X7580000Y-9605000D01*
X7515000Y-9540000D01*
X7450000Y-9605000D01*
X7515000Y-9670000D01*
X7455000Y-2335000D02*
X7585000Y-2465000D01*
X7585000Y-2335000D02*
X7455000Y-2465000D01*
X7520000Y-2465000D02*
X7585000Y-2400000D01*
X7520000Y-2335000D01*
X7455000Y-2400000D01*
X7520000Y-2465000D01*
X7455000Y-4335000D02*
X7585000Y-4465000D01*
X7585000Y-4335000D02*
X7455000Y-4465000D01*
X7520000Y-4465000D02*
X7585000Y-4400000D01*
X7520000Y-4335000D01*
X7455000Y-4400000D01*
X7520000Y-4465000D01*
X7455000Y-6335000D02*
X7585000Y-6465000D01*
X7585000Y-6335000D02*
X7455000Y-6465000D01*
X7520000Y-6465000D02*
X7585000Y-6400000D01*
X7520000Y-6335000D01*
X7455000Y-6400000D01*
X7520000Y-6465000D01*
X7455000Y-8335000D02*
X7585000Y-8465000D01*
X7585000Y-8335000D02*
X7455000Y-8465000D01*
X7520000Y-8465000D02*
X7585000Y-8400000D01*
X7520000Y-8335000D01*
X7455000Y-8400000D01*
X7520000Y-8465000D01*
X9027000Y-2935000D02*
X9157000Y-3065000D01*
X9157000Y-2935000D02*
X9027000Y-3065000D01*
X9092000Y-3065000D02*
X9157000Y-3000000D01*
X9092000Y-2935000D01*
X9027000Y-3000000D01*
X9092000Y-3065000D01*
X9027000Y-4935000D02*
X9157000Y-5065000D01*
X9157000Y-4935000D02*
X9027000Y-5065000D01*
X9092000Y-5065000D02*
X9157000Y-5000000D01*
X9092000Y-4935000D01*
X9027000Y-5000000D01*
X9092000Y-5065000D01*
X9027000Y-6935000D02*
X9157000Y-7065000D01*
X9157000Y-6935000D02*
X9027000Y-7065000D01*
X9092000Y-7065000D02*
X9157000Y-7000000D01*
X9092000Y-6935000D01*
X9027000Y-7000000D01*
X9092000Y-7065000D01*
X9027000Y-8935000D02*
X9157000Y-9065000D01*
X9157000Y-8935000D02*
X9027000Y-9065000D01*
X9092000Y-9065000D02*
X9157000Y-9000000D01*
X9092000Y-8935000D01*
X9027000Y-9000000D01*
X9092000Y-9065000D01*
X9535000Y-2935000D02*
X9665000Y-3065000D01*
X9665000Y-2935000D02*
X9535000Y-3065000D01*
X9600000Y-3065000D02*
X9665000Y-3000000D01*
X9600000Y-2935000D01*
X9535000Y-3000000D01*
X9600000Y-3065000D01*
X9535000Y-4935000D02*
X9665000Y-5065000D01*
X9665000Y-4935000D02*
X9535000Y-5065000D01*
X9600000Y-5065000D02*
X9665000Y-5000000D01*
X9600000Y-4935000D01*
X9535000Y-5000000D01*
X9600000Y-5065000D01*
X9535000Y-6935000D02*
X9665000Y-7065000D01*
X9665000Y-6935000D02*
X9535000Y-7065000D01*
X9600000Y-7065000D02*
X9665000Y-7000000D01*
X9600000Y-6935000D01*
X9535000Y-7000000D01*
X9600000Y-7065000D01*
X9535000Y-8935000D02*
X9665000Y-9065000D01*
X9665000Y-8935000D02*
X9535000Y-9065000D01*
X9600000Y-9065000D02*
X9665000Y-9000000D01*
X9600000Y-8935000D01*
X9535000Y-9000000D01*
X9600000Y-9065000D01*
D14*
X4125000Y-2865000D02*
X4125000Y-3135000D01*
X3990000Y-3000000D02*
X4260000Y-3000000D01*
X4260000Y-3000000D02*
G75*
G02*
X3990000Y-3000000I-135000J0D01*
G01*
X3990000Y-3000000D02*
G75*
G02*
X4260000Y-3000000I135000J0D01*
G01*
X4125000Y-4865000D02*
X4125000Y-5135000D01*
X3990000Y-5000000D02*
X4260000Y-5000000D01*
X4260000Y-5000000D02*
G75*
G02*
X3990000Y-5000000I-135000J0D01*
G01*
X3990000Y-5000000D02*
G75*
G02*
X4260000Y-5000000I135000J0D01*
G01*
X4125000Y-6865000D02*
X4125000Y-7135000D01*
X3990000Y-7000000D02*
X4260000Y-7000000D01*
X4260000Y-7000000D02*
G75*
G02*
X3990000Y-7000000I-135000J0D01*
G01*
X3990000Y-7000000D02*
G75*
G02*
X4260000Y-7000000I135000J0D01*
G01*
X4125000Y-8865000D02*
X4125000Y-9135000D01*
X3990000Y-9000000D02*
X4260000Y-9000000D01*
X4260000Y-9000000D02*
G75*
G02*
X3990000Y-9000000I-135000J0D01*
G01*
X3990000Y-9000000D02*
G75*
G02*
X4260000Y-9000000I135000J0D01*
G01*
D11*
X255777Y-10316484D02*
X255777Y-10116484D01*
X255777Y-10116484D02*
X303396Y-10116484D01*
X303396Y-10116484D02*
X331967Y-10126008D01*
X331967Y-10126008D02*
X351015Y-10145055D01*
X351015Y-10145055D02*
X360539Y-10164103D01*
X360539Y-10164103D02*
X370062Y-10202198D01*
X370062Y-10202198D02*
X370062Y-10230770D01*
X370062Y-10230770D02*
X360539Y-10268865D01*
X360539Y-10268865D02*
X351015Y-10287912D01*
X351015Y-10287912D02*
X331967Y-10306960D01*
X331967Y-10306960D02*
X303396Y-10316484D01*
X303396Y-10316484D02*
X255777Y-10316484D01*
X455777Y-10316484D02*
X455777Y-10183150D01*
X455777Y-10221246D02*
X465301Y-10202198D01*
X465301Y-10202198D02*
X474824Y-10192674D01*
X474824Y-10192674D02*
X493872Y-10183150D01*
X493872Y-10183150D02*
X512920Y-10183150D01*
X579586Y-10316484D02*
X579586Y-10183150D01*
X579586Y-10116484D02*
X570063Y-10126008D01*
X570063Y-10126008D02*
X579586Y-10135531D01*
X579586Y-10135531D02*
X589110Y-10126008D01*
X589110Y-10126008D02*
X579586Y-10116484D01*
X579586Y-10116484D02*
X579586Y-10135531D01*
X703396Y-10316484D02*
X684348Y-10306960D01*
X684348Y-10306960D02*
X674824Y-10287912D01*
X674824Y-10287912D02*
X674824Y-10116484D01*
X808158Y-10316484D02*
X789110Y-10306960D01*
X789110Y-10306960D02*
X779586Y-10287912D01*
X779586Y-10287912D02*
X779586Y-10116484D01*
X1036729Y-10316484D02*
X1036729Y-10116484D01*
X1036729Y-10116484D02*
X1103396Y-10259341D01*
X1103396Y-10259341D02*
X1170063Y-10116484D01*
X1170063Y-10116484D02*
X1170063Y-10316484D01*
X1351015Y-10316484D02*
X1351015Y-10211722D01*
X1351015Y-10211722D02*
X1341491Y-10192674D01*
X1341491Y-10192674D02*
X1322444Y-10183150D01*
X1322444Y-10183150D02*
X1284348Y-10183150D01*
X1284348Y-10183150D02*
X1265301Y-10192674D01*
X1351015Y-10306960D02*
X1331967Y-10316484D01*
X1331967Y-10316484D02*
X1284348Y-10316484D01*
X1284348Y-10316484D02*
X1265301Y-10306960D01*
X1265301Y-10306960D02*
X1255777Y-10287912D01*
X1255777Y-10287912D02*
X1255777Y-10268865D01*
X1255777Y-10268865D02*
X1265301Y-10249817D01*
X1265301Y-10249817D02*
X1284348Y-10240293D01*
X1284348Y-10240293D02*
X1331967Y-10240293D01*
X1331967Y-10240293D02*
X1351015Y-10230770D01*
X1446253Y-10183150D02*
X1446253Y-10383150D01*
X1446253Y-10192674D02*
X1465301Y-10183150D01*
X1465301Y-10183150D02*
X1503396Y-10183150D01*
X1503396Y-10183150D02*
X1522443Y-10192674D01*
X1522443Y-10192674D02*
X1531967Y-10202198D01*
X1531967Y-10202198D02*
X1541491Y-10221246D01*
X1541491Y-10221246D02*
X1541491Y-10278389D01*
X1541491Y-10278389D02*
X1531967Y-10297436D01*
X1531967Y-10297436D02*
X1522443Y-10306960D01*
X1522443Y-10306960D02*
X1503396Y-10316484D01*
X1503396Y-10316484D02*
X1465301Y-10316484D01*
X1465301Y-10316484D02*
X1446253Y-10306960D01*
X1627205Y-10297436D02*
X1636729Y-10306960D01*
X1636729Y-10306960D02*
X1627205Y-10316484D01*
X1627205Y-10316484D02*
X1617682Y-10306960D01*
X1617682Y-10306960D02*
X1627205Y-10297436D01*
X1627205Y-10297436D02*
X1627205Y-10316484D01*
X1627205Y-10192674D02*
X1636729Y-10202198D01*
X1636729Y-10202198D02*
X1627205Y-10211722D01*
X1627205Y-10211722D02*
X1617682Y-10202198D01*
X1617682Y-10202198D02*
X1627205Y-10192674D01*
X1627205Y-10192674D02*
X1627205Y-10211722D01*
D10*
X-25000Y-10635000D02*
X-5000Y-10655000D01*
X-5000Y-10635000D02*
X-25000Y-10655000D01*
D11*
X293872Y-10536484D02*
X312920Y-10536484D01*
X312920Y-10536484D02*
X331967Y-10546008D01*
X331967Y-10546008D02*
X341491Y-10555531D01*
X341491Y-10555531D02*
X351015Y-10574579D01*
X351015Y-10574579D02*
X360539Y-10612674D01*
X360539Y-10612674D02*
X360539Y-10660293D01*
X360539Y-10660293D02*
X351015Y-10698389D01*
X351015Y-10698389D02*
X341491Y-10717436D01*
X341491Y-10717436D02*
X331967Y-10726960D01*
X331967Y-10726960D02*
X312920Y-10736484D01*
X312920Y-10736484D02*
X293872Y-10736484D01*
X293872Y-10736484D02*
X274824Y-10726960D01*
X274824Y-10726960D02*
X265301Y-10717436D01*
X265301Y-10717436D02*
X255777Y-10698389D01*
X255777Y-10698389D02*
X246253Y-10660293D01*
X246253Y-10660293D02*
X246253Y-10612674D01*
X246253Y-10612674D02*
X255777Y-10574579D01*
X255777Y-10574579D02*
X265301Y-10555531D01*
X265301Y-10555531D02*
X274824Y-10546008D01*
X274824Y-10546008D02*
X293872Y-10536484D01*
X446253Y-10717436D02*
X455777Y-10726960D01*
X455777Y-10726960D02*
X446253Y-10736484D01*
X446253Y-10736484D02*
X436729Y-10726960D01*
X436729Y-10726960D02*
X446253Y-10717436D01*
X446253Y-10717436D02*
X446253Y-10736484D01*
X531967Y-10555531D02*
X541491Y-10546008D01*
X541491Y-10546008D02*
X560539Y-10536484D01*
X560539Y-10536484D02*
X608158Y-10536484D01*
X608158Y-10536484D02*
X627205Y-10546008D01*
X627205Y-10546008D02*
X636729Y-10555531D01*
X636729Y-10555531D02*
X646253Y-10574579D01*
X646253Y-10574579D02*
X646253Y-10593627D01*
X646253Y-10593627D02*
X636729Y-10622198D01*
X636729Y-10622198D02*
X522443Y-10736484D01*
X522443Y-10736484D02*
X646253Y-10736484D01*
X770062Y-10536484D02*
X789110Y-10536484D01*
X789110Y-10536484D02*
X808158Y-10546008D01*
X808158Y-10546008D02*
X817682Y-10555531D01*
X817682Y-10555531D02*
X827205Y-10574579D01*
X827205Y-10574579D02*
X836729Y-10612674D01*
X836729Y-10612674D02*
X836729Y-10660293D01*
X836729Y-10660293D02*
X827205Y-10698389D01*
X827205Y-10698389D02*
X817682Y-10717436D01*
X817682Y-10717436D02*
X808158Y-10726960D01*
X808158Y-10726960D02*
X789110Y-10736484D01*
X789110Y-10736484D02*
X770062Y-10736484D01*
X770062Y-10736484D02*
X751015Y-10726960D01*
X751015Y-10726960D02*
X741491Y-10717436D01*
X741491Y-10717436D02*
X731967Y-10698389D01*
X731967Y-10698389D02*
X722443Y-10660293D01*
X722443Y-10660293D02*
X722443Y-10612674D01*
X722443Y-10612674D02*
X731967Y-10574579D01*
X731967Y-10574579D02*
X741491Y-10555531D01*
X741491Y-10555531D02*
X751015Y-10546008D01*
X751015Y-10546008D02*
X770062Y-10536484D01*
X960539Y-10536484D02*
X979586Y-10536484D01*
X979586Y-10536484D02*
X998634Y-10546008D01*
X998634Y-10546008D02*
X1008158Y-10555531D01*
X1008158Y-10555531D02*
X1017682Y-10574579D01*
X1017682Y-10574579D02*
X1027205Y-10612674D01*
X1027205Y-10612674D02*
X1027205Y-10660293D01*
X1027205Y-10660293D02*
X1017682Y-10698389D01*
X1017682Y-10698389D02*
X1008158Y-10717436D01*
X1008158Y-10717436D02*
X998634Y-10726960D01*
X998634Y-10726960D02*
X979586Y-10736484D01*
X979586Y-10736484D02*
X960539Y-10736484D01*
X960539Y-10736484D02*
X941491Y-10726960D01*
X941491Y-10726960D02*
X931967Y-10717436D01*
X931967Y-10717436D02*
X922443Y-10698389D01*
X922443Y-10698389D02*
X912920Y-10660293D01*
X912920Y-10660293D02*
X912920Y-10612674D01*
X912920Y-10612674D02*
X922443Y-10574579D01*
X922443Y-10574579D02*
X931967Y-10555531D01*
X931967Y-10555531D02*
X941491Y-10546008D01*
X941491Y-10546008D02*
X960539Y-10536484D01*
X1112920Y-10736484D02*
X1112920Y-10603150D01*
X1112920Y-10622198D02*
X1122444Y-10612674D01*
X1122444Y-10612674D02*
X1141491Y-10603150D01*
X1141491Y-10603150D02*
X1170063Y-10603150D01*
X1170063Y-10603150D02*
X1189110Y-10612674D01*
X1189110Y-10612674D02*
X1198634Y-10631722D01*
X1198634Y-10631722D02*
X1198634Y-10736484D01*
X1198634Y-10631722D02*
X1208158Y-10612674D01*
X1208158Y-10612674D02*
X1227205Y-10603150D01*
X1227205Y-10603150D02*
X1255777Y-10603150D01*
X1255777Y-10603150D02*
X1274825Y-10612674D01*
X1274825Y-10612674D02*
X1284348Y-10631722D01*
X1284348Y-10631722D02*
X1284348Y-10736484D01*
X1379586Y-10736484D02*
X1379586Y-10603150D01*
X1379586Y-10622198D02*
X1389110Y-10612674D01*
X1389110Y-10612674D02*
X1408158Y-10603150D01*
X1408158Y-10603150D02*
X1436729Y-10603150D01*
X1436729Y-10603150D02*
X1455777Y-10612674D01*
X1455777Y-10612674D02*
X1465301Y-10631722D01*
X1465301Y-10631722D02*
X1465301Y-10736484D01*
X1465301Y-10631722D02*
X1474824Y-10612674D01*
X1474824Y-10612674D02*
X1493872Y-10603150D01*
X1493872Y-10603150D02*
X1522443Y-10603150D01*
X1522443Y-10603150D02*
X1541491Y-10612674D01*
X1541491Y-10612674D02*
X1551015Y-10631722D01*
X1551015Y-10631722D02*
X1551015Y-10736484D01*
X1941491Y-10526960D02*
X1770063Y-10784103D01*
X2198634Y-10536484D02*
X2217682Y-10536484D01*
X2217682Y-10536484D02*
X2236729Y-10546008D01*
X2236729Y-10546008D02*
X2246253Y-10555531D01*
X2246253Y-10555531D02*
X2255777Y-10574579D01*
X2255777Y-10574579D02*
X2265301Y-10612674D01*
X2265301Y-10612674D02*
X2265301Y-10660293D01*
X2265301Y-10660293D02*
X2255777Y-10698389D01*
X2255777Y-10698389D02*
X2246253Y-10717436D01*
X2246253Y-10717436D02*
X2236729Y-10726960D01*
X2236729Y-10726960D02*
X2217682Y-10736484D01*
X2217682Y-10736484D02*
X2198634Y-10736484D01*
X2198634Y-10736484D02*
X2179587Y-10726960D01*
X2179587Y-10726960D02*
X2170063Y-10717436D01*
X2170063Y-10717436D02*
X2160539Y-10698389D01*
X2160539Y-10698389D02*
X2151015Y-10660293D01*
X2151015Y-10660293D02*
X2151015Y-10612674D01*
X2151015Y-10612674D02*
X2160539Y-10574579D01*
X2160539Y-10574579D02*
X2170063Y-10555531D01*
X2170063Y-10555531D02*
X2179587Y-10546008D01*
X2179587Y-10546008D02*
X2198634Y-10536484D01*
X2351015Y-10717436D02*
X2360539Y-10726960D01*
X2360539Y-10726960D02*
X2351015Y-10736484D01*
X2351015Y-10736484D02*
X2341491Y-10726960D01*
X2341491Y-10726960D02*
X2351015Y-10717436D01*
X2351015Y-10717436D02*
X2351015Y-10736484D01*
X2484348Y-10536484D02*
X2503396Y-10536484D01*
X2503396Y-10536484D02*
X2522444Y-10546008D01*
X2522444Y-10546008D02*
X2531968Y-10555531D01*
X2531968Y-10555531D02*
X2541491Y-10574579D01*
X2541491Y-10574579D02*
X2551015Y-10612674D01*
X2551015Y-10612674D02*
X2551015Y-10660293D01*
X2551015Y-10660293D02*
X2541491Y-10698389D01*
X2541491Y-10698389D02*
X2531968Y-10717436D01*
X2531968Y-10717436D02*
X2522444Y-10726960D01*
X2522444Y-10726960D02*
X2503396Y-10736484D01*
X2503396Y-10736484D02*
X2484348Y-10736484D01*
X2484348Y-10736484D02*
X2465301Y-10726960D01*
X2465301Y-10726960D02*
X2455777Y-10717436D01*
X2455777Y-10717436D02*
X2446253Y-10698389D01*
X2446253Y-10698389D02*
X2436729Y-10660293D01*
X2436729Y-10660293D02*
X2436729Y-10612674D01*
X2436729Y-10612674D02*
X2446253Y-10574579D01*
X2446253Y-10574579D02*
X2455777Y-10555531D01*
X2455777Y-10555531D02*
X2465301Y-10546008D01*
X2465301Y-10546008D02*
X2484348Y-10536484D01*
X2674825Y-10536484D02*
X2693872Y-10536484D01*
X2693872Y-10536484D02*
X2712920Y-10546008D01*
X2712920Y-10546008D02*
X2722444Y-10555531D01*
X2722444Y-10555531D02*
X2731968Y-10574579D01*
X2731968Y-10574579D02*
X2741491Y-10612674D01*
X2741491Y-10612674D02*
X2741491Y-10660293D01*
X2741491Y-10660293D02*
X2731968Y-10698389D01*
X2731968Y-10698389D02*
X2722444Y-10717436D01*
X2722444Y-10717436D02*
X2712920Y-10726960D01*
X2712920Y-10726960D02*
X2693872Y-10736484D01*
X2693872Y-10736484D02*
X2674825Y-10736484D01*
X2674825Y-10736484D02*
X2655777Y-10726960D01*
X2655777Y-10726960D02*
X2646253Y-10717436D01*
X2646253Y-10717436D02*
X2636729Y-10698389D01*
X2636729Y-10698389D02*
X2627206Y-10660293D01*
X2627206Y-10660293D02*
X2627206Y-10612674D01*
X2627206Y-10612674D02*
X2636729Y-10574579D01*
X2636729Y-10574579D02*
X2646253Y-10555531D01*
X2646253Y-10555531D02*
X2655777Y-10546008D01*
X2655777Y-10546008D02*
X2674825Y-10536484D01*
X2808158Y-10536484D02*
X2941491Y-10536484D01*
X2941491Y-10536484D02*
X2855777Y-10736484D01*
X3027206Y-10736484D02*
X3065301Y-10736484D01*
X3065301Y-10736484D02*
X3084348Y-10726960D01*
X3084348Y-10726960D02*
X3093872Y-10717436D01*
X3093872Y-10717436D02*
X3112920Y-10688865D01*
X3112920Y-10688865D02*
X3122444Y-10650770D01*
X3122444Y-10650770D02*
X3122444Y-10574579D01*
X3122444Y-10574579D02*
X3112920Y-10555531D01*
X3112920Y-10555531D02*
X3103396Y-10546008D01*
X3103396Y-10546008D02*
X3084348Y-10536484D01*
X3084348Y-10536484D02*
X3046253Y-10536484D01*
X3046253Y-10536484D02*
X3027206Y-10546008D01*
X3027206Y-10546008D02*
X3017682Y-10555531D01*
X3017682Y-10555531D02*
X3008158Y-10574579D01*
X3008158Y-10574579D02*
X3008158Y-10622198D01*
X3008158Y-10622198D02*
X3017682Y-10641246D01*
X3017682Y-10641246D02*
X3027206Y-10650770D01*
X3027206Y-10650770D02*
X3046253Y-10660293D01*
X3046253Y-10660293D02*
X3084348Y-10660293D01*
X3084348Y-10660293D02*
X3103396Y-10650770D01*
X3103396Y-10650770D02*
X3112920Y-10641246D01*
X3112920Y-10641246D02*
X3122444Y-10622198D01*
X3198634Y-10536484D02*
X3198634Y-10574579D01*
X3274825Y-10536484D02*
X3274825Y-10574579D01*
X3570063Y-10812674D02*
X3560539Y-10803150D01*
X3560539Y-10803150D02*
X3541491Y-10774579D01*
X3541491Y-10774579D02*
X3531968Y-10755531D01*
X3531968Y-10755531D02*
X3522444Y-10726960D01*
X3522444Y-10726960D02*
X3512920Y-10679341D01*
X3512920Y-10679341D02*
X3512920Y-10641246D01*
X3512920Y-10641246D02*
X3522444Y-10593627D01*
X3522444Y-10593627D02*
X3531968Y-10565055D01*
X3531968Y-10565055D02*
X3541491Y-10546008D01*
X3541491Y-10546008D02*
X3560539Y-10517436D01*
X3560539Y-10517436D02*
X3570063Y-10507912D01*
X3751015Y-10736484D02*
X3636729Y-10736484D01*
X3693872Y-10736484D02*
X3693872Y-10536484D01*
X3693872Y-10536484D02*
X3674825Y-10565055D01*
X3674825Y-10565055D02*
X3655777Y-10584103D01*
X3655777Y-10584103D02*
X3636729Y-10593627D01*
X3827206Y-10555531D02*
X3836729Y-10546008D01*
X3836729Y-10546008D02*
X3855777Y-10536484D01*
X3855777Y-10536484D02*
X3903396Y-10536484D01*
X3903396Y-10536484D02*
X3922444Y-10546008D01*
X3922444Y-10546008D02*
X3931968Y-10555531D01*
X3931968Y-10555531D02*
X3941491Y-10574579D01*
X3941491Y-10574579D02*
X3941491Y-10593627D01*
X3941491Y-10593627D02*
X3931968Y-10622198D01*
X3931968Y-10622198D02*
X3817682Y-10736484D01*
X3817682Y-10736484D02*
X3941491Y-10736484D01*
X4179587Y-10736484D02*
X4179587Y-10536484D01*
X4265301Y-10736484D02*
X4265301Y-10631722D01*
X4265301Y-10631722D02*
X4255777Y-10612674D01*
X4255777Y-10612674D02*
X4236730Y-10603150D01*
X4236730Y-10603150D02*
X4208158Y-10603150D01*
X4208158Y-10603150D02*
X4189110Y-10612674D01*
X4189110Y-10612674D02*
X4179587Y-10622198D01*
X4389111Y-10736484D02*
X4370063Y-10726960D01*
X4370063Y-10726960D02*
X4360539Y-10717436D01*
X4360539Y-10717436D02*
X4351015Y-10698389D01*
X4351015Y-10698389D02*
X4351015Y-10641246D01*
X4351015Y-10641246D02*
X4360539Y-10622198D01*
X4360539Y-10622198D02*
X4370063Y-10612674D01*
X4370063Y-10612674D02*
X4389111Y-10603150D01*
X4389111Y-10603150D02*
X4417682Y-10603150D01*
X4417682Y-10603150D02*
X4436730Y-10612674D01*
X4436730Y-10612674D02*
X4446253Y-10622198D01*
X4446253Y-10622198D02*
X4455777Y-10641246D01*
X4455777Y-10641246D02*
X4455777Y-10698389D01*
X4455777Y-10698389D02*
X4446253Y-10717436D01*
X4446253Y-10717436D02*
X4436730Y-10726960D01*
X4436730Y-10726960D02*
X4417682Y-10736484D01*
X4417682Y-10736484D02*
X4389111Y-10736484D01*
X4570063Y-10736484D02*
X4551015Y-10726960D01*
X4551015Y-10726960D02*
X4541492Y-10707912D01*
X4541492Y-10707912D02*
X4541492Y-10536484D01*
X4722444Y-10726960D02*
X4703396Y-10736484D01*
X4703396Y-10736484D02*
X4665301Y-10736484D01*
X4665301Y-10736484D02*
X4646253Y-10726960D01*
X4646253Y-10726960D02*
X4636730Y-10707912D01*
X4636730Y-10707912D02*
X4636730Y-10631722D01*
X4636730Y-10631722D02*
X4646253Y-10612674D01*
X4646253Y-10612674D02*
X4665301Y-10603150D01*
X4665301Y-10603150D02*
X4703396Y-10603150D01*
X4703396Y-10603150D02*
X4722444Y-10612674D01*
X4722444Y-10612674D02*
X4731968Y-10631722D01*
X4731968Y-10631722D02*
X4731968Y-10650770D01*
X4731968Y-10650770D02*
X4636730Y-10669817D01*
X4808158Y-10726960D02*
X4827206Y-10736484D01*
X4827206Y-10736484D02*
X4865301Y-10736484D01*
X4865301Y-10736484D02*
X4884349Y-10726960D01*
X4884349Y-10726960D02*
X4893873Y-10707912D01*
X4893873Y-10707912D02*
X4893873Y-10698389D01*
X4893873Y-10698389D02*
X4884349Y-10679341D01*
X4884349Y-10679341D02*
X4865301Y-10669817D01*
X4865301Y-10669817D02*
X4836730Y-10669817D01*
X4836730Y-10669817D02*
X4817682Y-10660293D01*
X4817682Y-10660293D02*
X4808158Y-10641246D01*
X4808158Y-10641246D02*
X4808158Y-10631722D01*
X4808158Y-10631722D02*
X4817682Y-10612674D01*
X4817682Y-10612674D02*
X4836730Y-10603150D01*
X4836730Y-10603150D02*
X4865301Y-10603150D01*
X4865301Y-10603150D02*
X4884349Y-10612674D01*
X4960539Y-10812674D02*
X4970063Y-10803150D01*
X4970063Y-10803150D02*
X4989111Y-10774579D01*
X4989111Y-10774579D02*
X4998634Y-10755531D01*
X4998634Y-10755531D02*
X5008158Y-10726960D01*
X5008158Y-10726960D02*
X5017682Y-10679341D01*
X5017682Y-10679341D02*
X5017682Y-10641246D01*
X5017682Y-10641246D02*
X5008158Y-10593627D01*
X5008158Y-10593627D02*
X4998634Y-10565055D01*
X4998634Y-10565055D02*
X4989111Y-10546008D01*
X4989111Y-10546008D02*
X4970063Y-10517436D01*
X4970063Y-10517436D02*
X4960539Y-10507912D01*
D10*
X-5000Y-10909000D02*
G75*
G02*
X-35000Y-10909000I-15000J0D01*
G01*
X-35000Y-10909000D02*
G75*
G02*
X-5000Y-10909000I15000J0D01*
G01*
D11*
X293872Y-10800484D02*
X312920Y-10800484D01*
X312920Y-10800484D02*
X331967Y-10810008D01*
X331967Y-10810008D02*
X341491Y-10819531D01*
X341491Y-10819531D02*
X351015Y-10838579D01*
X351015Y-10838579D02*
X360539Y-10876674D01*
X360539Y-10876674D02*
X360539Y-10924293D01*
X360539Y-10924293D02*
X351015Y-10962389D01*
X351015Y-10962389D02*
X341491Y-10981436D01*
X341491Y-10981436D02*
X331967Y-10990960D01*
X331967Y-10990960D02*
X312920Y-11000484D01*
X312920Y-11000484D02*
X293872Y-11000484D01*
X293872Y-11000484D02*
X274824Y-10990960D01*
X274824Y-10990960D02*
X265301Y-10981436D01*
X265301Y-10981436D02*
X255777Y-10962389D01*
X255777Y-10962389D02*
X246253Y-10924293D01*
X246253Y-10924293D02*
X246253Y-10876674D01*
X246253Y-10876674D02*
X255777Y-10838579D01*
X255777Y-10838579D02*
X265301Y-10819531D01*
X265301Y-10819531D02*
X274824Y-10810008D01*
X274824Y-10810008D02*
X293872Y-10800484D01*
X446253Y-10981436D02*
X455777Y-10990960D01*
X455777Y-10990960D02*
X446253Y-11000484D01*
X446253Y-11000484D02*
X436729Y-10990960D01*
X436729Y-10990960D02*
X446253Y-10981436D01*
X446253Y-10981436D02*
X446253Y-11000484D01*
X522443Y-10800484D02*
X646253Y-10800484D01*
X646253Y-10800484D02*
X579586Y-10876674D01*
X579586Y-10876674D02*
X608158Y-10876674D01*
X608158Y-10876674D02*
X627205Y-10886198D01*
X627205Y-10886198D02*
X636729Y-10895722D01*
X636729Y-10895722D02*
X646253Y-10914770D01*
X646253Y-10914770D02*
X646253Y-10962389D01*
X646253Y-10962389D02*
X636729Y-10981436D01*
X636729Y-10981436D02*
X627205Y-10990960D01*
X627205Y-10990960D02*
X608158Y-11000484D01*
X608158Y-11000484D02*
X551015Y-11000484D01*
X551015Y-11000484D02*
X531967Y-10990960D01*
X531967Y-10990960D02*
X522443Y-10981436D01*
X770062Y-10800484D02*
X789110Y-10800484D01*
X789110Y-10800484D02*
X808158Y-10810008D01*
X808158Y-10810008D02*
X817682Y-10819531D01*
X817682Y-10819531D02*
X827205Y-10838579D01*
X827205Y-10838579D02*
X836729Y-10876674D01*
X836729Y-10876674D02*
X836729Y-10924293D01*
X836729Y-10924293D02*
X827205Y-10962389D01*
X827205Y-10962389D02*
X817682Y-10981436D01*
X817682Y-10981436D02*
X808158Y-10990960D01*
X808158Y-10990960D02*
X789110Y-11000484D01*
X789110Y-11000484D02*
X770062Y-11000484D01*
X770062Y-11000484D02*
X751015Y-10990960D01*
X751015Y-10990960D02*
X741491Y-10981436D01*
X741491Y-10981436D02*
X731967Y-10962389D01*
X731967Y-10962389D02*
X722443Y-10924293D01*
X722443Y-10924293D02*
X722443Y-10876674D01*
X722443Y-10876674D02*
X731967Y-10838579D01*
X731967Y-10838579D02*
X741491Y-10819531D01*
X741491Y-10819531D02*
X751015Y-10810008D01*
X751015Y-10810008D02*
X770062Y-10800484D01*
X960539Y-10800484D02*
X979586Y-10800484D01*
X979586Y-10800484D02*
X998634Y-10810008D01*
X998634Y-10810008D02*
X1008158Y-10819531D01*
X1008158Y-10819531D02*
X1017682Y-10838579D01*
X1017682Y-10838579D02*
X1027205Y-10876674D01*
X1027205Y-10876674D02*
X1027205Y-10924293D01*
X1027205Y-10924293D02*
X1017682Y-10962389D01*
X1017682Y-10962389D02*
X1008158Y-10981436D01*
X1008158Y-10981436D02*
X998634Y-10990960D01*
X998634Y-10990960D02*
X979586Y-11000484D01*
X979586Y-11000484D02*
X960539Y-11000484D01*
X960539Y-11000484D02*
X941491Y-10990960D01*
X941491Y-10990960D02*
X931967Y-10981436D01*
X931967Y-10981436D02*
X922443Y-10962389D01*
X922443Y-10962389D02*
X912920Y-10924293D01*
X912920Y-10924293D02*
X912920Y-10876674D01*
X912920Y-10876674D02*
X922443Y-10838579D01*
X922443Y-10838579D02*
X931967Y-10819531D01*
X931967Y-10819531D02*
X941491Y-10810008D01*
X941491Y-10810008D02*
X960539Y-10800484D01*
X1112920Y-11000484D02*
X1112920Y-10867150D01*
X1112920Y-10886198D02*
X1122444Y-10876674D01*
X1122444Y-10876674D02*
X1141491Y-10867150D01*
X1141491Y-10867150D02*
X1170063Y-10867150D01*
X1170063Y-10867150D02*
X1189110Y-10876674D01*
X1189110Y-10876674D02*
X1198634Y-10895722D01*
X1198634Y-10895722D02*
X1198634Y-11000484D01*
X1198634Y-10895722D02*
X1208158Y-10876674D01*
X1208158Y-10876674D02*
X1227205Y-10867150D01*
X1227205Y-10867150D02*
X1255777Y-10867150D01*
X1255777Y-10867150D02*
X1274825Y-10876674D01*
X1274825Y-10876674D02*
X1284348Y-10895722D01*
X1284348Y-10895722D02*
X1284348Y-11000484D01*
X1379586Y-11000484D02*
X1379586Y-10867150D01*
X1379586Y-10886198D02*
X1389110Y-10876674D01*
X1389110Y-10876674D02*
X1408158Y-10867150D01*
X1408158Y-10867150D02*
X1436729Y-10867150D01*
X1436729Y-10867150D02*
X1455777Y-10876674D01*
X1455777Y-10876674D02*
X1465301Y-10895722D01*
X1465301Y-10895722D02*
X1465301Y-11000484D01*
X1465301Y-10895722D02*
X1474824Y-10876674D01*
X1474824Y-10876674D02*
X1493872Y-10867150D01*
X1493872Y-10867150D02*
X1522443Y-10867150D01*
X1522443Y-10867150D02*
X1541491Y-10876674D01*
X1541491Y-10876674D02*
X1551015Y-10895722D01*
X1551015Y-10895722D02*
X1551015Y-11000484D01*
X1941491Y-10790960D02*
X1770063Y-11048103D01*
X2198634Y-10800484D02*
X2217682Y-10800484D01*
X2217682Y-10800484D02*
X2236729Y-10810008D01*
X2236729Y-10810008D02*
X2246253Y-10819531D01*
X2246253Y-10819531D02*
X2255777Y-10838579D01*
X2255777Y-10838579D02*
X2265301Y-10876674D01*
X2265301Y-10876674D02*
X2265301Y-10924293D01*
X2265301Y-10924293D02*
X2255777Y-10962389D01*
X2255777Y-10962389D02*
X2246253Y-10981436D01*
X2246253Y-10981436D02*
X2236729Y-10990960D01*
X2236729Y-10990960D02*
X2217682Y-11000484D01*
X2217682Y-11000484D02*
X2198634Y-11000484D01*
X2198634Y-11000484D02*
X2179587Y-10990960D01*
X2179587Y-10990960D02*
X2170063Y-10981436D01*
X2170063Y-10981436D02*
X2160539Y-10962389D01*
X2160539Y-10962389D02*
X2151015Y-10924293D01*
X2151015Y-10924293D02*
X2151015Y-10876674D01*
X2151015Y-10876674D02*
X2160539Y-10838579D01*
X2160539Y-10838579D02*
X2170063Y-10819531D01*
X2170063Y-10819531D02*
X2179587Y-10810008D01*
X2179587Y-10810008D02*
X2198634Y-10800484D01*
X2351015Y-10981436D02*
X2360539Y-10990960D01*
X2360539Y-10990960D02*
X2351015Y-11000484D01*
X2351015Y-11000484D02*
X2341491Y-10990960D01*
X2341491Y-10990960D02*
X2351015Y-10981436D01*
X2351015Y-10981436D02*
X2351015Y-11000484D01*
X2484348Y-10800484D02*
X2503396Y-10800484D01*
X2503396Y-10800484D02*
X2522444Y-10810008D01*
X2522444Y-10810008D02*
X2531968Y-10819531D01*
X2531968Y-10819531D02*
X2541491Y-10838579D01*
X2541491Y-10838579D02*
X2551015Y-10876674D01*
X2551015Y-10876674D02*
X2551015Y-10924293D01*
X2551015Y-10924293D02*
X2541491Y-10962389D01*
X2541491Y-10962389D02*
X2531968Y-10981436D01*
X2531968Y-10981436D02*
X2522444Y-10990960D01*
X2522444Y-10990960D02*
X2503396Y-11000484D01*
X2503396Y-11000484D02*
X2484348Y-11000484D01*
X2484348Y-11000484D02*
X2465301Y-10990960D01*
X2465301Y-10990960D02*
X2455777Y-10981436D01*
X2455777Y-10981436D02*
X2446253Y-10962389D01*
X2446253Y-10962389D02*
X2436729Y-10924293D01*
X2436729Y-10924293D02*
X2436729Y-10876674D01*
X2436729Y-10876674D02*
X2446253Y-10838579D01*
X2446253Y-10838579D02*
X2455777Y-10819531D01*
X2455777Y-10819531D02*
X2465301Y-10810008D01*
X2465301Y-10810008D02*
X2484348Y-10800484D01*
X2741491Y-11000484D02*
X2627206Y-11000484D01*
X2684348Y-11000484D02*
X2684348Y-10800484D01*
X2684348Y-10800484D02*
X2665301Y-10829055D01*
X2665301Y-10829055D02*
X2646253Y-10848103D01*
X2646253Y-10848103D02*
X2627206Y-10857627D01*
X2931967Y-11000484D02*
X2817682Y-11000484D01*
X2874825Y-11000484D02*
X2874825Y-10800484D01*
X2874825Y-10800484D02*
X2855777Y-10829055D01*
X2855777Y-10829055D02*
X2836729Y-10848103D01*
X2836729Y-10848103D02*
X2817682Y-10857627D01*
X3046253Y-10886198D02*
X3027206Y-10876674D01*
X3027206Y-10876674D02*
X3017682Y-10867150D01*
X3017682Y-10867150D02*
X3008158Y-10848103D01*
X3008158Y-10848103D02*
X3008158Y-10838579D01*
X3008158Y-10838579D02*
X3017682Y-10819531D01*
X3017682Y-10819531D02*
X3027206Y-10810008D01*
X3027206Y-10810008D02*
X3046253Y-10800484D01*
X3046253Y-10800484D02*
X3084348Y-10800484D01*
X3084348Y-10800484D02*
X3103396Y-10810008D01*
X3103396Y-10810008D02*
X3112920Y-10819531D01*
X3112920Y-10819531D02*
X3122444Y-10838579D01*
X3122444Y-10838579D02*
X3122444Y-10848103D01*
X3122444Y-10848103D02*
X3112920Y-10867150D01*
X3112920Y-10867150D02*
X3103396Y-10876674D01*
X3103396Y-10876674D02*
X3084348Y-10886198D01*
X3084348Y-10886198D02*
X3046253Y-10886198D01*
X3046253Y-10886198D02*
X3027206Y-10895722D01*
X3027206Y-10895722D02*
X3017682Y-10905246D01*
X3017682Y-10905246D02*
X3008158Y-10924293D01*
X3008158Y-10924293D02*
X3008158Y-10962389D01*
X3008158Y-10962389D02*
X3017682Y-10981436D01*
X3017682Y-10981436D02*
X3027206Y-10990960D01*
X3027206Y-10990960D02*
X3046253Y-11000484D01*
X3046253Y-11000484D02*
X3084348Y-11000484D01*
X3084348Y-11000484D02*
X3103396Y-10990960D01*
X3103396Y-10990960D02*
X3112920Y-10981436D01*
X3112920Y-10981436D02*
X3122444Y-10962389D01*
X3122444Y-10962389D02*
X3122444Y-10924293D01*
X3122444Y-10924293D02*
X3112920Y-10905246D01*
X3112920Y-10905246D02*
X3103396Y-10895722D01*
X3103396Y-10895722D02*
X3084348Y-10886198D01*
X3198634Y-10800484D02*
X3198634Y-10838579D01*
X3274825Y-10800484D02*
X3274825Y-10838579D01*
X3570063Y-11076674D02*
X3560539Y-11067150D01*
X3560539Y-11067150D02*
X3541491Y-11038579D01*
X3541491Y-11038579D02*
X3531968Y-11019531D01*
X3531968Y-11019531D02*
X3522444Y-10990960D01*
X3522444Y-10990960D02*
X3512920Y-10943341D01*
X3512920Y-10943341D02*
X3512920Y-10905246D01*
X3512920Y-10905246D02*
X3522444Y-10857627D01*
X3522444Y-10857627D02*
X3531968Y-10829055D01*
X3531968Y-10829055D02*
X3541491Y-10810008D01*
X3541491Y-10810008D02*
X3560539Y-10781436D01*
X3560539Y-10781436D02*
X3570063Y-10771912D01*
X3636729Y-10819531D02*
X3646253Y-10810008D01*
X3646253Y-10810008D02*
X3665301Y-10800484D01*
X3665301Y-10800484D02*
X3712920Y-10800484D01*
X3712920Y-10800484D02*
X3731968Y-10810008D01*
X3731968Y-10810008D02*
X3741491Y-10819531D01*
X3741491Y-10819531D02*
X3751015Y-10838579D01*
X3751015Y-10838579D02*
X3751015Y-10857627D01*
X3751015Y-10857627D02*
X3741491Y-10886198D01*
X3741491Y-10886198D02*
X3627206Y-11000484D01*
X3627206Y-11000484D02*
X3751015Y-11000484D01*
X3941491Y-11000484D02*
X3827206Y-11000484D01*
X3884348Y-11000484D02*
X3884348Y-10800484D01*
X3884348Y-10800484D02*
X3865301Y-10829055D01*
X3865301Y-10829055D02*
X3846253Y-10848103D01*
X3846253Y-10848103D02*
X3827206Y-10857627D01*
X4179587Y-11000484D02*
X4179587Y-10800484D01*
X4265301Y-11000484D02*
X4265301Y-10895722D01*
X4265301Y-10895722D02*
X4255777Y-10876674D01*
X4255777Y-10876674D02*
X4236730Y-10867150D01*
X4236730Y-10867150D02*
X4208158Y-10867150D01*
X4208158Y-10867150D02*
X4189110Y-10876674D01*
X4189110Y-10876674D02*
X4179587Y-10886198D01*
X4389111Y-11000484D02*
X4370063Y-10990960D01*
X4370063Y-10990960D02*
X4360539Y-10981436D01*
X4360539Y-10981436D02*
X4351015Y-10962389D01*
X4351015Y-10962389D02*
X4351015Y-10905246D01*
X4351015Y-10905246D02*
X4360539Y-10886198D01*
X4360539Y-10886198D02*
X4370063Y-10876674D01*
X4370063Y-10876674D02*
X4389111Y-10867150D01*
X4389111Y-10867150D02*
X4417682Y-10867150D01*
X4417682Y-10867150D02*
X4436730Y-10876674D01*
X4436730Y-10876674D02*
X4446253Y-10886198D01*
X4446253Y-10886198D02*
X4455777Y-10905246D01*
X4455777Y-10905246D02*
X4455777Y-10962389D01*
X4455777Y-10962389D02*
X4446253Y-10981436D01*
X4446253Y-10981436D02*
X4436730Y-10990960D01*
X4436730Y-10990960D02*
X4417682Y-11000484D01*
X4417682Y-11000484D02*
X4389111Y-11000484D01*
X4570063Y-11000484D02*
X4551015Y-10990960D01*
X4551015Y-10990960D02*
X4541492Y-10971912D01*
X4541492Y-10971912D02*
X4541492Y-10800484D01*
X4722444Y-10990960D02*
X4703396Y-11000484D01*
X4703396Y-11000484D02*
X4665301Y-11000484D01*
X4665301Y-11000484D02*
X4646253Y-10990960D01*
X4646253Y-10990960D02*
X4636730Y-10971912D01*
X4636730Y-10971912D02*
X4636730Y-10895722D01*
X4636730Y-10895722D02*
X4646253Y-10876674D01*
X4646253Y-10876674D02*
X4665301Y-10867150D01*
X4665301Y-10867150D02*
X4703396Y-10867150D01*
X4703396Y-10867150D02*
X4722444Y-10876674D01*
X4722444Y-10876674D02*
X4731968Y-10895722D01*
X4731968Y-10895722D02*
X4731968Y-10914770D01*
X4731968Y-10914770D02*
X4636730Y-10933817D01*
X4808158Y-10990960D02*
X4827206Y-11000484D01*
X4827206Y-11000484D02*
X4865301Y-11000484D01*
X4865301Y-11000484D02*
X4884349Y-10990960D01*
X4884349Y-10990960D02*
X4893873Y-10971912D01*
X4893873Y-10971912D02*
X4893873Y-10962389D01*
X4893873Y-10962389D02*
X4884349Y-10943341D01*
X4884349Y-10943341D02*
X4865301Y-10933817D01*
X4865301Y-10933817D02*
X4836730Y-10933817D01*
X4836730Y-10933817D02*
X4817682Y-10924293D01*
X4817682Y-10924293D02*
X4808158Y-10905246D01*
X4808158Y-10905246D02*
X4808158Y-10895722D01*
X4808158Y-10895722D02*
X4817682Y-10876674D01*
X4817682Y-10876674D02*
X4836730Y-10867150D01*
X4836730Y-10867150D02*
X4865301Y-10867150D01*
X4865301Y-10867150D02*
X4884349Y-10876674D01*
X4960539Y-11076674D02*
X4970063Y-11067150D01*
X4970063Y-11067150D02*
X4989111Y-11038579D01*
X4989111Y-11038579D02*
X4998634Y-11019531D01*
X4998634Y-11019531D02*
X5008158Y-10990960D01*
X5008158Y-10990960D02*
X5017682Y-10943341D01*
X5017682Y-10943341D02*
X5017682Y-10905246D01*
X5017682Y-10905246D02*
X5008158Y-10857627D01*
X5008158Y-10857627D02*
X4998634Y-10829055D01*
X4998634Y-10829055D02*
X4989111Y-10810008D01*
X4989111Y-10810008D02*
X4970063Y-10781436D01*
X4970063Y-10781436D02*
X4960539Y-10771912D01*
D10*
X-25000Y-11153000D02*
X-25000Y-11193000D01*
X-45000Y-11173000D02*
X-5000Y-11173000D01*
D11*
X293872Y-11064484D02*
X312920Y-11064484D01*
X312920Y-11064484D02*
X331967Y-11074008D01*
X331967Y-11074008D02*
X341491Y-11083531D01*
X341491Y-11083531D02*
X351015Y-11102579D01*
X351015Y-11102579D02*
X360539Y-11140674D01*
X360539Y-11140674D02*
X360539Y-11188293D01*
X360539Y-11188293D02*
X351015Y-11226388D01*
X351015Y-11226388D02*
X341491Y-11245436D01*
X341491Y-11245436D02*
X331967Y-11254960D01*
X331967Y-11254960D02*
X312920Y-11264484D01*
X312920Y-11264484D02*
X293872Y-11264484D01*
X293872Y-11264484D02*
X274824Y-11254960D01*
X274824Y-11254960D02*
X265301Y-11245436D01*
X265301Y-11245436D02*
X255777Y-11226388D01*
X255777Y-11226388D02*
X246253Y-11188293D01*
X246253Y-11188293D02*
X246253Y-11140674D01*
X246253Y-11140674D02*
X255777Y-11102579D01*
X255777Y-11102579D02*
X265301Y-11083531D01*
X265301Y-11083531D02*
X274824Y-11074008D01*
X274824Y-11074008D02*
X293872Y-11064484D01*
X446253Y-11245436D02*
X455777Y-11254960D01*
X455777Y-11254960D02*
X446253Y-11264484D01*
X446253Y-11264484D02*
X436729Y-11254960D01*
X436729Y-11254960D02*
X446253Y-11245436D01*
X446253Y-11245436D02*
X446253Y-11264484D01*
X627205Y-11131150D02*
X627205Y-11264484D01*
X579586Y-11054960D02*
X531967Y-11197817D01*
X531967Y-11197817D02*
X655777Y-11197817D01*
X770062Y-11064484D02*
X789110Y-11064484D01*
X789110Y-11064484D02*
X808158Y-11074008D01*
X808158Y-11074008D02*
X817682Y-11083531D01*
X817682Y-11083531D02*
X827205Y-11102579D01*
X827205Y-11102579D02*
X836729Y-11140674D01*
X836729Y-11140674D02*
X836729Y-11188293D01*
X836729Y-11188293D02*
X827205Y-11226388D01*
X827205Y-11226388D02*
X817682Y-11245436D01*
X817682Y-11245436D02*
X808158Y-11254960D01*
X808158Y-11254960D02*
X789110Y-11264484D01*
X789110Y-11264484D02*
X770062Y-11264484D01*
X770062Y-11264484D02*
X751015Y-11254960D01*
X751015Y-11254960D02*
X741491Y-11245436D01*
X741491Y-11245436D02*
X731967Y-11226388D01*
X731967Y-11226388D02*
X722443Y-11188293D01*
X722443Y-11188293D02*
X722443Y-11140674D01*
X722443Y-11140674D02*
X731967Y-11102579D01*
X731967Y-11102579D02*
X741491Y-11083531D01*
X741491Y-11083531D02*
X751015Y-11074008D01*
X751015Y-11074008D02*
X770062Y-11064484D01*
X960539Y-11064484D02*
X979586Y-11064484D01*
X979586Y-11064484D02*
X998634Y-11074008D01*
X998634Y-11074008D02*
X1008158Y-11083531D01*
X1008158Y-11083531D02*
X1017682Y-11102579D01*
X1017682Y-11102579D02*
X1027205Y-11140674D01*
X1027205Y-11140674D02*
X1027205Y-11188293D01*
X1027205Y-11188293D02*
X1017682Y-11226388D01*
X1017682Y-11226388D02*
X1008158Y-11245436D01*
X1008158Y-11245436D02*
X998634Y-11254960D01*
X998634Y-11254960D02*
X979586Y-11264484D01*
X979586Y-11264484D02*
X960539Y-11264484D01*
X960539Y-11264484D02*
X941491Y-11254960D01*
X941491Y-11254960D02*
X931967Y-11245436D01*
X931967Y-11245436D02*
X922443Y-11226388D01*
X922443Y-11226388D02*
X912920Y-11188293D01*
X912920Y-11188293D02*
X912920Y-11140674D01*
X912920Y-11140674D02*
X922443Y-11102579D01*
X922443Y-11102579D02*
X931967Y-11083531D01*
X931967Y-11083531D02*
X941491Y-11074008D01*
X941491Y-11074008D02*
X960539Y-11064484D01*
X1112920Y-11264484D02*
X1112920Y-11131150D01*
X1112920Y-11150198D02*
X1122444Y-11140674D01*
X1122444Y-11140674D02*
X1141491Y-11131150D01*
X1141491Y-11131150D02*
X1170063Y-11131150D01*
X1170063Y-11131150D02*
X1189110Y-11140674D01*
X1189110Y-11140674D02*
X1198634Y-11159722D01*
X1198634Y-11159722D02*
X1198634Y-11264484D01*
X1198634Y-11159722D02*
X1208158Y-11140674D01*
X1208158Y-11140674D02*
X1227205Y-11131150D01*
X1227205Y-11131150D02*
X1255777Y-11131150D01*
X1255777Y-11131150D02*
X1274825Y-11140674D01*
X1274825Y-11140674D02*
X1284348Y-11159722D01*
X1284348Y-11159722D02*
X1284348Y-11264484D01*
X1379586Y-11264484D02*
X1379586Y-11131150D01*
X1379586Y-11150198D02*
X1389110Y-11140674D01*
X1389110Y-11140674D02*
X1408158Y-11131150D01*
X1408158Y-11131150D02*
X1436729Y-11131150D01*
X1436729Y-11131150D02*
X1455777Y-11140674D01*
X1455777Y-11140674D02*
X1465301Y-11159722D01*
X1465301Y-11159722D02*
X1465301Y-11264484D01*
X1465301Y-11159722D02*
X1474824Y-11140674D01*
X1474824Y-11140674D02*
X1493872Y-11131150D01*
X1493872Y-11131150D02*
X1522443Y-11131150D01*
X1522443Y-11131150D02*
X1541491Y-11140674D01*
X1541491Y-11140674D02*
X1551015Y-11159722D01*
X1551015Y-11159722D02*
X1551015Y-11264484D01*
X1941491Y-11054960D02*
X1770063Y-11312103D01*
X2198634Y-11064484D02*
X2217682Y-11064484D01*
X2217682Y-11064484D02*
X2236729Y-11074008D01*
X2236729Y-11074008D02*
X2246253Y-11083531D01*
X2246253Y-11083531D02*
X2255777Y-11102579D01*
X2255777Y-11102579D02*
X2265301Y-11140674D01*
X2265301Y-11140674D02*
X2265301Y-11188293D01*
X2265301Y-11188293D02*
X2255777Y-11226388D01*
X2255777Y-11226388D02*
X2246253Y-11245436D01*
X2246253Y-11245436D02*
X2236729Y-11254960D01*
X2236729Y-11254960D02*
X2217682Y-11264484D01*
X2217682Y-11264484D02*
X2198634Y-11264484D01*
X2198634Y-11264484D02*
X2179587Y-11254960D01*
X2179587Y-11254960D02*
X2170063Y-11245436D01*
X2170063Y-11245436D02*
X2160539Y-11226388D01*
X2160539Y-11226388D02*
X2151015Y-11188293D01*
X2151015Y-11188293D02*
X2151015Y-11140674D01*
X2151015Y-11140674D02*
X2160539Y-11102579D01*
X2160539Y-11102579D02*
X2170063Y-11083531D01*
X2170063Y-11083531D02*
X2179587Y-11074008D01*
X2179587Y-11074008D02*
X2198634Y-11064484D01*
X2351015Y-11245436D02*
X2360539Y-11254960D01*
X2360539Y-11254960D02*
X2351015Y-11264484D01*
X2351015Y-11264484D02*
X2341491Y-11254960D01*
X2341491Y-11254960D02*
X2351015Y-11245436D01*
X2351015Y-11245436D02*
X2351015Y-11264484D01*
X2484348Y-11064484D02*
X2503396Y-11064484D01*
X2503396Y-11064484D02*
X2522444Y-11074008D01*
X2522444Y-11074008D02*
X2531968Y-11083531D01*
X2531968Y-11083531D02*
X2541491Y-11102579D01*
X2541491Y-11102579D02*
X2551015Y-11140674D01*
X2551015Y-11140674D02*
X2551015Y-11188293D01*
X2551015Y-11188293D02*
X2541491Y-11226388D01*
X2541491Y-11226388D02*
X2531968Y-11245436D01*
X2531968Y-11245436D02*
X2522444Y-11254960D01*
X2522444Y-11254960D02*
X2503396Y-11264484D01*
X2503396Y-11264484D02*
X2484348Y-11264484D01*
X2484348Y-11264484D02*
X2465301Y-11254960D01*
X2465301Y-11254960D02*
X2455777Y-11245436D01*
X2455777Y-11245436D02*
X2446253Y-11226388D01*
X2446253Y-11226388D02*
X2436729Y-11188293D01*
X2436729Y-11188293D02*
X2436729Y-11140674D01*
X2436729Y-11140674D02*
X2446253Y-11102579D01*
X2446253Y-11102579D02*
X2455777Y-11083531D01*
X2455777Y-11083531D02*
X2465301Y-11074008D01*
X2465301Y-11074008D02*
X2484348Y-11064484D01*
X2741491Y-11264484D02*
X2627206Y-11264484D01*
X2684348Y-11264484D02*
X2684348Y-11064484D01*
X2684348Y-11064484D02*
X2665301Y-11093055D01*
X2665301Y-11093055D02*
X2646253Y-11112103D01*
X2646253Y-11112103D02*
X2627206Y-11121627D01*
X2922444Y-11064484D02*
X2827206Y-11064484D01*
X2827206Y-11064484D02*
X2817682Y-11159722D01*
X2817682Y-11159722D02*
X2827206Y-11150198D01*
X2827206Y-11150198D02*
X2846253Y-11140674D01*
X2846253Y-11140674D02*
X2893872Y-11140674D01*
X2893872Y-11140674D02*
X2912920Y-11150198D01*
X2912920Y-11150198D02*
X2922444Y-11159722D01*
X2922444Y-11159722D02*
X2931967Y-11178770D01*
X2931967Y-11178770D02*
X2931967Y-11226388D01*
X2931967Y-11226388D02*
X2922444Y-11245436D01*
X2922444Y-11245436D02*
X2912920Y-11254960D01*
X2912920Y-11254960D02*
X2893872Y-11264484D01*
X2893872Y-11264484D02*
X2846253Y-11264484D01*
X2846253Y-11264484D02*
X2827206Y-11254960D01*
X2827206Y-11254960D02*
X2817682Y-11245436D01*
X2998634Y-11064484D02*
X3131967Y-11064484D01*
X3131967Y-11064484D02*
X3046253Y-11264484D01*
X3198634Y-11064484D02*
X3198634Y-11102579D01*
X3274825Y-11064484D02*
X3274825Y-11102579D01*
X3570063Y-11340674D02*
X3560539Y-11331150D01*
X3560539Y-11331150D02*
X3541491Y-11302579D01*
X3541491Y-11302579D02*
X3531968Y-11283531D01*
X3531968Y-11283531D02*
X3522444Y-11254960D01*
X3522444Y-11254960D02*
X3512920Y-11207341D01*
X3512920Y-11207341D02*
X3512920Y-11169246D01*
X3512920Y-11169246D02*
X3522444Y-11121627D01*
X3522444Y-11121627D02*
X3531968Y-11093055D01*
X3531968Y-11093055D02*
X3541491Y-11074008D01*
X3541491Y-11074008D02*
X3560539Y-11045436D01*
X3560539Y-11045436D02*
X3570063Y-11035912D01*
X3627206Y-11064484D02*
X3760539Y-11064484D01*
X3760539Y-11064484D02*
X3674825Y-11264484D01*
X3989110Y-11264484D02*
X3989110Y-11064484D01*
X4074825Y-11264484D02*
X4074825Y-11159722D01*
X4074825Y-11159722D02*
X4065301Y-11140674D01*
X4065301Y-11140674D02*
X4046253Y-11131150D01*
X4046253Y-11131150D02*
X4017682Y-11131150D01*
X4017682Y-11131150D02*
X3998634Y-11140674D01*
X3998634Y-11140674D02*
X3989110Y-11150198D01*
X4198634Y-11264484D02*
X4179587Y-11254960D01*
X4179587Y-11254960D02*
X4170063Y-11245436D01*
X4170063Y-11245436D02*
X4160539Y-11226388D01*
X4160539Y-11226388D02*
X4160539Y-11169246D01*
X4160539Y-11169246D02*
X4170063Y-11150198D01*
X4170063Y-11150198D02*
X4179587Y-11140674D01*
X4179587Y-11140674D02*
X4198634Y-11131150D01*
X4198634Y-11131150D02*
X4227206Y-11131150D01*
X4227206Y-11131150D02*
X4246253Y-11140674D01*
X4246253Y-11140674D02*
X4255777Y-11150198D01*
X4255777Y-11150198D02*
X4265301Y-11169246D01*
X4265301Y-11169246D02*
X4265301Y-11226388D01*
X4265301Y-11226388D02*
X4255777Y-11245436D01*
X4255777Y-11245436D02*
X4246253Y-11254960D01*
X4246253Y-11254960D02*
X4227206Y-11264484D01*
X4227206Y-11264484D02*
X4198634Y-11264484D01*
X4379587Y-11264484D02*
X4360539Y-11254960D01*
X4360539Y-11254960D02*
X4351015Y-11235912D01*
X4351015Y-11235912D02*
X4351015Y-11064484D01*
X4531968Y-11254960D02*
X4512920Y-11264484D01*
X4512920Y-11264484D02*
X4474825Y-11264484D01*
X4474825Y-11264484D02*
X4455777Y-11254960D01*
X4455777Y-11254960D02*
X4446253Y-11235912D01*
X4446253Y-11235912D02*
X4446253Y-11159722D01*
X4446253Y-11159722D02*
X4455777Y-11140674D01*
X4455777Y-11140674D02*
X4474825Y-11131150D01*
X4474825Y-11131150D02*
X4512920Y-11131150D01*
X4512920Y-11131150D02*
X4531968Y-11140674D01*
X4531968Y-11140674D02*
X4541492Y-11159722D01*
X4541492Y-11159722D02*
X4541492Y-11178770D01*
X4541492Y-11178770D02*
X4446253Y-11197817D01*
X4617682Y-11254960D02*
X4636730Y-11264484D01*
X4636730Y-11264484D02*
X4674825Y-11264484D01*
X4674825Y-11264484D02*
X4693873Y-11254960D01*
X4693873Y-11254960D02*
X4703396Y-11235912D01*
X4703396Y-11235912D02*
X4703396Y-11226388D01*
X4703396Y-11226388D02*
X4693873Y-11207341D01*
X4693873Y-11207341D02*
X4674825Y-11197817D01*
X4674825Y-11197817D02*
X4646253Y-11197817D01*
X4646253Y-11197817D02*
X4627206Y-11188293D01*
X4627206Y-11188293D02*
X4617682Y-11169246D01*
X4617682Y-11169246D02*
X4617682Y-11159722D01*
X4617682Y-11159722D02*
X4627206Y-11140674D01*
X4627206Y-11140674D02*
X4646253Y-11131150D01*
X4646253Y-11131150D02*
X4674825Y-11131150D01*
X4674825Y-11131150D02*
X4693873Y-11140674D01*
X4770063Y-11340674D02*
X4779587Y-11331150D01*
X4779587Y-11331150D02*
X4798634Y-11302579D01*
X4798634Y-11302579D02*
X4808158Y-11283531D01*
X4808158Y-11283531D02*
X4817682Y-11254960D01*
X4817682Y-11254960D02*
X4827206Y-11207341D01*
X4827206Y-11207341D02*
X4827206Y-11169246D01*
X4827206Y-11169246D02*
X4817682Y-11121627D01*
X4817682Y-11121627D02*
X4808158Y-11093055D01*
X4808158Y-11093055D02*
X4798634Y-11074008D01*
X4798634Y-11074008D02*
X4779587Y-11045436D01*
X4779587Y-11045436D02*
X4770063Y-11035912D01*
D10*
X-13787Y-11458213D02*
X-13787Y-11415787D01*
X-56213Y-11415787D01*
X-56213Y-11458213D01*
X-13787Y-11458213D01*
D11*
X293872Y-11328484D02*
X312920Y-11328484D01*
X312920Y-11328484D02*
X331967Y-11338008D01*
X331967Y-11338008D02*
X341491Y-11347531D01*
X341491Y-11347531D02*
X351015Y-11366579D01*
X351015Y-11366579D02*
X360539Y-11404674D01*
X360539Y-11404674D02*
X360539Y-11452293D01*
X360539Y-11452293D02*
X351015Y-11490388D01*
X351015Y-11490388D02*
X341491Y-11509436D01*
X341491Y-11509436D02*
X331967Y-11518960D01*
X331967Y-11518960D02*
X312920Y-11528484D01*
X312920Y-11528484D02*
X293872Y-11528484D01*
X293872Y-11528484D02*
X274824Y-11518960D01*
X274824Y-11518960D02*
X265301Y-11509436D01*
X265301Y-11509436D02*
X255777Y-11490388D01*
X255777Y-11490388D02*
X246253Y-11452293D01*
X246253Y-11452293D02*
X246253Y-11404674D01*
X246253Y-11404674D02*
X255777Y-11366579D01*
X255777Y-11366579D02*
X265301Y-11347531D01*
X265301Y-11347531D02*
X274824Y-11338008D01*
X274824Y-11338008D02*
X293872Y-11328484D01*
X446253Y-11509436D02*
X455777Y-11518960D01*
X455777Y-11518960D02*
X446253Y-11528484D01*
X446253Y-11528484D02*
X436729Y-11518960D01*
X436729Y-11518960D02*
X446253Y-11509436D01*
X446253Y-11509436D02*
X446253Y-11528484D01*
X627205Y-11328484D02*
X589110Y-11328484D01*
X589110Y-11328484D02*
X570063Y-11338008D01*
X570063Y-11338008D02*
X560539Y-11347531D01*
X560539Y-11347531D02*
X541491Y-11376103D01*
X541491Y-11376103D02*
X531967Y-11414198D01*
X531967Y-11414198D02*
X531967Y-11490388D01*
X531967Y-11490388D02*
X541491Y-11509436D01*
X541491Y-11509436D02*
X551015Y-11518960D01*
X551015Y-11518960D02*
X570063Y-11528484D01*
X570063Y-11528484D02*
X608158Y-11528484D01*
X608158Y-11528484D02*
X627205Y-11518960D01*
X627205Y-11518960D02*
X636729Y-11509436D01*
X636729Y-11509436D02*
X646253Y-11490388D01*
X646253Y-11490388D02*
X646253Y-11442769D01*
X646253Y-11442769D02*
X636729Y-11423722D01*
X636729Y-11423722D02*
X627205Y-11414198D01*
X627205Y-11414198D02*
X608158Y-11404674D01*
X608158Y-11404674D02*
X570063Y-11404674D01*
X570063Y-11404674D02*
X551015Y-11414198D01*
X551015Y-11414198D02*
X541491Y-11423722D01*
X541491Y-11423722D02*
X531967Y-11442769D01*
X770062Y-11328484D02*
X789110Y-11328484D01*
X789110Y-11328484D02*
X808158Y-11338008D01*
X808158Y-11338008D02*
X817682Y-11347531D01*
X817682Y-11347531D02*
X827205Y-11366579D01*
X827205Y-11366579D02*
X836729Y-11404674D01*
X836729Y-11404674D02*
X836729Y-11452293D01*
X836729Y-11452293D02*
X827205Y-11490388D01*
X827205Y-11490388D02*
X817682Y-11509436D01*
X817682Y-11509436D02*
X808158Y-11518960D01*
X808158Y-11518960D02*
X789110Y-11528484D01*
X789110Y-11528484D02*
X770062Y-11528484D01*
X770062Y-11528484D02*
X751015Y-11518960D01*
X751015Y-11518960D02*
X741491Y-11509436D01*
X741491Y-11509436D02*
X731967Y-11490388D01*
X731967Y-11490388D02*
X722443Y-11452293D01*
X722443Y-11452293D02*
X722443Y-11404674D01*
X722443Y-11404674D02*
X731967Y-11366579D01*
X731967Y-11366579D02*
X741491Y-11347531D01*
X741491Y-11347531D02*
X751015Y-11338008D01*
X751015Y-11338008D02*
X770062Y-11328484D01*
X960539Y-11328484D02*
X979586Y-11328484D01*
X979586Y-11328484D02*
X998634Y-11338008D01*
X998634Y-11338008D02*
X1008158Y-11347531D01*
X1008158Y-11347531D02*
X1017682Y-11366579D01*
X1017682Y-11366579D02*
X1027205Y-11404674D01*
X1027205Y-11404674D02*
X1027205Y-11452293D01*
X1027205Y-11452293D02*
X1017682Y-11490388D01*
X1017682Y-11490388D02*
X1008158Y-11509436D01*
X1008158Y-11509436D02*
X998634Y-11518960D01*
X998634Y-11518960D02*
X979586Y-11528484D01*
X979586Y-11528484D02*
X960539Y-11528484D01*
X960539Y-11528484D02*
X941491Y-11518960D01*
X941491Y-11518960D02*
X931967Y-11509436D01*
X931967Y-11509436D02*
X922443Y-11490388D01*
X922443Y-11490388D02*
X912920Y-11452293D01*
X912920Y-11452293D02*
X912920Y-11404674D01*
X912920Y-11404674D02*
X922443Y-11366579D01*
X922443Y-11366579D02*
X931967Y-11347531D01*
X931967Y-11347531D02*
X941491Y-11338008D01*
X941491Y-11338008D02*
X960539Y-11328484D01*
X1112920Y-11528484D02*
X1112920Y-11395150D01*
X1112920Y-11414198D02*
X1122444Y-11404674D01*
X1122444Y-11404674D02*
X1141491Y-11395150D01*
X1141491Y-11395150D02*
X1170063Y-11395150D01*
X1170063Y-11395150D02*
X1189110Y-11404674D01*
X1189110Y-11404674D02*
X1198634Y-11423722D01*
X1198634Y-11423722D02*
X1198634Y-11528484D01*
X1198634Y-11423722D02*
X1208158Y-11404674D01*
X1208158Y-11404674D02*
X1227205Y-11395150D01*
X1227205Y-11395150D02*
X1255777Y-11395150D01*
X1255777Y-11395150D02*
X1274825Y-11404674D01*
X1274825Y-11404674D02*
X1284348Y-11423722D01*
X1284348Y-11423722D02*
X1284348Y-11528484D01*
X1379586Y-11528484D02*
X1379586Y-11395150D01*
X1379586Y-11414198D02*
X1389110Y-11404674D01*
X1389110Y-11404674D02*
X1408158Y-11395150D01*
X1408158Y-11395150D02*
X1436729Y-11395150D01*
X1436729Y-11395150D02*
X1455777Y-11404674D01*
X1455777Y-11404674D02*
X1465301Y-11423722D01*
X1465301Y-11423722D02*
X1465301Y-11528484D01*
X1465301Y-11423722D02*
X1474824Y-11404674D01*
X1474824Y-11404674D02*
X1493872Y-11395150D01*
X1493872Y-11395150D02*
X1522443Y-11395150D01*
X1522443Y-11395150D02*
X1541491Y-11404674D01*
X1541491Y-11404674D02*
X1551015Y-11423722D01*
X1551015Y-11423722D02*
X1551015Y-11528484D01*
X1941491Y-11318960D02*
X1770063Y-11576103D01*
X2198634Y-11328484D02*
X2217682Y-11328484D01*
X2217682Y-11328484D02*
X2236729Y-11338008D01*
X2236729Y-11338008D02*
X2246253Y-11347531D01*
X2246253Y-11347531D02*
X2255777Y-11366579D01*
X2255777Y-11366579D02*
X2265301Y-11404674D01*
X2265301Y-11404674D02*
X2265301Y-11452293D01*
X2265301Y-11452293D02*
X2255777Y-11490388D01*
X2255777Y-11490388D02*
X2246253Y-11509436D01*
X2246253Y-11509436D02*
X2236729Y-11518960D01*
X2236729Y-11518960D02*
X2217682Y-11528484D01*
X2217682Y-11528484D02*
X2198634Y-11528484D01*
X2198634Y-11528484D02*
X2179587Y-11518960D01*
X2179587Y-11518960D02*
X2170063Y-11509436D01*
X2170063Y-11509436D02*
X2160539Y-11490388D01*
X2160539Y-11490388D02*
X2151015Y-11452293D01*
X2151015Y-11452293D02*
X2151015Y-11404674D01*
X2151015Y-11404674D02*
X2160539Y-11366579D01*
X2160539Y-11366579D02*
X2170063Y-11347531D01*
X2170063Y-11347531D02*
X2179587Y-11338008D01*
X2179587Y-11338008D02*
X2198634Y-11328484D01*
X2351015Y-11509436D02*
X2360539Y-11518960D01*
X2360539Y-11518960D02*
X2351015Y-11528484D01*
X2351015Y-11528484D02*
X2341491Y-11518960D01*
X2341491Y-11518960D02*
X2351015Y-11509436D01*
X2351015Y-11509436D02*
X2351015Y-11528484D01*
X2484348Y-11328484D02*
X2503396Y-11328484D01*
X2503396Y-11328484D02*
X2522444Y-11338008D01*
X2522444Y-11338008D02*
X2531968Y-11347531D01*
X2531968Y-11347531D02*
X2541491Y-11366579D01*
X2541491Y-11366579D02*
X2551015Y-11404674D01*
X2551015Y-11404674D02*
X2551015Y-11452293D01*
X2551015Y-11452293D02*
X2541491Y-11490388D01*
X2541491Y-11490388D02*
X2531968Y-11509436D01*
X2531968Y-11509436D02*
X2522444Y-11518960D01*
X2522444Y-11518960D02*
X2503396Y-11528484D01*
X2503396Y-11528484D02*
X2484348Y-11528484D01*
X2484348Y-11528484D02*
X2465301Y-11518960D01*
X2465301Y-11518960D02*
X2455777Y-11509436D01*
X2455777Y-11509436D02*
X2446253Y-11490388D01*
X2446253Y-11490388D02*
X2436729Y-11452293D01*
X2436729Y-11452293D02*
X2436729Y-11404674D01*
X2436729Y-11404674D02*
X2446253Y-11366579D01*
X2446253Y-11366579D02*
X2455777Y-11347531D01*
X2455777Y-11347531D02*
X2465301Y-11338008D01*
X2465301Y-11338008D02*
X2484348Y-11328484D01*
X2627206Y-11347531D02*
X2636729Y-11338008D01*
X2636729Y-11338008D02*
X2655777Y-11328484D01*
X2655777Y-11328484D02*
X2703396Y-11328484D01*
X2703396Y-11328484D02*
X2722444Y-11338008D01*
X2722444Y-11338008D02*
X2731968Y-11347531D01*
X2731968Y-11347531D02*
X2741491Y-11366579D01*
X2741491Y-11366579D02*
X2741491Y-11385627D01*
X2741491Y-11385627D02*
X2731968Y-11414198D01*
X2731968Y-11414198D02*
X2617682Y-11528484D01*
X2617682Y-11528484D02*
X2741491Y-11528484D01*
X2808158Y-11328484D02*
X2931967Y-11328484D01*
X2931967Y-11328484D02*
X2865301Y-11404674D01*
X2865301Y-11404674D02*
X2893872Y-11404674D01*
X2893872Y-11404674D02*
X2912920Y-11414198D01*
X2912920Y-11414198D02*
X2922444Y-11423722D01*
X2922444Y-11423722D02*
X2931967Y-11442769D01*
X2931967Y-11442769D02*
X2931967Y-11490388D01*
X2931967Y-11490388D02*
X2922444Y-11509436D01*
X2922444Y-11509436D02*
X2912920Y-11518960D01*
X2912920Y-11518960D02*
X2893872Y-11528484D01*
X2893872Y-11528484D02*
X2836729Y-11528484D01*
X2836729Y-11528484D02*
X2817682Y-11518960D01*
X2817682Y-11518960D02*
X2808158Y-11509436D01*
X3103396Y-11328484D02*
X3065301Y-11328484D01*
X3065301Y-11328484D02*
X3046253Y-11338008D01*
X3046253Y-11338008D02*
X3036729Y-11347531D01*
X3036729Y-11347531D02*
X3017682Y-11376103D01*
X3017682Y-11376103D02*
X3008158Y-11414198D01*
X3008158Y-11414198D02*
X3008158Y-11490388D01*
X3008158Y-11490388D02*
X3017682Y-11509436D01*
X3017682Y-11509436D02*
X3027206Y-11518960D01*
X3027206Y-11518960D02*
X3046253Y-11528484D01*
X3046253Y-11528484D02*
X3084348Y-11528484D01*
X3084348Y-11528484D02*
X3103396Y-11518960D01*
X3103396Y-11518960D02*
X3112920Y-11509436D01*
X3112920Y-11509436D02*
X3122444Y-11490388D01*
X3122444Y-11490388D02*
X3122444Y-11442769D01*
X3122444Y-11442769D02*
X3112920Y-11423722D01*
X3112920Y-11423722D02*
X3103396Y-11414198D01*
X3103396Y-11414198D02*
X3084348Y-11404674D01*
X3084348Y-11404674D02*
X3046253Y-11404674D01*
X3046253Y-11404674D02*
X3027206Y-11414198D01*
X3027206Y-11414198D02*
X3017682Y-11423722D01*
X3017682Y-11423722D02*
X3008158Y-11442769D01*
X3198634Y-11328484D02*
X3198634Y-11366579D01*
X3274825Y-11328484D02*
X3274825Y-11366579D01*
X3570063Y-11604674D02*
X3560539Y-11595150D01*
X3560539Y-11595150D02*
X3541491Y-11566579D01*
X3541491Y-11566579D02*
X3531968Y-11547531D01*
X3531968Y-11547531D02*
X3522444Y-11518960D01*
X3522444Y-11518960D02*
X3512920Y-11471341D01*
X3512920Y-11471341D02*
X3512920Y-11433246D01*
X3512920Y-11433246D02*
X3522444Y-11385627D01*
X3522444Y-11385627D02*
X3531968Y-11357055D01*
X3531968Y-11357055D02*
X3541491Y-11338008D01*
X3541491Y-11338008D02*
X3560539Y-11309436D01*
X3560539Y-11309436D02*
X3570063Y-11299912D01*
X3636729Y-11347531D02*
X3646253Y-11338008D01*
X3646253Y-11338008D02*
X3665301Y-11328484D01*
X3665301Y-11328484D02*
X3712920Y-11328484D01*
X3712920Y-11328484D02*
X3731968Y-11338008D01*
X3731968Y-11338008D02*
X3741491Y-11347531D01*
X3741491Y-11347531D02*
X3751015Y-11366579D01*
X3751015Y-11366579D02*
X3751015Y-11385627D01*
X3751015Y-11385627D02*
X3741491Y-11414198D01*
X3741491Y-11414198D02*
X3627206Y-11528484D01*
X3627206Y-11528484D02*
X3751015Y-11528484D01*
X3989110Y-11528484D02*
X3989110Y-11328484D01*
X4074825Y-11528484D02*
X4074825Y-11423722D01*
X4074825Y-11423722D02*
X4065301Y-11404674D01*
X4065301Y-11404674D02*
X4046253Y-11395150D01*
X4046253Y-11395150D02*
X4017682Y-11395150D01*
X4017682Y-11395150D02*
X3998634Y-11404674D01*
X3998634Y-11404674D02*
X3989110Y-11414198D01*
X4198634Y-11528484D02*
X4179587Y-11518960D01*
X4179587Y-11518960D02*
X4170063Y-11509436D01*
X4170063Y-11509436D02*
X4160539Y-11490388D01*
X4160539Y-11490388D02*
X4160539Y-11433246D01*
X4160539Y-11433246D02*
X4170063Y-11414198D01*
X4170063Y-11414198D02*
X4179587Y-11404674D01*
X4179587Y-11404674D02*
X4198634Y-11395150D01*
X4198634Y-11395150D02*
X4227206Y-11395150D01*
X4227206Y-11395150D02*
X4246253Y-11404674D01*
X4246253Y-11404674D02*
X4255777Y-11414198D01*
X4255777Y-11414198D02*
X4265301Y-11433246D01*
X4265301Y-11433246D02*
X4265301Y-11490388D01*
X4265301Y-11490388D02*
X4255777Y-11509436D01*
X4255777Y-11509436D02*
X4246253Y-11518960D01*
X4246253Y-11518960D02*
X4227206Y-11528484D01*
X4227206Y-11528484D02*
X4198634Y-11528484D01*
X4379587Y-11528484D02*
X4360539Y-11518960D01*
X4360539Y-11518960D02*
X4351015Y-11499912D01*
X4351015Y-11499912D02*
X4351015Y-11328484D01*
X4531968Y-11518960D02*
X4512920Y-11528484D01*
X4512920Y-11528484D02*
X4474825Y-11528484D01*
X4474825Y-11528484D02*
X4455777Y-11518960D01*
X4455777Y-11518960D02*
X4446253Y-11499912D01*
X4446253Y-11499912D02*
X4446253Y-11423722D01*
X4446253Y-11423722D02*
X4455777Y-11404674D01*
X4455777Y-11404674D02*
X4474825Y-11395150D01*
X4474825Y-11395150D02*
X4512920Y-11395150D01*
X4512920Y-11395150D02*
X4531968Y-11404674D01*
X4531968Y-11404674D02*
X4541492Y-11423722D01*
X4541492Y-11423722D02*
X4541492Y-11442769D01*
X4541492Y-11442769D02*
X4446253Y-11461817D01*
X4617682Y-11518960D02*
X4636730Y-11528484D01*
X4636730Y-11528484D02*
X4674825Y-11528484D01*
X4674825Y-11528484D02*
X4693873Y-11518960D01*
X4693873Y-11518960D02*
X4703396Y-11499912D01*
X4703396Y-11499912D02*
X4703396Y-11490388D01*
X4703396Y-11490388D02*
X4693873Y-11471341D01*
X4693873Y-11471341D02*
X4674825Y-11461817D01*
X4674825Y-11461817D02*
X4646253Y-11461817D01*
X4646253Y-11461817D02*
X4627206Y-11452293D01*
X4627206Y-11452293D02*
X4617682Y-11433246D01*
X4617682Y-11433246D02*
X4617682Y-11423722D01*
X4617682Y-11423722D02*
X4627206Y-11404674D01*
X4627206Y-11404674D02*
X4646253Y-11395150D01*
X4646253Y-11395150D02*
X4674825Y-11395150D01*
X4674825Y-11395150D02*
X4693873Y-11404674D01*
X4770063Y-11604674D02*
X4779587Y-11595150D01*
X4779587Y-11595150D02*
X4798634Y-11566579D01*
X4798634Y-11566579D02*
X4808158Y-11547531D01*
X4808158Y-11547531D02*
X4817682Y-11518960D01*
X4817682Y-11518960D02*
X4827206Y-11471341D01*
X4827206Y-11471341D02*
X4827206Y-11433246D01*
X4827206Y-11433246D02*
X4817682Y-11385627D01*
X4817682Y-11385627D02*
X4808158Y-11357055D01*
X4808158Y-11357055D02*
X4798634Y-11338008D01*
X4798634Y-11338008D02*
X4779587Y-11309436D01*
X4779587Y-11309436D02*
X4770063Y-11299912D01*
D10*
X-45000Y-11741000D02*
X-5000Y-11701000D01*
X-45000Y-11661000D01*
X-85000Y-11701000D01*
X-45000Y-11741000D01*
D11*
X293872Y-11592484D02*
X312920Y-11592484D01*
X312920Y-11592484D02*
X331967Y-11602008D01*
X331967Y-11602008D02*
X341491Y-11611531D01*
X341491Y-11611531D02*
X351015Y-11630579D01*
X351015Y-11630579D02*
X360539Y-11668674D01*
X360539Y-11668674D02*
X360539Y-11716293D01*
X360539Y-11716293D02*
X351015Y-11754388D01*
X351015Y-11754388D02*
X341491Y-11773436D01*
X341491Y-11773436D02*
X331967Y-11782960D01*
X331967Y-11782960D02*
X312920Y-11792484D01*
X312920Y-11792484D02*
X293872Y-11792484D01*
X293872Y-11792484D02*
X274824Y-11782960D01*
X274824Y-11782960D02*
X265301Y-11773436D01*
X265301Y-11773436D02*
X255777Y-11754388D01*
X255777Y-11754388D02*
X246253Y-11716293D01*
X246253Y-11716293D02*
X246253Y-11668674D01*
X246253Y-11668674D02*
X255777Y-11630579D01*
X255777Y-11630579D02*
X265301Y-11611531D01*
X265301Y-11611531D02*
X274824Y-11602008D01*
X274824Y-11602008D02*
X293872Y-11592484D01*
X446253Y-11773436D02*
X455777Y-11782960D01*
X455777Y-11782960D02*
X446253Y-11792484D01*
X446253Y-11792484D02*
X436729Y-11782960D01*
X436729Y-11782960D02*
X446253Y-11773436D01*
X446253Y-11773436D02*
X446253Y-11792484D01*
X570063Y-11678198D02*
X551015Y-11668674D01*
X551015Y-11668674D02*
X541491Y-11659150D01*
X541491Y-11659150D02*
X531967Y-11640103D01*
X531967Y-11640103D02*
X531967Y-11630579D01*
X531967Y-11630579D02*
X541491Y-11611531D01*
X541491Y-11611531D02*
X551015Y-11602008D01*
X551015Y-11602008D02*
X570063Y-11592484D01*
X570063Y-11592484D02*
X608158Y-11592484D01*
X608158Y-11592484D02*
X627205Y-11602008D01*
X627205Y-11602008D02*
X636729Y-11611531D01*
X636729Y-11611531D02*
X646253Y-11630579D01*
X646253Y-11630579D02*
X646253Y-11640103D01*
X646253Y-11640103D02*
X636729Y-11659150D01*
X636729Y-11659150D02*
X627205Y-11668674D01*
X627205Y-11668674D02*
X608158Y-11678198D01*
X608158Y-11678198D02*
X570063Y-11678198D01*
X570063Y-11678198D02*
X551015Y-11687722D01*
X551015Y-11687722D02*
X541491Y-11697246D01*
X541491Y-11697246D02*
X531967Y-11716293D01*
X531967Y-11716293D02*
X531967Y-11754388D01*
X531967Y-11754388D02*
X541491Y-11773436D01*
X541491Y-11773436D02*
X551015Y-11782960D01*
X551015Y-11782960D02*
X570063Y-11792484D01*
X570063Y-11792484D02*
X608158Y-11792484D01*
X608158Y-11792484D02*
X627205Y-11782960D01*
X627205Y-11782960D02*
X636729Y-11773436D01*
X636729Y-11773436D02*
X646253Y-11754388D01*
X646253Y-11754388D02*
X646253Y-11716293D01*
X646253Y-11716293D02*
X636729Y-11697246D01*
X636729Y-11697246D02*
X627205Y-11687722D01*
X627205Y-11687722D02*
X608158Y-11678198D01*
X770062Y-11592484D02*
X789110Y-11592484D01*
X789110Y-11592484D02*
X808158Y-11602008D01*
X808158Y-11602008D02*
X817682Y-11611531D01*
X817682Y-11611531D02*
X827205Y-11630579D01*
X827205Y-11630579D02*
X836729Y-11668674D01*
X836729Y-11668674D02*
X836729Y-11716293D01*
X836729Y-11716293D02*
X827205Y-11754388D01*
X827205Y-11754388D02*
X817682Y-11773436D01*
X817682Y-11773436D02*
X808158Y-11782960D01*
X808158Y-11782960D02*
X789110Y-11792484D01*
X789110Y-11792484D02*
X770062Y-11792484D01*
X770062Y-11792484D02*
X751015Y-11782960D01*
X751015Y-11782960D02*
X741491Y-11773436D01*
X741491Y-11773436D02*
X731967Y-11754388D01*
X731967Y-11754388D02*
X722443Y-11716293D01*
X722443Y-11716293D02*
X722443Y-11668674D01*
X722443Y-11668674D02*
X731967Y-11630579D01*
X731967Y-11630579D02*
X741491Y-11611531D01*
X741491Y-11611531D02*
X751015Y-11602008D01*
X751015Y-11602008D02*
X770062Y-11592484D01*
X960539Y-11592484D02*
X979586Y-11592484D01*
X979586Y-11592484D02*
X998634Y-11602008D01*
X998634Y-11602008D02*
X1008158Y-11611531D01*
X1008158Y-11611531D02*
X1017682Y-11630579D01*
X1017682Y-11630579D02*
X1027205Y-11668674D01*
X1027205Y-11668674D02*
X1027205Y-11716293D01*
X1027205Y-11716293D02*
X1017682Y-11754388D01*
X1017682Y-11754388D02*
X1008158Y-11773436D01*
X1008158Y-11773436D02*
X998634Y-11782960D01*
X998634Y-11782960D02*
X979586Y-11792484D01*
X979586Y-11792484D02*
X960539Y-11792484D01*
X960539Y-11792484D02*
X941491Y-11782960D01*
X941491Y-11782960D02*
X931967Y-11773436D01*
X931967Y-11773436D02*
X922443Y-11754388D01*
X922443Y-11754388D02*
X912920Y-11716293D01*
X912920Y-11716293D02*
X912920Y-11668674D01*
X912920Y-11668674D02*
X922443Y-11630579D01*
X922443Y-11630579D02*
X931967Y-11611531D01*
X931967Y-11611531D02*
X941491Y-11602008D01*
X941491Y-11602008D02*
X960539Y-11592484D01*
X1112920Y-11792484D02*
X1112920Y-11659150D01*
X1112920Y-11678198D02*
X1122444Y-11668674D01*
X1122444Y-11668674D02*
X1141491Y-11659150D01*
X1141491Y-11659150D02*
X1170063Y-11659150D01*
X1170063Y-11659150D02*
X1189110Y-11668674D01*
X1189110Y-11668674D02*
X1198634Y-11687722D01*
X1198634Y-11687722D02*
X1198634Y-11792484D01*
X1198634Y-11687722D02*
X1208158Y-11668674D01*
X1208158Y-11668674D02*
X1227205Y-11659150D01*
X1227205Y-11659150D02*
X1255777Y-11659150D01*
X1255777Y-11659150D02*
X1274825Y-11668674D01*
X1274825Y-11668674D02*
X1284348Y-11687722D01*
X1284348Y-11687722D02*
X1284348Y-11792484D01*
X1379586Y-11792484D02*
X1379586Y-11659150D01*
X1379586Y-11678198D02*
X1389110Y-11668674D01*
X1389110Y-11668674D02*
X1408158Y-11659150D01*
X1408158Y-11659150D02*
X1436729Y-11659150D01*
X1436729Y-11659150D02*
X1455777Y-11668674D01*
X1455777Y-11668674D02*
X1465301Y-11687722D01*
X1465301Y-11687722D02*
X1465301Y-11792484D01*
X1465301Y-11687722D02*
X1474824Y-11668674D01*
X1474824Y-11668674D02*
X1493872Y-11659150D01*
X1493872Y-11659150D02*
X1522443Y-11659150D01*
X1522443Y-11659150D02*
X1541491Y-11668674D01*
X1541491Y-11668674D02*
X1551015Y-11687722D01*
X1551015Y-11687722D02*
X1551015Y-11792484D01*
X1941491Y-11582960D02*
X1770063Y-11840103D01*
X2198634Y-11592484D02*
X2217682Y-11592484D01*
X2217682Y-11592484D02*
X2236729Y-11602008D01*
X2236729Y-11602008D02*
X2246253Y-11611531D01*
X2246253Y-11611531D02*
X2255777Y-11630579D01*
X2255777Y-11630579D02*
X2265301Y-11668674D01*
X2265301Y-11668674D02*
X2265301Y-11716293D01*
X2265301Y-11716293D02*
X2255777Y-11754388D01*
X2255777Y-11754388D02*
X2246253Y-11773436D01*
X2246253Y-11773436D02*
X2236729Y-11782960D01*
X2236729Y-11782960D02*
X2217682Y-11792484D01*
X2217682Y-11792484D02*
X2198634Y-11792484D01*
X2198634Y-11792484D02*
X2179587Y-11782960D01*
X2179587Y-11782960D02*
X2170063Y-11773436D01*
X2170063Y-11773436D02*
X2160539Y-11754388D01*
X2160539Y-11754388D02*
X2151015Y-11716293D01*
X2151015Y-11716293D02*
X2151015Y-11668674D01*
X2151015Y-11668674D02*
X2160539Y-11630579D01*
X2160539Y-11630579D02*
X2170063Y-11611531D01*
X2170063Y-11611531D02*
X2179587Y-11602008D01*
X2179587Y-11602008D02*
X2198634Y-11592484D01*
X2351015Y-11773436D02*
X2360539Y-11782960D01*
X2360539Y-11782960D02*
X2351015Y-11792484D01*
X2351015Y-11792484D02*
X2341491Y-11782960D01*
X2341491Y-11782960D02*
X2351015Y-11773436D01*
X2351015Y-11773436D02*
X2351015Y-11792484D01*
X2484348Y-11592484D02*
X2503396Y-11592484D01*
X2503396Y-11592484D02*
X2522444Y-11602008D01*
X2522444Y-11602008D02*
X2531968Y-11611531D01*
X2531968Y-11611531D02*
X2541491Y-11630579D01*
X2541491Y-11630579D02*
X2551015Y-11668674D01*
X2551015Y-11668674D02*
X2551015Y-11716293D01*
X2551015Y-11716293D02*
X2541491Y-11754388D01*
X2541491Y-11754388D02*
X2531968Y-11773436D01*
X2531968Y-11773436D02*
X2522444Y-11782960D01*
X2522444Y-11782960D02*
X2503396Y-11792484D01*
X2503396Y-11792484D02*
X2484348Y-11792484D01*
X2484348Y-11792484D02*
X2465301Y-11782960D01*
X2465301Y-11782960D02*
X2455777Y-11773436D01*
X2455777Y-11773436D02*
X2446253Y-11754388D01*
X2446253Y-11754388D02*
X2436729Y-11716293D01*
X2436729Y-11716293D02*
X2436729Y-11668674D01*
X2436729Y-11668674D02*
X2446253Y-11630579D01*
X2446253Y-11630579D02*
X2455777Y-11611531D01*
X2455777Y-11611531D02*
X2465301Y-11602008D01*
X2465301Y-11602008D02*
X2484348Y-11592484D01*
X2617682Y-11592484D02*
X2741491Y-11592484D01*
X2741491Y-11592484D02*
X2674825Y-11668674D01*
X2674825Y-11668674D02*
X2703396Y-11668674D01*
X2703396Y-11668674D02*
X2722444Y-11678198D01*
X2722444Y-11678198D02*
X2731968Y-11687722D01*
X2731968Y-11687722D02*
X2741491Y-11706769D01*
X2741491Y-11706769D02*
X2741491Y-11754388D01*
X2741491Y-11754388D02*
X2731968Y-11773436D01*
X2731968Y-11773436D02*
X2722444Y-11782960D01*
X2722444Y-11782960D02*
X2703396Y-11792484D01*
X2703396Y-11792484D02*
X2646253Y-11792484D01*
X2646253Y-11792484D02*
X2627206Y-11782960D01*
X2627206Y-11782960D02*
X2617682Y-11773436D01*
X2931967Y-11792484D02*
X2817682Y-11792484D01*
X2874825Y-11792484D02*
X2874825Y-11592484D01*
X2874825Y-11592484D02*
X2855777Y-11621055D01*
X2855777Y-11621055D02*
X2836729Y-11640103D01*
X2836729Y-11640103D02*
X2817682Y-11649627D01*
X3112920Y-11592484D02*
X3017682Y-11592484D01*
X3017682Y-11592484D02*
X3008158Y-11687722D01*
X3008158Y-11687722D02*
X3017682Y-11678198D01*
X3017682Y-11678198D02*
X3036729Y-11668674D01*
X3036729Y-11668674D02*
X3084348Y-11668674D01*
X3084348Y-11668674D02*
X3103396Y-11678198D01*
X3103396Y-11678198D02*
X3112920Y-11687722D01*
X3112920Y-11687722D02*
X3122444Y-11706769D01*
X3122444Y-11706769D02*
X3122444Y-11754388D01*
X3122444Y-11754388D02*
X3112920Y-11773436D01*
X3112920Y-11773436D02*
X3103396Y-11782960D01*
X3103396Y-11782960D02*
X3084348Y-11792484D01*
X3084348Y-11792484D02*
X3036729Y-11792484D01*
X3036729Y-11792484D02*
X3017682Y-11782960D01*
X3017682Y-11782960D02*
X3008158Y-11773436D01*
X3198634Y-11592484D02*
X3198634Y-11630579D01*
X3274825Y-11592484D02*
X3274825Y-11630579D01*
X3570063Y-11868674D02*
X3560539Y-11859150D01*
X3560539Y-11859150D02*
X3541491Y-11830579D01*
X3541491Y-11830579D02*
X3531968Y-11811531D01*
X3531968Y-11811531D02*
X3522444Y-11782960D01*
X3522444Y-11782960D02*
X3512920Y-11735341D01*
X3512920Y-11735341D02*
X3512920Y-11697246D01*
X3512920Y-11697246D02*
X3522444Y-11649627D01*
X3522444Y-11649627D02*
X3531968Y-11621055D01*
X3531968Y-11621055D02*
X3541491Y-11602008D01*
X3541491Y-11602008D02*
X3560539Y-11573436D01*
X3560539Y-11573436D02*
X3570063Y-11563912D01*
X3751015Y-11792484D02*
X3636729Y-11792484D01*
X3693872Y-11792484D02*
X3693872Y-11592484D01*
X3693872Y-11592484D02*
X3674825Y-11621055D01*
X3674825Y-11621055D02*
X3655777Y-11640103D01*
X3655777Y-11640103D02*
X3636729Y-11649627D01*
X3865301Y-11678198D02*
X3846253Y-11668674D01*
X3846253Y-11668674D02*
X3836729Y-11659150D01*
X3836729Y-11659150D02*
X3827206Y-11640103D01*
X3827206Y-11640103D02*
X3827206Y-11630579D01*
X3827206Y-11630579D02*
X3836729Y-11611531D01*
X3836729Y-11611531D02*
X3846253Y-11602008D01*
X3846253Y-11602008D02*
X3865301Y-11592484D01*
X3865301Y-11592484D02*
X3903396Y-11592484D01*
X3903396Y-11592484D02*
X3922444Y-11602008D01*
X3922444Y-11602008D02*
X3931968Y-11611531D01*
X3931968Y-11611531D02*
X3941491Y-11630579D01*
X3941491Y-11630579D02*
X3941491Y-11640103D01*
X3941491Y-11640103D02*
X3931968Y-11659150D01*
X3931968Y-11659150D02*
X3922444Y-11668674D01*
X3922444Y-11668674D02*
X3903396Y-11678198D01*
X3903396Y-11678198D02*
X3865301Y-11678198D01*
X3865301Y-11678198D02*
X3846253Y-11687722D01*
X3846253Y-11687722D02*
X3836729Y-11697246D01*
X3836729Y-11697246D02*
X3827206Y-11716293D01*
X3827206Y-11716293D02*
X3827206Y-11754388D01*
X3827206Y-11754388D02*
X3836729Y-11773436D01*
X3836729Y-11773436D02*
X3846253Y-11782960D01*
X3846253Y-11782960D02*
X3865301Y-11792484D01*
X3865301Y-11792484D02*
X3903396Y-11792484D01*
X3903396Y-11792484D02*
X3922444Y-11782960D01*
X3922444Y-11782960D02*
X3931968Y-11773436D01*
X3931968Y-11773436D02*
X3941491Y-11754388D01*
X3941491Y-11754388D02*
X3941491Y-11716293D01*
X3941491Y-11716293D02*
X3931968Y-11697246D01*
X3931968Y-11697246D02*
X3922444Y-11687722D01*
X3922444Y-11687722D02*
X3903396Y-11678198D01*
X4179587Y-11792484D02*
X4179587Y-11592484D01*
X4265301Y-11792484D02*
X4265301Y-11687722D01*
X4265301Y-11687722D02*
X4255777Y-11668674D01*
X4255777Y-11668674D02*
X4236730Y-11659150D01*
X4236730Y-11659150D02*
X4208158Y-11659150D01*
X4208158Y-11659150D02*
X4189110Y-11668674D01*
X4189110Y-11668674D02*
X4179587Y-11678198D01*
X4389111Y-11792484D02*
X4370063Y-11782960D01*
X4370063Y-11782960D02*
X4360539Y-11773436D01*
X4360539Y-11773436D02*
X4351015Y-11754388D01*
X4351015Y-11754388D02*
X4351015Y-11697246D01*
X4351015Y-11697246D02*
X4360539Y-11678198D01*
X4360539Y-11678198D02*
X4370063Y-11668674D01*
X4370063Y-11668674D02*
X4389111Y-11659150D01*
X4389111Y-11659150D02*
X4417682Y-11659150D01*
X4417682Y-11659150D02*
X4436730Y-11668674D01*
X4436730Y-11668674D02*
X4446253Y-11678198D01*
X4446253Y-11678198D02*
X4455777Y-11697246D01*
X4455777Y-11697246D02*
X4455777Y-11754388D01*
X4455777Y-11754388D02*
X4446253Y-11773436D01*
X4446253Y-11773436D02*
X4436730Y-11782960D01*
X4436730Y-11782960D02*
X4417682Y-11792484D01*
X4417682Y-11792484D02*
X4389111Y-11792484D01*
X4570063Y-11792484D02*
X4551015Y-11782960D01*
X4551015Y-11782960D02*
X4541492Y-11763912D01*
X4541492Y-11763912D02*
X4541492Y-11592484D01*
X4722444Y-11782960D02*
X4703396Y-11792484D01*
X4703396Y-11792484D02*
X4665301Y-11792484D01*
X4665301Y-11792484D02*
X4646253Y-11782960D01*
X4646253Y-11782960D02*
X4636730Y-11763912D01*
X4636730Y-11763912D02*
X4636730Y-11687722D01*
X4636730Y-11687722D02*
X4646253Y-11668674D01*
X4646253Y-11668674D02*
X4665301Y-11659150D01*
X4665301Y-11659150D02*
X4703396Y-11659150D01*
X4703396Y-11659150D02*
X4722444Y-11668674D01*
X4722444Y-11668674D02*
X4731968Y-11687722D01*
X4731968Y-11687722D02*
X4731968Y-11706769D01*
X4731968Y-11706769D02*
X4636730Y-11725817D01*
X4808158Y-11782960D02*
X4827206Y-11792484D01*
X4827206Y-11792484D02*
X4865301Y-11792484D01*
X4865301Y-11792484D02*
X4884349Y-11782960D01*
X4884349Y-11782960D02*
X4893873Y-11763912D01*
X4893873Y-11763912D02*
X4893873Y-11754388D01*
X4893873Y-11754388D02*
X4884349Y-11735341D01*
X4884349Y-11735341D02*
X4865301Y-11725817D01*
X4865301Y-11725817D02*
X4836730Y-11725817D01*
X4836730Y-11725817D02*
X4817682Y-11716293D01*
X4817682Y-11716293D02*
X4808158Y-11697246D01*
X4808158Y-11697246D02*
X4808158Y-11687722D01*
X4808158Y-11687722D02*
X4817682Y-11668674D01*
X4817682Y-11668674D02*
X4836730Y-11659150D01*
X4836730Y-11659150D02*
X4865301Y-11659150D01*
X4865301Y-11659150D02*
X4884349Y-11668674D01*
X4960539Y-11868674D02*
X4970063Y-11859150D01*
X4970063Y-11859150D02*
X4989111Y-11830579D01*
X4989111Y-11830579D02*
X4998634Y-11811531D01*
X4998634Y-11811531D02*
X5008158Y-11782960D01*
X5008158Y-11782960D02*
X5017682Y-11735341D01*
X5017682Y-11735341D02*
X5017682Y-11697246D01*
X5017682Y-11697246D02*
X5008158Y-11649627D01*
X5008158Y-11649627D02*
X4998634Y-11621055D01*
X4998634Y-11621055D02*
X4989111Y-11602008D01*
X4989111Y-11602008D02*
X4970063Y-11573436D01*
X4970063Y-11573436D02*
X4960539Y-11563912D01*
D10*
X-95000Y-11920000D02*
X-5000Y-12010000D01*
X-5000Y-11920000D02*
X-95000Y-12010000D01*
X-5000Y-11965000D02*
G75*
G02*
X-95000Y-11965000I-45000J0D01*
G01*
X-95000Y-11965000D02*
G75*
G02*
X-5000Y-11965000I45000J0D01*
G01*
D11*
X293872Y-11856484D02*
X312920Y-11856484D01*
X312920Y-11856484D02*
X331967Y-11866008D01*
X331967Y-11866008D02*
X341491Y-11875531D01*
X341491Y-11875531D02*
X351015Y-11894579D01*
X351015Y-11894579D02*
X360539Y-11932674D01*
X360539Y-11932674D02*
X360539Y-11980293D01*
X360539Y-11980293D02*
X351015Y-12018388D01*
X351015Y-12018388D02*
X341491Y-12037436D01*
X341491Y-12037436D02*
X331967Y-12046960D01*
X331967Y-12046960D02*
X312920Y-12056484D01*
X312920Y-12056484D02*
X293872Y-12056484D01*
X293872Y-12056484D02*
X274824Y-12046960D01*
X274824Y-12046960D02*
X265301Y-12037436D01*
X265301Y-12037436D02*
X255777Y-12018388D01*
X255777Y-12018388D02*
X246253Y-11980293D01*
X246253Y-11980293D02*
X246253Y-11932674D01*
X246253Y-11932674D02*
X255777Y-11894579D01*
X255777Y-11894579D02*
X265301Y-11875531D01*
X265301Y-11875531D02*
X274824Y-11866008D01*
X274824Y-11866008D02*
X293872Y-11856484D01*
X446253Y-12037436D02*
X455777Y-12046960D01*
X455777Y-12046960D02*
X446253Y-12056484D01*
X446253Y-12056484D02*
X436729Y-12046960D01*
X436729Y-12046960D02*
X446253Y-12037436D01*
X446253Y-12037436D02*
X446253Y-12056484D01*
X551015Y-12056484D02*
X589110Y-12056484D01*
X589110Y-12056484D02*
X608158Y-12046960D01*
X608158Y-12046960D02*
X617682Y-12037436D01*
X617682Y-12037436D02*
X636729Y-12008865D01*
X636729Y-12008865D02*
X646253Y-11970769D01*
X646253Y-11970769D02*
X646253Y-11894579D01*
X646253Y-11894579D02*
X636729Y-11875531D01*
X636729Y-11875531D02*
X627205Y-11866008D01*
X627205Y-11866008D02*
X608158Y-11856484D01*
X608158Y-11856484D02*
X570063Y-11856484D01*
X570063Y-11856484D02*
X551015Y-11866008D01*
X551015Y-11866008D02*
X541491Y-11875531D01*
X541491Y-11875531D02*
X531967Y-11894579D01*
X531967Y-11894579D02*
X531967Y-11942198D01*
X531967Y-11942198D02*
X541491Y-11961246D01*
X541491Y-11961246D02*
X551015Y-11970769D01*
X551015Y-11970769D02*
X570063Y-11980293D01*
X570063Y-11980293D02*
X608158Y-11980293D01*
X608158Y-11980293D02*
X627205Y-11970769D01*
X627205Y-11970769D02*
X636729Y-11961246D01*
X636729Y-11961246D02*
X646253Y-11942198D01*
X770062Y-11856484D02*
X789110Y-11856484D01*
X789110Y-11856484D02*
X808158Y-11866008D01*
X808158Y-11866008D02*
X817682Y-11875531D01*
X817682Y-11875531D02*
X827205Y-11894579D01*
X827205Y-11894579D02*
X836729Y-11932674D01*
X836729Y-11932674D02*
X836729Y-11980293D01*
X836729Y-11980293D02*
X827205Y-12018388D01*
X827205Y-12018388D02*
X817682Y-12037436D01*
X817682Y-12037436D02*
X808158Y-12046960D01*
X808158Y-12046960D02*
X789110Y-12056484D01*
X789110Y-12056484D02*
X770062Y-12056484D01*
X770062Y-12056484D02*
X751015Y-12046960D01*
X751015Y-12046960D02*
X741491Y-12037436D01*
X741491Y-12037436D02*
X731967Y-12018388D01*
X731967Y-12018388D02*
X722443Y-11980293D01*
X722443Y-11980293D02*
X722443Y-11932674D01*
X722443Y-11932674D02*
X731967Y-11894579D01*
X731967Y-11894579D02*
X741491Y-11875531D01*
X741491Y-11875531D02*
X751015Y-11866008D01*
X751015Y-11866008D02*
X770062Y-11856484D01*
X960539Y-11856484D02*
X979586Y-11856484D01*
X979586Y-11856484D02*
X998634Y-11866008D01*
X998634Y-11866008D02*
X1008158Y-11875531D01*
X1008158Y-11875531D02*
X1017682Y-11894579D01*
X1017682Y-11894579D02*
X1027205Y-11932674D01*
X1027205Y-11932674D02*
X1027205Y-11980293D01*
X1027205Y-11980293D02*
X1017682Y-12018388D01*
X1017682Y-12018388D02*
X1008158Y-12037436D01*
X1008158Y-12037436D02*
X998634Y-12046960D01*
X998634Y-12046960D02*
X979586Y-12056484D01*
X979586Y-12056484D02*
X960539Y-12056484D01*
X960539Y-12056484D02*
X941491Y-12046960D01*
X941491Y-12046960D02*
X931967Y-12037436D01*
X931967Y-12037436D02*
X922443Y-12018388D01*
X922443Y-12018388D02*
X912920Y-11980293D01*
X912920Y-11980293D02*
X912920Y-11932674D01*
X912920Y-11932674D02*
X922443Y-11894579D01*
X922443Y-11894579D02*
X931967Y-11875531D01*
X931967Y-11875531D02*
X941491Y-11866008D01*
X941491Y-11866008D02*
X960539Y-11856484D01*
X1112920Y-12056484D02*
X1112920Y-11923150D01*
X1112920Y-11942198D02*
X1122444Y-11932674D01*
X1122444Y-11932674D02*
X1141491Y-11923150D01*
X1141491Y-11923150D02*
X1170063Y-11923150D01*
X1170063Y-11923150D02*
X1189110Y-11932674D01*
X1189110Y-11932674D02*
X1198634Y-11951722D01*
X1198634Y-11951722D02*
X1198634Y-12056484D01*
X1198634Y-11951722D02*
X1208158Y-11932674D01*
X1208158Y-11932674D02*
X1227205Y-11923150D01*
X1227205Y-11923150D02*
X1255777Y-11923150D01*
X1255777Y-11923150D02*
X1274825Y-11932674D01*
X1274825Y-11932674D02*
X1284348Y-11951722D01*
X1284348Y-11951722D02*
X1284348Y-12056484D01*
X1379586Y-12056484D02*
X1379586Y-11923150D01*
X1379586Y-11942198D02*
X1389110Y-11932674D01*
X1389110Y-11932674D02*
X1408158Y-11923150D01*
X1408158Y-11923150D02*
X1436729Y-11923150D01*
X1436729Y-11923150D02*
X1455777Y-11932674D01*
X1455777Y-11932674D02*
X1465301Y-11951722D01*
X1465301Y-11951722D02*
X1465301Y-12056484D01*
X1465301Y-11951722D02*
X1474824Y-11932674D01*
X1474824Y-11932674D02*
X1493872Y-11923150D01*
X1493872Y-11923150D02*
X1522443Y-11923150D01*
X1522443Y-11923150D02*
X1541491Y-11932674D01*
X1541491Y-11932674D02*
X1551015Y-11951722D01*
X1551015Y-11951722D02*
X1551015Y-12056484D01*
X1941491Y-11846960D02*
X1770063Y-12104103D01*
X2198634Y-11856484D02*
X2217682Y-11856484D01*
X2217682Y-11856484D02*
X2236729Y-11866008D01*
X2236729Y-11866008D02*
X2246253Y-11875531D01*
X2246253Y-11875531D02*
X2255777Y-11894579D01*
X2255777Y-11894579D02*
X2265301Y-11932674D01*
X2265301Y-11932674D02*
X2265301Y-11980293D01*
X2265301Y-11980293D02*
X2255777Y-12018388D01*
X2255777Y-12018388D02*
X2246253Y-12037436D01*
X2246253Y-12037436D02*
X2236729Y-12046960D01*
X2236729Y-12046960D02*
X2217682Y-12056484D01*
X2217682Y-12056484D02*
X2198634Y-12056484D01*
X2198634Y-12056484D02*
X2179587Y-12046960D01*
X2179587Y-12046960D02*
X2170063Y-12037436D01*
X2170063Y-12037436D02*
X2160539Y-12018388D01*
X2160539Y-12018388D02*
X2151015Y-11980293D01*
X2151015Y-11980293D02*
X2151015Y-11932674D01*
X2151015Y-11932674D02*
X2160539Y-11894579D01*
X2160539Y-11894579D02*
X2170063Y-11875531D01*
X2170063Y-11875531D02*
X2179587Y-11866008D01*
X2179587Y-11866008D02*
X2198634Y-11856484D01*
X2351015Y-12037436D02*
X2360539Y-12046960D01*
X2360539Y-12046960D02*
X2351015Y-12056484D01*
X2351015Y-12056484D02*
X2341491Y-12046960D01*
X2341491Y-12046960D02*
X2351015Y-12037436D01*
X2351015Y-12037436D02*
X2351015Y-12056484D01*
X2484348Y-11856484D02*
X2503396Y-11856484D01*
X2503396Y-11856484D02*
X2522444Y-11866008D01*
X2522444Y-11866008D02*
X2531968Y-11875531D01*
X2531968Y-11875531D02*
X2541491Y-11894579D01*
X2541491Y-11894579D02*
X2551015Y-11932674D01*
X2551015Y-11932674D02*
X2551015Y-11980293D01*
X2551015Y-11980293D02*
X2541491Y-12018388D01*
X2541491Y-12018388D02*
X2531968Y-12037436D01*
X2531968Y-12037436D02*
X2522444Y-12046960D01*
X2522444Y-12046960D02*
X2503396Y-12056484D01*
X2503396Y-12056484D02*
X2484348Y-12056484D01*
X2484348Y-12056484D02*
X2465301Y-12046960D01*
X2465301Y-12046960D02*
X2455777Y-12037436D01*
X2455777Y-12037436D02*
X2446253Y-12018388D01*
X2446253Y-12018388D02*
X2436729Y-11980293D01*
X2436729Y-11980293D02*
X2436729Y-11932674D01*
X2436729Y-11932674D02*
X2446253Y-11894579D01*
X2446253Y-11894579D02*
X2455777Y-11875531D01*
X2455777Y-11875531D02*
X2465301Y-11866008D01*
X2465301Y-11866008D02*
X2484348Y-11856484D01*
X2617682Y-11856484D02*
X2741491Y-11856484D01*
X2741491Y-11856484D02*
X2674825Y-11932674D01*
X2674825Y-11932674D02*
X2703396Y-11932674D01*
X2703396Y-11932674D02*
X2722444Y-11942198D01*
X2722444Y-11942198D02*
X2731968Y-11951722D01*
X2731968Y-11951722D02*
X2741491Y-11970769D01*
X2741491Y-11970769D02*
X2741491Y-12018388D01*
X2741491Y-12018388D02*
X2731968Y-12037436D01*
X2731968Y-12037436D02*
X2722444Y-12046960D01*
X2722444Y-12046960D02*
X2703396Y-12056484D01*
X2703396Y-12056484D02*
X2646253Y-12056484D01*
X2646253Y-12056484D02*
X2627206Y-12046960D01*
X2627206Y-12046960D02*
X2617682Y-12037436D01*
X2922444Y-11856484D02*
X2827206Y-11856484D01*
X2827206Y-11856484D02*
X2817682Y-11951722D01*
X2817682Y-11951722D02*
X2827206Y-11942198D01*
X2827206Y-11942198D02*
X2846253Y-11932674D01*
X2846253Y-11932674D02*
X2893872Y-11932674D01*
X2893872Y-11932674D02*
X2912920Y-11942198D01*
X2912920Y-11942198D02*
X2922444Y-11951722D01*
X2922444Y-11951722D02*
X2931967Y-11970769D01*
X2931967Y-11970769D02*
X2931967Y-12018388D01*
X2931967Y-12018388D02*
X2922444Y-12037436D01*
X2922444Y-12037436D02*
X2912920Y-12046960D01*
X2912920Y-12046960D02*
X2893872Y-12056484D01*
X2893872Y-12056484D02*
X2846253Y-12056484D01*
X2846253Y-12056484D02*
X2827206Y-12046960D01*
X2827206Y-12046960D02*
X2817682Y-12037436D01*
X3103396Y-11923150D02*
X3103396Y-12056484D01*
X3055777Y-11846960D02*
X3008158Y-11989817D01*
X3008158Y-11989817D02*
X3131967Y-11989817D01*
X3198634Y-11856484D02*
X3198634Y-11894579D01*
X3274825Y-11856484D02*
X3274825Y-11894579D01*
X3570063Y-12132674D02*
X3560539Y-12123150D01*
X3560539Y-12123150D02*
X3541491Y-12094579D01*
X3541491Y-12094579D02*
X3531968Y-12075531D01*
X3531968Y-12075531D02*
X3522444Y-12046960D01*
X3522444Y-12046960D02*
X3512920Y-11999341D01*
X3512920Y-11999341D02*
X3512920Y-11961246D01*
X3512920Y-11961246D02*
X3522444Y-11913627D01*
X3522444Y-11913627D02*
X3531968Y-11885055D01*
X3531968Y-11885055D02*
X3541491Y-11866008D01*
X3541491Y-11866008D02*
X3560539Y-11837436D01*
X3560539Y-11837436D02*
X3570063Y-11827912D01*
X3751015Y-12056484D02*
X3636729Y-12056484D01*
X3693872Y-12056484D02*
X3693872Y-11856484D01*
X3693872Y-11856484D02*
X3674825Y-11885055D01*
X3674825Y-11885055D02*
X3655777Y-11904103D01*
X3655777Y-11904103D02*
X3636729Y-11913627D01*
X3874825Y-11856484D02*
X3893872Y-11856484D01*
X3893872Y-11856484D02*
X3912920Y-11866008D01*
X3912920Y-11866008D02*
X3922444Y-11875531D01*
X3922444Y-11875531D02*
X3931968Y-11894579D01*
X3931968Y-11894579D02*
X3941491Y-11932674D01*
X3941491Y-11932674D02*
X3941491Y-11980293D01*
X3941491Y-11980293D02*
X3931968Y-12018388D01*
X3931968Y-12018388D02*
X3922444Y-12037436D01*
X3922444Y-12037436D02*
X3912920Y-12046960D01*
X3912920Y-12046960D02*
X3893872Y-12056484D01*
X3893872Y-12056484D02*
X3874825Y-12056484D01*
X3874825Y-12056484D02*
X3855777Y-12046960D01*
X3855777Y-12046960D02*
X3846253Y-12037436D01*
X3846253Y-12037436D02*
X3836729Y-12018388D01*
X3836729Y-12018388D02*
X3827206Y-11980293D01*
X3827206Y-11980293D02*
X3827206Y-11932674D01*
X3827206Y-11932674D02*
X3836729Y-11894579D01*
X3836729Y-11894579D02*
X3846253Y-11875531D01*
X3846253Y-11875531D02*
X3855777Y-11866008D01*
X3855777Y-11866008D02*
X3874825Y-11856484D01*
X4179587Y-12056484D02*
X4179587Y-11856484D01*
X4265301Y-12056484D02*
X4265301Y-11951722D01*
X4265301Y-11951722D02*
X4255777Y-11932674D01*
X4255777Y-11932674D02*
X4236730Y-11923150D01*
X4236730Y-11923150D02*
X4208158Y-11923150D01*
X4208158Y-11923150D02*
X4189110Y-11932674D01*
X4189110Y-11932674D02*
X4179587Y-11942198D01*
X4389111Y-12056484D02*
X4370063Y-12046960D01*
X4370063Y-12046960D02*
X4360539Y-12037436D01*
X4360539Y-12037436D02*
X4351015Y-12018388D01*
X4351015Y-12018388D02*
X4351015Y-11961246D01*
X4351015Y-11961246D02*
X4360539Y-11942198D01*
X4360539Y-11942198D02*
X4370063Y-11932674D01*
X4370063Y-11932674D02*
X4389111Y-11923150D01*
X4389111Y-11923150D02*
X4417682Y-11923150D01*
X4417682Y-11923150D02*
X4436730Y-11932674D01*
X4436730Y-11932674D02*
X4446253Y-11942198D01*
X4446253Y-11942198D02*
X4455777Y-11961246D01*
X4455777Y-11961246D02*
X4455777Y-12018388D01*
X4455777Y-12018388D02*
X4446253Y-12037436D01*
X4446253Y-12037436D02*
X4436730Y-12046960D01*
X4436730Y-12046960D02*
X4417682Y-12056484D01*
X4417682Y-12056484D02*
X4389111Y-12056484D01*
X4570063Y-12056484D02*
X4551015Y-12046960D01*
X4551015Y-12046960D02*
X4541492Y-12027912D01*
X4541492Y-12027912D02*
X4541492Y-11856484D01*
X4722444Y-12046960D02*
X4703396Y-12056484D01*
X4703396Y-12056484D02*
X4665301Y-12056484D01*
X4665301Y-12056484D02*
X4646253Y-12046960D01*
X4646253Y-12046960D02*
X4636730Y-12027912D01*
X4636730Y-12027912D02*
X4636730Y-11951722D01*
X4636730Y-11951722D02*
X4646253Y-11932674D01*
X4646253Y-11932674D02*
X4665301Y-11923150D01*
X4665301Y-11923150D02*
X4703396Y-11923150D01*
X4703396Y-11923150D02*
X4722444Y-11932674D01*
X4722444Y-11932674D02*
X4731968Y-11951722D01*
X4731968Y-11951722D02*
X4731968Y-11970769D01*
X4731968Y-11970769D02*
X4636730Y-11989817D01*
X4808158Y-12046960D02*
X4827206Y-12056484D01*
X4827206Y-12056484D02*
X4865301Y-12056484D01*
X4865301Y-12056484D02*
X4884349Y-12046960D01*
X4884349Y-12046960D02*
X4893873Y-12027912D01*
X4893873Y-12027912D02*
X4893873Y-12018388D01*
X4893873Y-12018388D02*
X4884349Y-11999341D01*
X4884349Y-11999341D02*
X4865301Y-11989817D01*
X4865301Y-11989817D02*
X4836730Y-11989817D01*
X4836730Y-11989817D02*
X4817682Y-11980293D01*
X4817682Y-11980293D02*
X4808158Y-11961246D01*
X4808158Y-11961246D02*
X4808158Y-11951722D01*
X4808158Y-11951722D02*
X4817682Y-11932674D01*
X4817682Y-11932674D02*
X4836730Y-11923150D01*
X4836730Y-11923150D02*
X4865301Y-11923150D01*
X4865301Y-11923150D02*
X4884349Y-11932674D01*
X4960539Y-12132674D02*
X4970063Y-12123150D01*
X4970063Y-12123150D02*
X4989111Y-12094579D01*
X4989111Y-12094579D02*
X4998634Y-12075531D01*
X4998634Y-12075531D02*
X5008158Y-12046960D01*
X5008158Y-12046960D02*
X5017682Y-11999341D01*
X5017682Y-11999341D02*
X5017682Y-11961246D01*
X5017682Y-11961246D02*
X5008158Y-11913627D01*
X5008158Y-11913627D02*
X4998634Y-11885055D01*
X4998634Y-11885055D02*
X4989111Y-11866008D01*
X4989111Y-11866008D02*
X4970063Y-11837436D01*
X4970063Y-11837436D02*
X4960539Y-11827912D01*
D10*
X-105000Y-12179000D02*
X-5000Y-12279000D01*
X-5000Y-12179000D02*
X-105000Y-12279000D01*
X-55000Y-12179000D02*
X-55000Y-12279000D01*
X-105000Y-12229000D02*
X-5000Y-12229000D01*
D11*
X360539Y-12320484D02*
X246253Y-12320484D01*
X303396Y-12320484D02*
X303396Y-12120484D01*
X303396Y-12120484D02*
X284348Y-12149055D01*
X284348Y-12149055D02*
X265301Y-12168103D01*
X265301Y-12168103D02*
X246253Y-12177627D01*
X446253Y-12301436D02*
X455777Y-12310960D01*
X455777Y-12310960D02*
X446253Y-12320484D01*
X446253Y-12320484D02*
X436729Y-12310960D01*
X436729Y-12310960D02*
X446253Y-12301436D01*
X446253Y-12301436D02*
X446253Y-12320484D01*
X579586Y-12120484D02*
X598634Y-12120484D01*
X598634Y-12120484D02*
X617682Y-12130008D01*
X617682Y-12130008D02*
X627205Y-12139531D01*
X627205Y-12139531D02*
X636729Y-12158579D01*
X636729Y-12158579D02*
X646253Y-12196674D01*
X646253Y-12196674D02*
X646253Y-12244293D01*
X646253Y-12244293D02*
X636729Y-12282388D01*
X636729Y-12282388D02*
X627205Y-12301436D01*
X627205Y-12301436D02*
X617682Y-12310960D01*
X617682Y-12310960D02*
X598634Y-12320484D01*
X598634Y-12320484D02*
X579586Y-12320484D01*
X579586Y-12320484D02*
X560539Y-12310960D01*
X560539Y-12310960D02*
X551015Y-12301436D01*
X551015Y-12301436D02*
X541491Y-12282388D01*
X541491Y-12282388D02*
X531967Y-12244293D01*
X531967Y-12244293D02*
X531967Y-12196674D01*
X531967Y-12196674D02*
X541491Y-12158579D01*
X541491Y-12158579D02*
X551015Y-12139531D01*
X551015Y-12139531D02*
X560539Y-12130008D01*
X560539Y-12130008D02*
X579586Y-12120484D01*
X770062Y-12120484D02*
X789110Y-12120484D01*
X789110Y-12120484D02*
X808158Y-12130008D01*
X808158Y-12130008D02*
X817682Y-12139531D01*
X817682Y-12139531D02*
X827205Y-12158579D01*
X827205Y-12158579D02*
X836729Y-12196674D01*
X836729Y-12196674D02*
X836729Y-12244293D01*
X836729Y-12244293D02*
X827205Y-12282388D01*
X827205Y-12282388D02*
X817682Y-12301436D01*
X817682Y-12301436D02*
X808158Y-12310960D01*
X808158Y-12310960D02*
X789110Y-12320484D01*
X789110Y-12320484D02*
X770062Y-12320484D01*
X770062Y-12320484D02*
X751015Y-12310960D01*
X751015Y-12310960D02*
X741491Y-12301436D01*
X741491Y-12301436D02*
X731967Y-12282388D01*
X731967Y-12282388D02*
X722443Y-12244293D01*
X722443Y-12244293D02*
X722443Y-12196674D01*
X722443Y-12196674D02*
X731967Y-12158579D01*
X731967Y-12158579D02*
X741491Y-12139531D01*
X741491Y-12139531D02*
X751015Y-12130008D01*
X751015Y-12130008D02*
X770062Y-12120484D01*
X960539Y-12120484D02*
X979586Y-12120484D01*
X979586Y-12120484D02*
X998634Y-12130008D01*
X998634Y-12130008D02*
X1008158Y-12139531D01*
X1008158Y-12139531D02*
X1017682Y-12158579D01*
X1017682Y-12158579D02*
X1027205Y-12196674D01*
X1027205Y-12196674D02*
X1027205Y-12244293D01*
X1027205Y-12244293D02*
X1017682Y-12282388D01*
X1017682Y-12282388D02*
X1008158Y-12301436D01*
X1008158Y-12301436D02*
X998634Y-12310960D01*
X998634Y-12310960D02*
X979586Y-12320484D01*
X979586Y-12320484D02*
X960539Y-12320484D01*
X960539Y-12320484D02*
X941491Y-12310960D01*
X941491Y-12310960D02*
X931967Y-12301436D01*
X931967Y-12301436D02*
X922443Y-12282388D01*
X922443Y-12282388D02*
X912920Y-12244293D01*
X912920Y-12244293D02*
X912920Y-12196674D01*
X912920Y-12196674D02*
X922443Y-12158579D01*
X922443Y-12158579D02*
X931967Y-12139531D01*
X931967Y-12139531D02*
X941491Y-12130008D01*
X941491Y-12130008D02*
X960539Y-12120484D01*
X1112920Y-12320484D02*
X1112920Y-12187150D01*
X1112920Y-12206198D02*
X1122444Y-12196674D01*
X1122444Y-12196674D02*
X1141491Y-12187150D01*
X1141491Y-12187150D02*
X1170063Y-12187150D01*
X1170063Y-12187150D02*
X1189110Y-12196674D01*
X1189110Y-12196674D02*
X1198634Y-12215722D01*
X1198634Y-12215722D02*
X1198634Y-12320484D01*
X1198634Y-12215722D02*
X1208158Y-12196674D01*
X1208158Y-12196674D02*
X1227205Y-12187150D01*
X1227205Y-12187150D02*
X1255777Y-12187150D01*
X1255777Y-12187150D02*
X1274825Y-12196674D01*
X1274825Y-12196674D02*
X1284348Y-12215722D01*
X1284348Y-12215722D02*
X1284348Y-12320484D01*
X1379586Y-12320484D02*
X1379586Y-12187150D01*
X1379586Y-12206198D02*
X1389110Y-12196674D01*
X1389110Y-12196674D02*
X1408158Y-12187150D01*
X1408158Y-12187150D02*
X1436729Y-12187150D01*
X1436729Y-12187150D02*
X1455777Y-12196674D01*
X1455777Y-12196674D02*
X1465301Y-12215722D01*
X1465301Y-12215722D02*
X1465301Y-12320484D01*
X1465301Y-12215722D02*
X1474824Y-12196674D01*
X1474824Y-12196674D02*
X1493872Y-12187150D01*
X1493872Y-12187150D02*
X1522443Y-12187150D01*
X1522443Y-12187150D02*
X1541491Y-12196674D01*
X1541491Y-12196674D02*
X1551015Y-12215722D01*
X1551015Y-12215722D02*
X1551015Y-12320484D01*
X1941491Y-12110960D02*
X1770063Y-12368103D01*
X2198634Y-12120484D02*
X2217682Y-12120484D01*
X2217682Y-12120484D02*
X2236729Y-12130008D01*
X2236729Y-12130008D02*
X2246253Y-12139531D01*
X2246253Y-12139531D02*
X2255777Y-12158579D01*
X2255777Y-12158579D02*
X2265301Y-12196674D01*
X2265301Y-12196674D02*
X2265301Y-12244293D01*
X2265301Y-12244293D02*
X2255777Y-12282388D01*
X2255777Y-12282388D02*
X2246253Y-12301436D01*
X2246253Y-12301436D02*
X2236729Y-12310960D01*
X2236729Y-12310960D02*
X2217682Y-12320484D01*
X2217682Y-12320484D02*
X2198634Y-12320484D01*
X2198634Y-12320484D02*
X2179587Y-12310960D01*
X2179587Y-12310960D02*
X2170063Y-12301436D01*
X2170063Y-12301436D02*
X2160539Y-12282388D01*
X2160539Y-12282388D02*
X2151015Y-12244293D01*
X2151015Y-12244293D02*
X2151015Y-12196674D01*
X2151015Y-12196674D02*
X2160539Y-12158579D01*
X2160539Y-12158579D02*
X2170063Y-12139531D01*
X2170063Y-12139531D02*
X2179587Y-12130008D01*
X2179587Y-12130008D02*
X2198634Y-12120484D01*
X2351015Y-12301436D02*
X2360539Y-12310960D01*
X2360539Y-12310960D02*
X2351015Y-12320484D01*
X2351015Y-12320484D02*
X2341491Y-12310960D01*
X2341491Y-12310960D02*
X2351015Y-12301436D01*
X2351015Y-12301436D02*
X2351015Y-12320484D01*
X2484348Y-12120484D02*
X2503396Y-12120484D01*
X2503396Y-12120484D02*
X2522444Y-12130008D01*
X2522444Y-12130008D02*
X2531968Y-12139531D01*
X2531968Y-12139531D02*
X2541491Y-12158579D01*
X2541491Y-12158579D02*
X2551015Y-12196674D01*
X2551015Y-12196674D02*
X2551015Y-12244293D01*
X2551015Y-12244293D02*
X2541491Y-12282388D01*
X2541491Y-12282388D02*
X2531968Y-12301436D01*
X2531968Y-12301436D02*
X2522444Y-12310960D01*
X2522444Y-12310960D02*
X2503396Y-12320484D01*
X2503396Y-12320484D02*
X2484348Y-12320484D01*
X2484348Y-12320484D02*
X2465301Y-12310960D01*
X2465301Y-12310960D02*
X2455777Y-12301436D01*
X2455777Y-12301436D02*
X2446253Y-12282388D01*
X2446253Y-12282388D02*
X2436729Y-12244293D01*
X2436729Y-12244293D02*
X2436729Y-12196674D01*
X2436729Y-12196674D02*
X2446253Y-12158579D01*
X2446253Y-12158579D02*
X2455777Y-12139531D01*
X2455777Y-12139531D02*
X2465301Y-12130008D01*
X2465301Y-12130008D02*
X2484348Y-12120484D01*
X2617682Y-12120484D02*
X2741491Y-12120484D01*
X2741491Y-12120484D02*
X2674825Y-12196674D01*
X2674825Y-12196674D02*
X2703396Y-12196674D01*
X2703396Y-12196674D02*
X2722444Y-12206198D01*
X2722444Y-12206198D02*
X2731968Y-12215722D01*
X2731968Y-12215722D02*
X2741491Y-12234769D01*
X2741491Y-12234769D02*
X2741491Y-12282388D01*
X2741491Y-12282388D02*
X2731968Y-12301436D01*
X2731968Y-12301436D02*
X2722444Y-12310960D01*
X2722444Y-12310960D02*
X2703396Y-12320484D01*
X2703396Y-12320484D02*
X2646253Y-12320484D01*
X2646253Y-12320484D02*
X2627206Y-12310960D01*
X2627206Y-12310960D02*
X2617682Y-12301436D01*
X2836729Y-12320484D02*
X2874825Y-12320484D01*
X2874825Y-12320484D02*
X2893872Y-12310960D01*
X2893872Y-12310960D02*
X2903396Y-12301436D01*
X2903396Y-12301436D02*
X2922444Y-12272865D01*
X2922444Y-12272865D02*
X2931967Y-12234769D01*
X2931967Y-12234769D02*
X2931967Y-12158579D01*
X2931967Y-12158579D02*
X2922444Y-12139531D01*
X2922444Y-12139531D02*
X2912920Y-12130008D01*
X2912920Y-12130008D02*
X2893872Y-12120484D01*
X2893872Y-12120484D02*
X2855777Y-12120484D01*
X2855777Y-12120484D02*
X2836729Y-12130008D01*
X2836729Y-12130008D02*
X2827206Y-12139531D01*
X2827206Y-12139531D02*
X2817682Y-12158579D01*
X2817682Y-12158579D02*
X2817682Y-12206198D01*
X2817682Y-12206198D02*
X2827206Y-12225246D01*
X2827206Y-12225246D02*
X2836729Y-12234769D01*
X2836729Y-12234769D02*
X2855777Y-12244293D01*
X2855777Y-12244293D02*
X2893872Y-12244293D01*
X2893872Y-12244293D02*
X2912920Y-12234769D01*
X2912920Y-12234769D02*
X2922444Y-12225246D01*
X2922444Y-12225246D02*
X2931967Y-12206198D01*
X3103396Y-12187150D02*
X3103396Y-12320484D01*
X3055777Y-12110960D02*
X3008158Y-12253817D01*
X3008158Y-12253817D02*
X3131967Y-12253817D01*
X3198634Y-12120484D02*
X3198634Y-12158579D01*
X3274825Y-12120484D02*
X3274825Y-12158579D01*
X3570063Y-12396674D02*
X3560539Y-12387150D01*
X3560539Y-12387150D02*
X3541491Y-12358579D01*
X3541491Y-12358579D02*
X3531968Y-12339531D01*
X3531968Y-12339531D02*
X3522444Y-12310960D01*
X3522444Y-12310960D02*
X3512920Y-12263341D01*
X3512920Y-12263341D02*
X3512920Y-12225246D01*
X3512920Y-12225246D02*
X3522444Y-12177627D01*
X3522444Y-12177627D02*
X3531968Y-12149055D01*
X3531968Y-12149055D02*
X3541491Y-12130008D01*
X3541491Y-12130008D02*
X3560539Y-12101436D01*
X3560539Y-12101436D02*
X3570063Y-12091912D01*
X3627206Y-12120484D02*
X3751015Y-12120484D01*
X3751015Y-12120484D02*
X3684348Y-12196674D01*
X3684348Y-12196674D02*
X3712920Y-12196674D01*
X3712920Y-12196674D02*
X3731968Y-12206198D01*
X3731968Y-12206198D02*
X3741491Y-12215722D01*
X3741491Y-12215722D02*
X3751015Y-12234769D01*
X3751015Y-12234769D02*
X3751015Y-12282388D01*
X3751015Y-12282388D02*
X3741491Y-12301436D01*
X3741491Y-12301436D02*
X3731968Y-12310960D01*
X3731968Y-12310960D02*
X3712920Y-12320484D01*
X3712920Y-12320484D02*
X3655777Y-12320484D01*
X3655777Y-12320484D02*
X3636729Y-12310960D01*
X3636729Y-12310960D02*
X3627206Y-12301436D01*
X3827206Y-12139531D02*
X3836729Y-12130008D01*
X3836729Y-12130008D02*
X3855777Y-12120484D01*
X3855777Y-12120484D02*
X3903396Y-12120484D01*
X3903396Y-12120484D02*
X3922444Y-12130008D01*
X3922444Y-12130008D02*
X3931968Y-12139531D01*
X3931968Y-12139531D02*
X3941491Y-12158579D01*
X3941491Y-12158579D02*
X3941491Y-12177627D01*
X3941491Y-12177627D02*
X3931968Y-12206198D01*
X3931968Y-12206198D02*
X3817682Y-12320484D01*
X3817682Y-12320484D02*
X3941491Y-12320484D01*
X4179587Y-12320484D02*
X4179587Y-12120484D01*
X4265301Y-12320484D02*
X4265301Y-12215722D01*
X4265301Y-12215722D02*
X4255777Y-12196674D01*
X4255777Y-12196674D02*
X4236730Y-12187150D01*
X4236730Y-12187150D02*
X4208158Y-12187150D01*
X4208158Y-12187150D02*
X4189110Y-12196674D01*
X4189110Y-12196674D02*
X4179587Y-12206198D01*
X4389111Y-12320484D02*
X4370063Y-12310960D01*
X4370063Y-12310960D02*
X4360539Y-12301436D01*
X4360539Y-12301436D02*
X4351015Y-12282388D01*
X4351015Y-12282388D02*
X4351015Y-12225246D01*
X4351015Y-12225246D02*
X4360539Y-12206198D01*
X4360539Y-12206198D02*
X4370063Y-12196674D01*
X4370063Y-12196674D02*
X4389111Y-12187150D01*
X4389111Y-12187150D02*
X4417682Y-12187150D01*
X4417682Y-12187150D02*
X4436730Y-12196674D01*
X4436730Y-12196674D02*
X4446253Y-12206198D01*
X4446253Y-12206198D02*
X4455777Y-12225246D01*
X4455777Y-12225246D02*
X4455777Y-12282388D01*
X4455777Y-12282388D02*
X4446253Y-12301436D01*
X4446253Y-12301436D02*
X4436730Y-12310960D01*
X4436730Y-12310960D02*
X4417682Y-12320484D01*
X4417682Y-12320484D02*
X4389111Y-12320484D01*
X4570063Y-12320484D02*
X4551015Y-12310960D01*
X4551015Y-12310960D02*
X4541492Y-12291912D01*
X4541492Y-12291912D02*
X4541492Y-12120484D01*
X4722444Y-12310960D02*
X4703396Y-12320484D01*
X4703396Y-12320484D02*
X4665301Y-12320484D01*
X4665301Y-12320484D02*
X4646253Y-12310960D01*
X4646253Y-12310960D02*
X4636730Y-12291912D01*
X4636730Y-12291912D02*
X4636730Y-12215722D01*
X4636730Y-12215722D02*
X4646253Y-12196674D01*
X4646253Y-12196674D02*
X4665301Y-12187150D01*
X4665301Y-12187150D02*
X4703396Y-12187150D01*
X4703396Y-12187150D02*
X4722444Y-12196674D01*
X4722444Y-12196674D02*
X4731968Y-12215722D01*
X4731968Y-12215722D02*
X4731968Y-12234769D01*
X4731968Y-12234769D02*
X4636730Y-12253817D01*
X4808158Y-12310960D02*
X4827206Y-12320484D01*
X4827206Y-12320484D02*
X4865301Y-12320484D01*
X4865301Y-12320484D02*
X4884349Y-12310960D01*
X4884349Y-12310960D02*
X4893873Y-12291912D01*
X4893873Y-12291912D02*
X4893873Y-12282388D01*
X4893873Y-12282388D02*
X4884349Y-12263341D01*
X4884349Y-12263341D02*
X4865301Y-12253817D01*
X4865301Y-12253817D02*
X4836730Y-12253817D01*
X4836730Y-12253817D02*
X4817682Y-12244293D01*
X4817682Y-12244293D02*
X4808158Y-12225246D01*
X4808158Y-12225246D02*
X4808158Y-12215722D01*
X4808158Y-12215722D02*
X4817682Y-12196674D01*
X4817682Y-12196674D02*
X4836730Y-12187150D01*
X4836730Y-12187150D02*
X4865301Y-12187150D01*
X4865301Y-12187150D02*
X4884349Y-12196674D01*
X4960539Y-12396674D02*
X4970063Y-12387150D01*
X4970063Y-12387150D02*
X4989111Y-12358579D01*
X4989111Y-12358579D02*
X4998634Y-12339531D01*
X4998634Y-12339531D02*
X5008158Y-12310960D01*
X5008158Y-12310960D02*
X5017682Y-12263341D01*
X5017682Y-12263341D02*
X5017682Y-12225246D01*
X5017682Y-12225246D02*
X5008158Y-12177627D01*
X5008158Y-12177627D02*
X4998634Y-12149055D01*
X4998634Y-12149055D02*
X4989111Y-12130008D01*
X4989111Y-12130008D02*
X4970063Y-12101436D01*
X4970063Y-12101436D02*
X4960539Y-12091912D01*
D12*
X-115000Y-12438000D02*
X-5000Y-12548000D01*
X-5000Y-12438000D02*
X-115000Y-12548000D01*
X-21109Y-12531891D02*
X-21109Y-12454109D01*
X-98891Y-12454109D01*
X-98891Y-12531891D01*
X-21109Y-12531891D01*
D11*
X360539Y-12584484D02*
X246253Y-12584484D01*
X303396Y-12584484D02*
X303396Y-12384484D01*
X303396Y-12384484D02*
X284348Y-12413055D01*
X284348Y-12413055D02*
X265301Y-12432103D01*
X265301Y-12432103D02*
X246253Y-12441627D01*
X446253Y-12565436D02*
X455777Y-12574960D01*
X455777Y-12574960D02*
X446253Y-12584484D01*
X446253Y-12584484D02*
X436729Y-12574960D01*
X436729Y-12574960D02*
X446253Y-12565436D01*
X446253Y-12565436D02*
X446253Y-12584484D01*
X646253Y-12584484D02*
X531967Y-12584484D01*
X589110Y-12584484D02*
X589110Y-12384484D01*
X589110Y-12384484D02*
X570063Y-12413055D01*
X570063Y-12413055D02*
X551015Y-12432103D01*
X551015Y-12432103D02*
X531967Y-12441627D01*
X770062Y-12384484D02*
X789110Y-12384484D01*
X789110Y-12384484D02*
X808158Y-12394008D01*
X808158Y-12394008D02*
X817682Y-12403531D01*
X817682Y-12403531D02*
X827205Y-12422579D01*
X827205Y-12422579D02*
X836729Y-12460674D01*
X836729Y-12460674D02*
X836729Y-12508293D01*
X836729Y-12508293D02*
X827205Y-12546388D01*
X827205Y-12546388D02*
X817682Y-12565436D01*
X817682Y-12565436D02*
X808158Y-12574960D01*
X808158Y-12574960D02*
X789110Y-12584484D01*
X789110Y-12584484D02*
X770062Y-12584484D01*
X770062Y-12584484D02*
X751015Y-12574960D01*
X751015Y-12574960D02*
X741491Y-12565436D01*
X741491Y-12565436D02*
X731967Y-12546388D01*
X731967Y-12546388D02*
X722443Y-12508293D01*
X722443Y-12508293D02*
X722443Y-12460674D01*
X722443Y-12460674D02*
X731967Y-12422579D01*
X731967Y-12422579D02*
X741491Y-12403531D01*
X741491Y-12403531D02*
X751015Y-12394008D01*
X751015Y-12394008D02*
X770062Y-12384484D01*
X960539Y-12384484D02*
X979586Y-12384484D01*
X979586Y-12384484D02*
X998634Y-12394008D01*
X998634Y-12394008D02*
X1008158Y-12403531D01*
X1008158Y-12403531D02*
X1017682Y-12422579D01*
X1017682Y-12422579D02*
X1027205Y-12460674D01*
X1027205Y-12460674D02*
X1027205Y-12508293D01*
X1027205Y-12508293D02*
X1017682Y-12546388D01*
X1017682Y-12546388D02*
X1008158Y-12565436D01*
X1008158Y-12565436D02*
X998634Y-12574960D01*
X998634Y-12574960D02*
X979586Y-12584484D01*
X979586Y-12584484D02*
X960539Y-12584484D01*
X960539Y-12584484D02*
X941491Y-12574960D01*
X941491Y-12574960D02*
X931967Y-12565436D01*
X931967Y-12565436D02*
X922443Y-12546388D01*
X922443Y-12546388D02*
X912920Y-12508293D01*
X912920Y-12508293D02*
X912920Y-12460674D01*
X912920Y-12460674D02*
X922443Y-12422579D01*
X922443Y-12422579D02*
X931967Y-12403531D01*
X931967Y-12403531D02*
X941491Y-12394008D01*
X941491Y-12394008D02*
X960539Y-12384484D01*
X1112920Y-12584484D02*
X1112920Y-12451150D01*
X1112920Y-12470198D02*
X1122444Y-12460674D01*
X1122444Y-12460674D02*
X1141491Y-12451150D01*
X1141491Y-12451150D02*
X1170063Y-12451150D01*
X1170063Y-12451150D02*
X1189110Y-12460674D01*
X1189110Y-12460674D02*
X1198634Y-12479722D01*
X1198634Y-12479722D02*
X1198634Y-12584484D01*
X1198634Y-12479722D02*
X1208158Y-12460674D01*
X1208158Y-12460674D02*
X1227205Y-12451150D01*
X1227205Y-12451150D02*
X1255777Y-12451150D01*
X1255777Y-12451150D02*
X1274825Y-12460674D01*
X1274825Y-12460674D02*
X1284348Y-12479722D01*
X1284348Y-12479722D02*
X1284348Y-12584484D01*
X1379586Y-12584484D02*
X1379586Y-12451150D01*
X1379586Y-12470198D02*
X1389110Y-12460674D01*
X1389110Y-12460674D02*
X1408158Y-12451150D01*
X1408158Y-12451150D02*
X1436729Y-12451150D01*
X1436729Y-12451150D02*
X1455777Y-12460674D01*
X1455777Y-12460674D02*
X1465301Y-12479722D01*
X1465301Y-12479722D02*
X1465301Y-12584484D01*
X1465301Y-12479722D02*
X1474824Y-12460674D01*
X1474824Y-12460674D02*
X1493872Y-12451150D01*
X1493872Y-12451150D02*
X1522443Y-12451150D01*
X1522443Y-12451150D02*
X1541491Y-12460674D01*
X1541491Y-12460674D02*
X1551015Y-12479722D01*
X1551015Y-12479722D02*
X1551015Y-12584484D01*
X1941491Y-12374960D02*
X1770063Y-12632103D01*
X2198634Y-12384484D02*
X2217682Y-12384484D01*
X2217682Y-12384484D02*
X2236729Y-12394008D01*
X2236729Y-12394008D02*
X2246253Y-12403531D01*
X2246253Y-12403531D02*
X2255777Y-12422579D01*
X2255777Y-12422579D02*
X2265301Y-12460674D01*
X2265301Y-12460674D02*
X2265301Y-12508293D01*
X2265301Y-12508293D02*
X2255777Y-12546388D01*
X2255777Y-12546388D02*
X2246253Y-12565436D01*
X2246253Y-12565436D02*
X2236729Y-12574960D01*
X2236729Y-12574960D02*
X2217682Y-12584484D01*
X2217682Y-12584484D02*
X2198634Y-12584484D01*
X2198634Y-12584484D02*
X2179587Y-12574960D01*
X2179587Y-12574960D02*
X2170063Y-12565436D01*
X2170063Y-12565436D02*
X2160539Y-12546388D01*
X2160539Y-12546388D02*
X2151015Y-12508293D01*
X2151015Y-12508293D02*
X2151015Y-12460674D01*
X2151015Y-12460674D02*
X2160539Y-12422579D01*
X2160539Y-12422579D02*
X2170063Y-12403531D01*
X2170063Y-12403531D02*
X2179587Y-12394008D01*
X2179587Y-12394008D02*
X2198634Y-12384484D01*
X2351015Y-12565436D02*
X2360539Y-12574960D01*
X2360539Y-12574960D02*
X2351015Y-12584484D01*
X2351015Y-12584484D02*
X2341491Y-12574960D01*
X2341491Y-12574960D02*
X2351015Y-12565436D01*
X2351015Y-12565436D02*
X2351015Y-12584484D01*
X2484348Y-12384484D02*
X2503396Y-12384484D01*
X2503396Y-12384484D02*
X2522444Y-12394008D01*
X2522444Y-12394008D02*
X2531968Y-12403531D01*
X2531968Y-12403531D02*
X2541491Y-12422579D01*
X2541491Y-12422579D02*
X2551015Y-12460674D01*
X2551015Y-12460674D02*
X2551015Y-12508293D01*
X2551015Y-12508293D02*
X2541491Y-12546388D01*
X2541491Y-12546388D02*
X2531968Y-12565436D01*
X2531968Y-12565436D02*
X2522444Y-12574960D01*
X2522444Y-12574960D02*
X2503396Y-12584484D01*
X2503396Y-12584484D02*
X2484348Y-12584484D01*
X2484348Y-12584484D02*
X2465301Y-12574960D01*
X2465301Y-12574960D02*
X2455777Y-12565436D01*
X2455777Y-12565436D02*
X2446253Y-12546388D01*
X2446253Y-12546388D02*
X2436729Y-12508293D01*
X2436729Y-12508293D02*
X2436729Y-12460674D01*
X2436729Y-12460674D02*
X2446253Y-12422579D01*
X2446253Y-12422579D02*
X2455777Y-12403531D01*
X2455777Y-12403531D02*
X2465301Y-12394008D01*
X2465301Y-12394008D02*
X2484348Y-12384484D01*
X2722444Y-12451150D02*
X2722444Y-12584484D01*
X2674825Y-12374960D02*
X2627206Y-12517817D01*
X2627206Y-12517817D02*
X2751015Y-12517817D01*
X2808158Y-12384484D02*
X2931967Y-12384484D01*
X2931967Y-12384484D02*
X2865301Y-12460674D01*
X2865301Y-12460674D02*
X2893872Y-12460674D01*
X2893872Y-12460674D02*
X2912920Y-12470198D01*
X2912920Y-12470198D02*
X2922444Y-12479722D01*
X2922444Y-12479722D02*
X2931967Y-12498769D01*
X2931967Y-12498769D02*
X2931967Y-12546388D01*
X2931967Y-12546388D02*
X2922444Y-12565436D01*
X2922444Y-12565436D02*
X2912920Y-12574960D01*
X2912920Y-12574960D02*
X2893872Y-12584484D01*
X2893872Y-12584484D02*
X2836729Y-12584484D01*
X2836729Y-12584484D02*
X2817682Y-12574960D01*
X2817682Y-12574960D02*
X2808158Y-12565436D01*
X2998634Y-12384484D02*
X3122444Y-12384484D01*
X3122444Y-12384484D02*
X3055777Y-12460674D01*
X3055777Y-12460674D02*
X3084348Y-12460674D01*
X3084348Y-12460674D02*
X3103396Y-12470198D01*
X3103396Y-12470198D02*
X3112920Y-12479722D01*
X3112920Y-12479722D02*
X3122444Y-12498769D01*
X3122444Y-12498769D02*
X3122444Y-12546388D01*
X3122444Y-12546388D02*
X3112920Y-12565436D01*
X3112920Y-12565436D02*
X3103396Y-12574960D01*
X3103396Y-12574960D02*
X3084348Y-12584484D01*
X3084348Y-12584484D02*
X3027206Y-12584484D01*
X3027206Y-12584484D02*
X3008158Y-12574960D01*
X3008158Y-12574960D02*
X2998634Y-12565436D01*
X3198634Y-12384484D02*
X3198634Y-12422579D01*
X3274825Y-12384484D02*
X3274825Y-12422579D01*
X3570063Y-12660674D02*
X3560539Y-12651150D01*
X3560539Y-12651150D02*
X3541491Y-12622579D01*
X3541491Y-12622579D02*
X3531968Y-12603531D01*
X3531968Y-12603531D02*
X3522444Y-12574960D01*
X3522444Y-12574960D02*
X3512920Y-12527341D01*
X3512920Y-12527341D02*
X3512920Y-12489246D01*
X3512920Y-12489246D02*
X3522444Y-12441627D01*
X3522444Y-12441627D02*
X3531968Y-12413055D01*
X3531968Y-12413055D02*
X3541491Y-12394008D01*
X3541491Y-12394008D02*
X3560539Y-12365436D01*
X3560539Y-12365436D02*
X3570063Y-12355912D01*
X3636729Y-12403531D02*
X3646253Y-12394008D01*
X3646253Y-12394008D02*
X3665301Y-12384484D01*
X3665301Y-12384484D02*
X3712920Y-12384484D01*
X3712920Y-12384484D02*
X3731968Y-12394008D01*
X3731968Y-12394008D02*
X3741491Y-12403531D01*
X3741491Y-12403531D02*
X3751015Y-12422579D01*
X3751015Y-12422579D02*
X3751015Y-12441627D01*
X3751015Y-12441627D02*
X3741491Y-12470198D01*
X3741491Y-12470198D02*
X3627206Y-12584484D01*
X3627206Y-12584484D02*
X3751015Y-12584484D01*
X3922444Y-12451150D02*
X3922444Y-12584484D01*
X3874825Y-12374960D02*
X3827206Y-12517817D01*
X3827206Y-12517817D02*
X3951015Y-12517817D01*
X4179587Y-12584484D02*
X4179587Y-12384484D01*
X4265301Y-12584484D02*
X4265301Y-12479722D01*
X4265301Y-12479722D02*
X4255777Y-12460674D01*
X4255777Y-12460674D02*
X4236730Y-12451150D01*
X4236730Y-12451150D02*
X4208158Y-12451150D01*
X4208158Y-12451150D02*
X4189110Y-12460674D01*
X4189110Y-12460674D02*
X4179587Y-12470198D01*
X4389111Y-12584484D02*
X4370063Y-12574960D01*
X4370063Y-12574960D02*
X4360539Y-12565436D01*
X4360539Y-12565436D02*
X4351015Y-12546388D01*
X4351015Y-12546388D02*
X4351015Y-12489246D01*
X4351015Y-12489246D02*
X4360539Y-12470198D01*
X4360539Y-12470198D02*
X4370063Y-12460674D01*
X4370063Y-12460674D02*
X4389111Y-12451150D01*
X4389111Y-12451150D02*
X4417682Y-12451150D01*
X4417682Y-12451150D02*
X4436730Y-12460674D01*
X4436730Y-12460674D02*
X4446253Y-12470198D01*
X4446253Y-12470198D02*
X4455777Y-12489246D01*
X4455777Y-12489246D02*
X4455777Y-12546388D01*
X4455777Y-12546388D02*
X4446253Y-12565436D01*
X4446253Y-12565436D02*
X4436730Y-12574960D01*
X4436730Y-12574960D02*
X4417682Y-12584484D01*
X4417682Y-12584484D02*
X4389111Y-12584484D01*
X4570063Y-12584484D02*
X4551015Y-12574960D01*
X4551015Y-12574960D02*
X4541492Y-12555912D01*
X4541492Y-12555912D02*
X4541492Y-12384484D01*
X4722444Y-12574960D02*
X4703396Y-12584484D01*
X4703396Y-12584484D02*
X4665301Y-12584484D01*
X4665301Y-12584484D02*
X4646253Y-12574960D01*
X4646253Y-12574960D02*
X4636730Y-12555912D01*
X4636730Y-12555912D02*
X4636730Y-12479722D01*
X4636730Y-12479722D02*
X4646253Y-12460674D01*
X4646253Y-12460674D02*
X4665301Y-12451150D01*
X4665301Y-12451150D02*
X4703396Y-12451150D01*
X4703396Y-12451150D02*
X4722444Y-12460674D01*
X4722444Y-12460674D02*
X4731968Y-12479722D01*
X4731968Y-12479722D02*
X4731968Y-12498769D01*
X4731968Y-12498769D02*
X4636730Y-12517817D01*
X4808158Y-12574960D02*
X4827206Y-12584484D01*
X4827206Y-12584484D02*
X4865301Y-12584484D01*
X4865301Y-12584484D02*
X4884349Y-12574960D01*
X4884349Y-12574960D02*
X4893873Y-12555912D01*
X4893873Y-12555912D02*
X4893873Y-12546388D01*
X4893873Y-12546388D02*
X4884349Y-12527341D01*
X4884349Y-12527341D02*
X4865301Y-12517817D01*
X4865301Y-12517817D02*
X4836730Y-12517817D01*
X4836730Y-12517817D02*
X4817682Y-12508293D01*
X4817682Y-12508293D02*
X4808158Y-12489246D01*
X4808158Y-12489246D02*
X4808158Y-12479722D01*
X4808158Y-12479722D02*
X4817682Y-12460674D01*
X4817682Y-12460674D02*
X4836730Y-12451150D01*
X4836730Y-12451150D02*
X4865301Y-12451150D01*
X4865301Y-12451150D02*
X4884349Y-12460674D01*
X4960539Y-12660674D02*
X4970063Y-12651150D01*
X4970063Y-12651150D02*
X4989111Y-12622579D01*
X4989111Y-12622579D02*
X4998634Y-12603531D01*
X4998634Y-12603531D02*
X5008158Y-12574960D01*
X5008158Y-12574960D02*
X5017682Y-12527341D01*
X5017682Y-12527341D02*
X5017682Y-12489246D01*
X5017682Y-12489246D02*
X5008158Y-12441627D01*
X5008158Y-12441627D02*
X4998634Y-12413055D01*
X4998634Y-12413055D02*
X4989111Y-12394008D01*
X4989111Y-12394008D02*
X4970063Y-12365436D01*
X4970063Y-12365436D02*
X4960539Y-12355912D01*
D13*
X-135000Y-12692000D02*
X-5000Y-12822000D01*
X-5000Y-12692000D02*
X-135000Y-12822000D01*
X-70000Y-12822000D02*
X-5000Y-12757000D01*
X-70000Y-12692000D01*
X-135000Y-12757000D01*
X-70000Y-12822000D01*
D11*
X360539Y-12848484D02*
X246253Y-12848484D01*
X303396Y-12848484D02*
X303396Y-12648484D01*
X303396Y-12648484D02*
X284348Y-12677055D01*
X284348Y-12677055D02*
X265301Y-12696103D01*
X265301Y-12696103D02*
X246253Y-12705627D01*
X446253Y-12829436D02*
X455777Y-12838960D01*
X455777Y-12838960D02*
X446253Y-12848484D01*
X446253Y-12848484D02*
X436729Y-12838960D01*
X436729Y-12838960D02*
X446253Y-12829436D01*
X446253Y-12829436D02*
X446253Y-12848484D01*
X522443Y-12648484D02*
X646253Y-12648484D01*
X646253Y-12648484D02*
X579586Y-12724674D01*
X579586Y-12724674D02*
X608158Y-12724674D01*
X608158Y-12724674D02*
X627205Y-12734198D01*
X627205Y-12734198D02*
X636729Y-12743722D01*
X636729Y-12743722D02*
X646253Y-12762769D01*
X646253Y-12762769D02*
X646253Y-12810388D01*
X646253Y-12810388D02*
X636729Y-12829436D01*
X636729Y-12829436D02*
X627205Y-12838960D01*
X627205Y-12838960D02*
X608158Y-12848484D01*
X608158Y-12848484D02*
X551015Y-12848484D01*
X551015Y-12848484D02*
X531967Y-12838960D01*
X531967Y-12838960D02*
X522443Y-12829436D01*
X770062Y-12648484D02*
X789110Y-12648484D01*
X789110Y-12648484D02*
X808158Y-12658008D01*
X808158Y-12658008D02*
X817682Y-12667531D01*
X817682Y-12667531D02*
X827205Y-12686579D01*
X827205Y-12686579D02*
X836729Y-12724674D01*
X836729Y-12724674D02*
X836729Y-12772293D01*
X836729Y-12772293D02*
X827205Y-12810388D01*
X827205Y-12810388D02*
X817682Y-12829436D01*
X817682Y-12829436D02*
X808158Y-12838960D01*
X808158Y-12838960D02*
X789110Y-12848484D01*
X789110Y-12848484D02*
X770062Y-12848484D01*
X770062Y-12848484D02*
X751015Y-12838960D01*
X751015Y-12838960D02*
X741491Y-12829436D01*
X741491Y-12829436D02*
X731967Y-12810388D01*
X731967Y-12810388D02*
X722443Y-12772293D01*
X722443Y-12772293D02*
X722443Y-12724674D01*
X722443Y-12724674D02*
X731967Y-12686579D01*
X731967Y-12686579D02*
X741491Y-12667531D01*
X741491Y-12667531D02*
X751015Y-12658008D01*
X751015Y-12658008D02*
X770062Y-12648484D01*
X960539Y-12648484D02*
X979586Y-12648484D01*
X979586Y-12648484D02*
X998634Y-12658008D01*
X998634Y-12658008D02*
X1008158Y-12667531D01*
X1008158Y-12667531D02*
X1017682Y-12686579D01*
X1017682Y-12686579D02*
X1027205Y-12724674D01*
X1027205Y-12724674D02*
X1027205Y-12772293D01*
X1027205Y-12772293D02*
X1017682Y-12810388D01*
X1017682Y-12810388D02*
X1008158Y-12829436D01*
X1008158Y-12829436D02*
X998634Y-12838960D01*
X998634Y-12838960D02*
X979586Y-12848484D01*
X979586Y-12848484D02*
X960539Y-12848484D01*
X960539Y-12848484D02*
X941491Y-12838960D01*
X941491Y-12838960D02*
X931967Y-12829436D01*
X931967Y-12829436D02*
X922443Y-12810388D01*
X922443Y-12810388D02*
X912920Y-12772293D01*
X912920Y-12772293D02*
X912920Y-12724674D01*
X912920Y-12724674D02*
X922443Y-12686579D01*
X922443Y-12686579D02*
X931967Y-12667531D01*
X931967Y-12667531D02*
X941491Y-12658008D01*
X941491Y-12658008D02*
X960539Y-12648484D01*
X1112920Y-12848484D02*
X1112920Y-12715150D01*
X1112920Y-12734198D02*
X1122444Y-12724674D01*
X1122444Y-12724674D02*
X1141491Y-12715150D01*
X1141491Y-12715150D02*
X1170063Y-12715150D01*
X1170063Y-12715150D02*
X1189110Y-12724674D01*
X1189110Y-12724674D02*
X1198634Y-12743722D01*
X1198634Y-12743722D02*
X1198634Y-12848484D01*
X1198634Y-12743722D02*
X1208158Y-12724674D01*
X1208158Y-12724674D02*
X1227205Y-12715150D01*
X1227205Y-12715150D02*
X1255777Y-12715150D01*
X1255777Y-12715150D02*
X1274825Y-12724674D01*
X1274825Y-12724674D02*
X1284348Y-12743722D01*
X1284348Y-12743722D02*
X1284348Y-12848484D01*
X1379586Y-12848484D02*
X1379586Y-12715150D01*
X1379586Y-12734198D02*
X1389110Y-12724674D01*
X1389110Y-12724674D02*
X1408158Y-12715150D01*
X1408158Y-12715150D02*
X1436729Y-12715150D01*
X1436729Y-12715150D02*
X1455777Y-12724674D01*
X1455777Y-12724674D02*
X1465301Y-12743722D01*
X1465301Y-12743722D02*
X1465301Y-12848484D01*
X1465301Y-12743722D02*
X1474824Y-12724674D01*
X1474824Y-12724674D02*
X1493872Y-12715150D01*
X1493872Y-12715150D02*
X1522443Y-12715150D01*
X1522443Y-12715150D02*
X1541491Y-12724674D01*
X1541491Y-12724674D02*
X1551015Y-12743722D01*
X1551015Y-12743722D02*
X1551015Y-12848484D01*
X1941491Y-12638960D02*
X1770063Y-12896103D01*
X2198634Y-12648484D02*
X2217682Y-12648484D01*
X2217682Y-12648484D02*
X2236729Y-12658008D01*
X2236729Y-12658008D02*
X2246253Y-12667531D01*
X2246253Y-12667531D02*
X2255777Y-12686579D01*
X2255777Y-12686579D02*
X2265301Y-12724674D01*
X2265301Y-12724674D02*
X2265301Y-12772293D01*
X2265301Y-12772293D02*
X2255777Y-12810388D01*
X2255777Y-12810388D02*
X2246253Y-12829436D01*
X2246253Y-12829436D02*
X2236729Y-12838960D01*
X2236729Y-12838960D02*
X2217682Y-12848484D01*
X2217682Y-12848484D02*
X2198634Y-12848484D01*
X2198634Y-12848484D02*
X2179587Y-12838960D01*
X2179587Y-12838960D02*
X2170063Y-12829436D01*
X2170063Y-12829436D02*
X2160539Y-12810388D01*
X2160539Y-12810388D02*
X2151015Y-12772293D01*
X2151015Y-12772293D02*
X2151015Y-12724674D01*
X2151015Y-12724674D02*
X2160539Y-12686579D01*
X2160539Y-12686579D02*
X2170063Y-12667531D01*
X2170063Y-12667531D02*
X2179587Y-12658008D01*
X2179587Y-12658008D02*
X2198634Y-12648484D01*
X2351015Y-12829436D02*
X2360539Y-12838960D01*
X2360539Y-12838960D02*
X2351015Y-12848484D01*
X2351015Y-12848484D02*
X2341491Y-12838960D01*
X2341491Y-12838960D02*
X2351015Y-12829436D01*
X2351015Y-12829436D02*
X2351015Y-12848484D01*
X2484348Y-12648484D02*
X2503396Y-12648484D01*
X2503396Y-12648484D02*
X2522444Y-12658008D01*
X2522444Y-12658008D02*
X2531968Y-12667531D01*
X2531968Y-12667531D02*
X2541491Y-12686579D01*
X2541491Y-12686579D02*
X2551015Y-12724674D01*
X2551015Y-12724674D02*
X2551015Y-12772293D01*
X2551015Y-12772293D02*
X2541491Y-12810388D01*
X2541491Y-12810388D02*
X2531968Y-12829436D01*
X2531968Y-12829436D02*
X2522444Y-12838960D01*
X2522444Y-12838960D02*
X2503396Y-12848484D01*
X2503396Y-12848484D02*
X2484348Y-12848484D01*
X2484348Y-12848484D02*
X2465301Y-12838960D01*
X2465301Y-12838960D02*
X2455777Y-12829436D01*
X2455777Y-12829436D02*
X2446253Y-12810388D01*
X2446253Y-12810388D02*
X2436729Y-12772293D01*
X2436729Y-12772293D02*
X2436729Y-12724674D01*
X2436729Y-12724674D02*
X2446253Y-12686579D01*
X2446253Y-12686579D02*
X2455777Y-12667531D01*
X2455777Y-12667531D02*
X2465301Y-12658008D01*
X2465301Y-12658008D02*
X2484348Y-12648484D01*
X2731968Y-12648484D02*
X2636729Y-12648484D01*
X2636729Y-12648484D02*
X2627206Y-12743722D01*
X2627206Y-12743722D02*
X2636729Y-12734198D01*
X2636729Y-12734198D02*
X2655777Y-12724674D01*
X2655777Y-12724674D02*
X2703396Y-12724674D01*
X2703396Y-12724674D02*
X2722444Y-12734198D01*
X2722444Y-12734198D02*
X2731968Y-12743722D01*
X2731968Y-12743722D02*
X2741491Y-12762769D01*
X2741491Y-12762769D02*
X2741491Y-12810388D01*
X2741491Y-12810388D02*
X2731968Y-12829436D01*
X2731968Y-12829436D02*
X2722444Y-12838960D01*
X2722444Y-12838960D02*
X2703396Y-12848484D01*
X2703396Y-12848484D02*
X2655777Y-12848484D01*
X2655777Y-12848484D02*
X2636729Y-12838960D01*
X2636729Y-12838960D02*
X2627206Y-12829436D01*
X2931967Y-12848484D02*
X2817682Y-12848484D01*
X2874825Y-12848484D02*
X2874825Y-12648484D01*
X2874825Y-12648484D02*
X2855777Y-12677055D01*
X2855777Y-12677055D02*
X2836729Y-12696103D01*
X2836729Y-12696103D02*
X2817682Y-12705627D01*
X3008158Y-12667531D02*
X3017682Y-12658008D01*
X3017682Y-12658008D02*
X3036729Y-12648484D01*
X3036729Y-12648484D02*
X3084348Y-12648484D01*
X3084348Y-12648484D02*
X3103396Y-12658008D01*
X3103396Y-12658008D02*
X3112920Y-12667531D01*
X3112920Y-12667531D02*
X3122444Y-12686579D01*
X3122444Y-12686579D02*
X3122444Y-12705627D01*
X3122444Y-12705627D02*
X3112920Y-12734198D01*
X3112920Y-12734198D02*
X2998634Y-12848484D01*
X2998634Y-12848484D02*
X3122444Y-12848484D01*
X3198634Y-12648484D02*
X3198634Y-12686579D01*
X3274825Y-12648484D02*
X3274825Y-12686579D01*
X3570063Y-12924674D02*
X3560539Y-12915150D01*
X3560539Y-12915150D02*
X3541491Y-12886579D01*
X3541491Y-12886579D02*
X3531968Y-12867531D01*
X3531968Y-12867531D02*
X3522444Y-12838960D01*
X3522444Y-12838960D02*
X3512920Y-12791341D01*
X3512920Y-12791341D02*
X3512920Y-12753246D01*
X3512920Y-12753246D02*
X3522444Y-12705627D01*
X3522444Y-12705627D02*
X3531968Y-12677055D01*
X3531968Y-12677055D02*
X3541491Y-12658008D01*
X3541491Y-12658008D02*
X3560539Y-12629436D01*
X3560539Y-12629436D02*
X3570063Y-12619912D01*
X3731968Y-12715150D02*
X3731968Y-12848484D01*
X3684348Y-12638960D02*
X3636729Y-12781817D01*
X3636729Y-12781817D02*
X3760539Y-12781817D01*
X3827206Y-12667531D02*
X3836729Y-12658008D01*
X3836729Y-12658008D02*
X3855777Y-12648484D01*
X3855777Y-12648484D02*
X3903396Y-12648484D01*
X3903396Y-12648484D02*
X3922444Y-12658008D01*
X3922444Y-12658008D02*
X3931968Y-12667531D01*
X3931968Y-12667531D02*
X3941491Y-12686579D01*
X3941491Y-12686579D02*
X3941491Y-12705627D01*
X3941491Y-12705627D02*
X3931968Y-12734198D01*
X3931968Y-12734198D02*
X3817682Y-12848484D01*
X3817682Y-12848484D02*
X3941491Y-12848484D01*
X4179587Y-12848484D02*
X4179587Y-12648484D01*
X4265301Y-12848484D02*
X4265301Y-12743722D01*
X4265301Y-12743722D02*
X4255777Y-12724674D01*
X4255777Y-12724674D02*
X4236730Y-12715150D01*
X4236730Y-12715150D02*
X4208158Y-12715150D01*
X4208158Y-12715150D02*
X4189110Y-12724674D01*
X4189110Y-12724674D02*
X4179587Y-12734198D01*
X4389111Y-12848484D02*
X4370063Y-12838960D01*
X4370063Y-12838960D02*
X4360539Y-12829436D01*
X4360539Y-12829436D02*
X4351015Y-12810388D01*
X4351015Y-12810388D02*
X4351015Y-12753246D01*
X4351015Y-12753246D02*
X4360539Y-12734198D01*
X4360539Y-12734198D02*
X4370063Y-12724674D01*
X4370063Y-12724674D02*
X4389111Y-12715150D01*
X4389111Y-12715150D02*
X4417682Y-12715150D01*
X4417682Y-12715150D02*
X4436730Y-12724674D01*
X4436730Y-12724674D02*
X4446253Y-12734198D01*
X4446253Y-12734198D02*
X4455777Y-12753246D01*
X4455777Y-12753246D02*
X4455777Y-12810388D01*
X4455777Y-12810388D02*
X4446253Y-12829436D01*
X4446253Y-12829436D02*
X4436730Y-12838960D01*
X4436730Y-12838960D02*
X4417682Y-12848484D01*
X4417682Y-12848484D02*
X4389111Y-12848484D01*
X4570063Y-12848484D02*
X4551015Y-12838960D01*
X4551015Y-12838960D02*
X4541492Y-12819912D01*
X4541492Y-12819912D02*
X4541492Y-12648484D01*
X4722444Y-12838960D02*
X4703396Y-12848484D01*
X4703396Y-12848484D02*
X4665301Y-12848484D01*
X4665301Y-12848484D02*
X4646253Y-12838960D01*
X4646253Y-12838960D02*
X4636730Y-12819912D01*
X4636730Y-12819912D02*
X4636730Y-12743722D01*
X4636730Y-12743722D02*
X4646253Y-12724674D01*
X4646253Y-12724674D02*
X4665301Y-12715150D01*
X4665301Y-12715150D02*
X4703396Y-12715150D01*
X4703396Y-12715150D02*
X4722444Y-12724674D01*
X4722444Y-12724674D02*
X4731968Y-12743722D01*
X4731968Y-12743722D02*
X4731968Y-12762769D01*
X4731968Y-12762769D02*
X4636730Y-12781817D01*
X4808158Y-12838960D02*
X4827206Y-12848484D01*
X4827206Y-12848484D02*
X4865301Y-12848484D01*
X4865301Y-12848484D02*
X4884349Y-12838960D01*
X4884349Y-12838960D02*
X4893873Y-12819912D01*
X4893873Y-12819912D02*
X4893873Y-12810388D01*
X4893873Y-12810388D02*
X4884349Y-12791341D01*
X4884349Y-12791341D02*
X4865301Y-12781817D01*
X4865301Y-12781817D02*
X4836730Y-12781817D01*
X4836730Y-12781817D02*
X4817682Y-12772293D01*
X4817682Y-12772293D02*
X4808158Y-12753246D01*
X4808158Y-12753246D02*
X4808158Y-12743722D01*
X4808158Y-12743722D02*
X4817682Y-12724674D01*
X4817682Y-12724674D02*
X4836730Y-12715150D01*
X4836730Y-12715150D02*
X4865301Y-12715150D01*
X4865301Y-12715150D02*
X4884349Y-12724674D01*
X4960539Y-12924674D02*
X4970063Y-12915150D01*
X4970063Y-12915150D02*
X4989111Y-12886579D01*
X4989111Y-12886579D02*
X4998634Y-12867531D01*
X4998634Y-12867531D02*
X5008158Y-12838960D01*
X5008158Y-12838960D02*
X5017682Y-12791341D01*
X5017682Y-12791341D02*
X5017682Y-12753246D01*
X5017682Y-12753246D02*
X5008158Y-12705627D01*
X5008158Y-12705627D02*
X4998634Y-12677055D01*
X4998634Y-12677055D02*
X4989111Y-12658008D01*
X4989111Y-12658008D02*
X4970063Y-12629436D01*
X4970063Y-12629436D02*
X4960539Y-12619912D01*
X-105000Y-12921000D02*
X-105000Y-13121000D01*
X-205000Y-13021000D02*
X-5000Y-13021000D01*
X-5000Y-13021000D02*
G75*
G02*
X-205000Y-13021000I-100000J0D01*
G01*
X-205000Y-13021000D02*
G75*
G02*
X-5000Y-13021000I100000J0D01*
G01*
X246253Y-12931531D02*
X255777Y-12922008D01*
X255777Y-12922008D02*
X274824Y-12912484D01*
X274824Y-12912484D02*
X322444Y-12912484D01*
X322444Y-12912484D02*
X341491Y-12922008D01*
X341491Y-12922008D02*
X351015Y-12931531D01*
X351015Y-12931531D02*
X360539Y-12950579D01*
X360539Y-12950579D02*
X360539Y-12969627D01*
X360539Y-12969627D02*
X351015Y-12998198D01*
X351015Y-12998198D02*
X236729Y-13112484D01*
X236729Y-13112484D02*
X360539Y-13112484D01*
X446253Y-13093436D02*
X455777Y-13102960D01*
X455777Y-13102960D02*
X446253Y-13112484D01*
X446253Y-13112484D02*
X436729Y-13102960D01*
X436729Y-13102960D02*
X446253Y-13093436D01*
X446253Y-13093436D02*
X446253Y-13112484D01*
X522443Y-12912484D02*
X655777Y-12912484D01*
X655777Y-12912484D02*
X570063Y-13112484D01*
X770062Y-12912484D02*
X789110Y-12912484D01*
X789110Y-12912484D02*
X808158Y-12922008D01*
X808158Y-12922008D02*
X817682Y-12931531D01*
X817682Y-12931531D02*
X827205Y-12950579D01*
X827205Y-12950579D02*
X836729Y-12988674D01*
X836729Y-12988674D02*
X836729Y-13036293D01*
X836729Y-13036293D02*
X827205Y-13074388D01*
X827205Y-13074388D02*
X817682Y-13093436D01*
X817682Y-13093436D02*
X808158Y-13102960D01*
X808158Y-13102960D02*
X789110Y-13112484D01*
X789110Y-13112484D02*
X770062Y-13112484D01*
X770062Y-13112484D02*
X751015Y-13102960D01*
X751015Y-13102960D02*
X741491Y-13093436D01*
X741491Y-13093436D02*
X731967Y-13074388D01*
X731967Y-13074388D02*
X722443Y-13036293D01*
X722443Y-13036293D02*
X722443Y-12988674D01*
X722443Y-12988674D02*
X731967Y-12950579D01*
X731967Y-12950579D02*
X741491Y-12931531D01*
X741491Y-12931531D02*
X751015Y-12922008D01*
X751015Y-12922008D02*
X770062Y-12912484D01*
X960539Y-12912484D02*
X979586Y-12912484D01*
X979586Y-12912484D02*
X998634Y-12922008D01*
X998634Y-12922008D02*
X1008158Y-12931531D01*
X1008158Y-12931531D02*
X1017682Y-12950579D01*
X1017682Y-12950579D02*
X1027205Y-12988674D01*
X1027205Y-12988674D02*
X1027205Y-13036293D01*
X1027205Y-13036293D02*
X1017682Y-13074388D01*
X1017682Y-13074388D02*
X1008158Y-13093436D01*
X1008158Y-13093436D02*
X998634Y-13102960D01*
X998634Y-13102960D02*
X979586Y-13112484D01*
X979586Y-13112484D02*
X960539Y-13112484D01*
X960539Y-13112484D02*
X941491Y-13102960D01*
X941491Y-13102960D02*
X931967Y-13093436D01*
X931967Y-13093436D02*
X922443Y-13074388D01*
X922443Y-13074388D02*
X912920Y-13036293D01*
X912920Y-13036293D02*
X912920Y-12988674D01*
X912920Y-12988674D02*
X922443Y-12950579D01*
X922443Y-12950579D02*
X931967Y-12931531D01*
X931967Y-12931531D02*
X941491Y-12922008D01*
X941491Y-12922008D02*
X960539Y-12912484D01*
X1112920Y-13112484D02*
X1112920Y-12979150D01*
X1112920Y-12998198D02*
X1122444Y-12988674D01*
X1122444Y-12988674D02*
X1141491Y-12979150D01*
X1141491Y-12979150D02*
X1170063Y-12979150D01*
X1170063Y-12979150D02*
X1189110Y-12988674D01*
X1189110Y-12988674D02*
X1198634Y-13007722D01*
X1198634Y-13007722D02*
X1198634Y-13112484D01*
X1198634Y-13007722D02*
X1208158Y-12988674D01*
X1208158Y-12988674D02*
X1227205Y-12979150D01*
X1227205Y-12979150D02*
X1255777Y-12979150D01*
X1255777Y-12979150D02*
X1274825Y-12988674D01*
X1274825Y-12988674D02*
X1284348Y-13007722D01*
X1284348Y-13007722D02*
X1284348Y-13112484D01*
X1379586Y-13112484D02*
X1379586Y-12979150D01*
X1379586Y-12998198D02*
X1389110Y-12988674D01*
X1389110Y-12988674D02*
X1408158Y-12979150D01*
X1408158Y-12979150D02*
X1436729Y-12979150D01*
X1436729Y-12979150D02*
X1455777Y-12988674D01*
X1455777Y-12988674D02*
X1465301Y-13007722D01*
X1465301Y-13007722D02*
X1465301Y-13112484D01*
X1465301Y-13007722D02*
X1474824Y-12988674D01*
X1474824Y-12988674D02*
X1493872Y-12979150D01*
X1493872Y-12979150D02*
X1522443Y-12979150D01*
X1522443Y-12979150D02*
X1541491Y-12988674D01*
X1541491Y-12988674D02*
X1551015Y-13007722D01*
X1551015Y-13007722D02*
X1551015Y-13112484D01*
X1941491Y-12902960D02*
X1770063Y-13160103D01*
X2198634Y-12912484D02*
X2217682Y-12912484D01*
X2217682Y-12912484D02*
X2236729Y-12922008D01*
X2236729Y-12922008D02*
X2246253Y-12931531D01*
X2246253Y-12931531D02*
X2255777Y-12950579D01*
X2255777Y-12950579D02*
X2265301Y-12988674D01*
X2265301Y-12988674D02*
X2265301Y-13036293D01*
X2265301Y-13036293D02*
X2255777Y-13074388D01*
X2255777Y-13074388D02*
X2246253Y-13093436D01*
X2246253Y-13093436D02*
X2236729Y-13102960D01*
X2236729Y-13102960D02*
X2217682Y-13112484D01*
X2217682Y-13112484D02*
X2198634Y-13112484D01*
X2198634Y-13112484D02*
X2179587Y-13102960D01*
X2179587Y-13102960D02*
X2170063Y-13093436D01*
X2170063Y-13093436D02*
X2160539Y-13074388D01*
X2160539Y-13074388D02*
X2151015Y-13036293D01*
X2151015Y-13036293D02*
X2151015Y-12988674D01*
X2151015Y-12988674D02*
X2160539Y-12950579D01*
X2160539Y-12950579D02*
X2170063Y-12931531D01*
X2170063Y-12931531D02*
X2179587Y-12922008D01*
X2179587Y-12922008D02*
X2198634Y-12912484D01*
X2351015Y-13093436D02*
X2360539Y-13102960D01*
X2360539Y-13102960D02*
X2351015Y-13112484D01*
X2351015Y-13112484D02*
X2341491Y-13102960D01*
X2341491Y-13102960D02*
X2351015Y-13093436D01*
X2351015Y-13093436D02*
X2351015Y-13112484D01*
X2551015Y-13112484D02*
X2436729Y-13112484D01*
X2493872Y-13112484D02*
X2493872Y-12912484D01*
X2493872Y-12912484D02*
X2474825Y-12941055D01*
X2474825Y-12941055D02*
X2455777Y-12960103D01*
X2455777Y-12960103D02*
X2436729Y-12969627D01*
X2674825Y-12912484D02*
X2693872Y-12912484D01*
X2693872Y-12912484D02*
X2712920Y-12922008D01*
X2712920Y-12922008D02*
X2722444Y-12931531D01*
X2722444Y-12931531D02*
X2731968Y-12950579D01*
X2731968Y-12950579D02*
X2741491Y-12988674D01*
X2741491Y-12988674D02*
X2741491Y-13036293D01*
X2741491Y-13036293D02*
X2731968Y-13074388D01*
X2731968Y-13074388D02*
X2722444Y-13093436D01*
X2722444Y-13093436D02*
X2712920Y-13102960D01*
X2712920Y-13102960D02*
X2693872Y-13112484D01*
X2693872Y-13112484D02*
X2674825Y-13112484D01*
X2674825Y-13112484D02*
X2655777Y-13102960D01*
X2655777Y-13102960D02*
X2646253Y-13093436D01*
X2646253Y-13093436D02*
X2636729Y-13074388D01*
X2636729Y-13074388D02*
X2627206Y-13036293D01*
X2627206Y-13036293D02*
X2627206Y-12988674D01*
X2627206Y-12988674D02*
X2636729Y-12950579D01*
X2636729Y-12950579D02*
X2646253Y-12931531D01*
X2646253Y-12931531D02*
X2655777Y-12922008D01*
X2655777Y-12922008D02*
X2674825Y-12912484D01*
X2912920Y-12912484D02*
X2874825Y-12912484D01*
X2874825Y-12912484D02*
X2855777Y-12922008D01*
X2855777Y-12922008D02*
X2846253Y-12931531D01*
X2846253Y-12931531D02*
X2827206Y-12960103D01*
X2827206Y-12960103D02*
X2817682Y-12998198D01*
X2817682Y-12998198D02*
X2817682Y-13074388D01*
X2817682Y-13074388D02*
X2827206Y-13093436D01*
X2827206Y-13093436D02*
X2836729Y-13102960D01*
X2836729Y-13102960D02*
X2855777Y-13112484D01*
X2855777Y-13112484D02*
X2893872Y-13112484D01*
X2893872Y-13112484D02*
X2912920Y-13102960D01*
X2912920Y-13102960D02*
X2922444Y-13093436D01*
X2922444Y-13093436D02*
X2931967Y-13074388D01*
X2931967Y-13074388D02*
X2931967Y-13026769D01*
X2931967Y-13026769D02*
X2922444Y-13007722D01*
X2922444Y-13007722D02*
X2912920Y-12998198D01*
X2912920Y-12998198D02*
X2893872Y-12988674D01*
X2893872Y-12988674D02*
X2855777Y-12988674D01*
X2855777Y-12988674D02*
X2836729Y-12998198D01*
X2836729Y-12998198D02*
X2827206Y-13007722D01*
X2827206Y-13007722D02*
X2817682Y-13026769D01*
X2998634Y-12912484D02*
X3122444Y-12912484D01*
X3122444Y-12912484D02*
X3055777Y-12988674D01*
X3055777Y-12988674D02*
X3084348Y-12988674D01*
X3084348Y-12988674D02*
X3103396Y-12998198D01*
X3103396Y-12998198D02*
X3112920Y-13007722D01*
X3112920Y-13007722D02*
X3122444Y-13026769D01*
X3122444Y-13026769D02*
X3122444Y-13074388D01*
X3122444Y-13074388D02*
X3112920Y-13093436D01*
X3112920Y-13093436D02*
X3103396Y-13102960D01*
X3103396Y-13102960D02*
X3084348Y-13112484D01*
X3084348Y-13112484D02*
X3027206Y-13112484D01*
X3027206Y-13112484D02*
X3008158Y-13102960D01*
X3008158Y-13102960D02*
X2998634Y-13093436D01*
X3198634Y-12912484D02*
X3198634Y-12950579D01*
X3274825Y-12912484D02*
X3274825Y-12950579D01*
X3570063Y-13188674D02*
X3560539Y-13179150D01*
X3560539Y-13179150D02*
X3541491Y-13150579D01*
X3541491Y-13150579D02*
X3531968Y-13131531D01*
X3531968Y-13131531D02*
X3522444Y-13102960D01*
X3522444Y-13102960D02*
X3512920Y-13055341D01*
X3512920Y-13055341D02*
X3512920Y-13017246D01*
X3512920Y-13017246D02*
X3522444Y-12969627D01*
X3522444Y-12969627D02*
X3531968Y-12941055D01*
X3531968Y-12941055D02*
X3541491Y-12922008D01*
X3541491Y-12922008D02*
X3560539Y-12893436D01*
X3560539Y-12893436D02*
X3570063Y-12883912D01*
X3731968Y-12979150D02*
X3731968Y-13112484D01*
X3684348Y-12902960D02*
X3636729Y-13045817D01*
X3636729Y-13045817D02*
X3760539Y-13045817D01*
X3989110Y-13112484D02*
X3989110Y-12912484D01*
X4074825Y-13112484D02*
X4074825Y-13007722D01*
X4074825Y-13007722D02*
X4065301Y-12988674D01*
X4065301Y-12988674D02*
X4046253Y-12979150D01*
X4046253Y-12979150D02*
X4017682Y-12979150D01*
X4017682Y-12979150D02*
X3998634Y-12988674D01*
X3998634Y-12988674D02*
X3989110Y-12998198D01*
X4198634Y-13112484D02*
X4179587Y-13102960D01*
X4179587Y-13102960D02*
X4170063Y-13093436D01*
X4170063Y-13093436D02*
X4160539Y-13074388D01*
X4160539Y-13074388D02*
X4160539Y-13017246D01*
X4160539Y-13017246D02*
X4170063Y-12998198D01*
X4170063Y-12998198D02*
X4179587Y-12988674D01*
X4179587Y-12988674D02*
X4198634Y-12979150D01*
X4198634Y-12979150D02*
X4227206Y-12979150D01*
X4227206Y-12979150D02*
X4246253Y-12988674D01*
X4246253Y-12988674D02*
X4255777Y-12998198D01*
X4255777Y-12998198D02*
X4265301Y-13017246D01*
X4265301Y-13017246D02*
X4265301Y-13074388D01*
X4265301Y-13074388D02*
X4255777Y-13093436D01*
X4255777Y-13093436D02*
X4246253Y-13102960D01*
X4246253Y-13102960D02*
X4227206Y-13112484D01*
X4227206Y-13112484D02*
X4198634Y-13112484D01*
X4379587Y-13112484D02*
X4360539Y-13102960D01*
X4360539Y-13102960D02*
X4351015Y-13083912D01*
X4351015Y-13083912D02*
X4351015Y-12912484D01*
X4531968Y-13102960D02*
X4512920Y-13112484D01*
X4512920Y-13112484D02*
X4474825Y-13112484D01*
X4474825Y-13112484D02*
X4455777Y-13102960D01*
X4455777Y-13102960D02*
X4446253Y-13083912D01*
X4446253Y-13083912D02*
X4446253Y-13007722D01*
X4446253Y-13007722D02*
X4455777Y-12988674D01*
X4455777Y-12988674D02*
X4474825Y-12979150D01*
X4474825Y-12979150D02*
X4512920Y-12979150D01*
X4512920Y-12979150D02*
X4531968Y-12988674D01*
X4531968Y-12988674D02*
X4541492Y-13007722D01*
X4541492Y-13007722D02*
X4541492Y-13026769D01*
X4541492Y-13026769D02*
X4446253Y-13045817D01*
X4617682Y-13102960D02*
X4636730Y-13112484D01*
X4636730Y-13112484D02*
X4674825Y-13112484D01*
X4674825Y-13112484D02*
X4693873Y-13102960D01*
X4693873Y-13102960D02*
X4703396Y-13083912D01*
X4703396Y-13083912D02*
X4703396Y-13074388D01*
X4703396Y-13074388D02*
X4693873Y-13055341D01*
X4693873Y-13055341D02*
X4674825Y-13045817D01*
X4674825Y-13045817D02*
X4646253Y-13045817D01*
X4646253Y-13045817D02*
X4627206Y-13036293D01*
X4627206Y-13036293D02*
X4617682Y-13017246D01*
X4617682Y-13017246D02*
X4617682Y-13007722D01*
X4617682Y-13007722D02*
X4627206Y-12988674D01*
X4627206Y-12988674D02*
X4646253Y-12979150D01*
X4646253Y-12979150D02*
X4674825Y-12979150D01*
X4674825Y-12979150D02*
X4693873Y-12988674D01*
X4770063Y-13188674D02*
X4779587Y-13179150D01*
X4779587Y-13179150D02*
X4798634Y-13150579D01*
X4798634Y-13150579D02*
X4808158Y-13131531D01*
X4808158Y-13131531D02*
X4817682Y-13102960D01*
X4817682Y-13102960D02*
X4827206Y-13055341D01*
X4827206Y-13055341D02*
X4827206Y-13017246D01*
X4827206Y-13017246D02*
X4817682Y-12969627D01*
X4817682Y-12969627D02*
X4808158Y-12941055D01*
X4808158Y-12941055D02*
X4798634Y-12922008D01*
X4798634Y-12922008D02*
X4779587Y-12893436D01*
X4779587Y-12893436D02*
X4770063Y-12883912D01*
X5131968Y-13188674D02*
X5122444Y-13179150D01*
X5122444Y-13179150D02*
X5103396Y-13150579D01*
X5103396Y-13150579D02*
X5093873Y-13131531D01*
X5093873Y-13131531D02*
X5084349Y-13102960D01*
X5084349Y-13102960D02*
X5074825Y-13055341D01*
X5074825Y-13055341D02*
X5074825Y-13017246D01*
X5074825Y-13017246D02*
X5084349Y-12969627D01*
X5084349Y-12969627D02*
X5093873Y-12941055D01*
X5093873Y-12941055D02*
X5103396Y-12922008D01*
X5103396Y-12922008D02*
X5122444Y-12893436D01*
X5122444Y-12893436D02*
X5131968Y-12883912D01*
X5208158Y-12979150D02*
X5208158Y-13112484D01*
X5208158Y-12998198D02*
X5217682Y-12988674D01*
X5217682Y-12988674D02*
X5236730Y-12979150D01*
X5236730Y-12979150D02*
X5265301Y-12979150D01*
X5265301Y-12979150D02*
X5284349Y-12988674D01*
X5284349Y-12988674D02*
X5293873Y-13007722D01*
X5293873Y-13007722D02*
X5293873Y-13112484D01*
X5417682Y-13112484D02*
X5398634Y-13102960D01*
X5398634Y-13102960D02*
X5389111Y-13093436D01*
X5389111Y-13093436D02*
X5379587Y-13074388D01*
X5379587Y-13074388D02*
X5379587Y-13017246D01*
X5379587Y-13017246D02*
X5389111Y-12998198D01*
X5389111Y-12998198D02*
X5398634Y-12988674D01*
X5398634Y-12988674D02*
X5417682Y-12979150D01*
X5417682Y-12979150D02*
X5446254Y-12979150D01*
X5446254Y-12979150D02*
X5465301Y-12988674D01*
X5465301Y-12988674D02*
X5474825Y-12998198D01*
X5474825Y-12998198D02*
X5484349Y-13017246D01*
X5484349Y-13017246D02*
X5484349Y-13074388D01*
X5484349Y-13074388D02*
X5474825Y-13093436D01*
X5474825Y-13093436D02*
X5465301Y-13102960D01*
X5465301Y-13102960D02*
X5446254Y-13112484D01*
X5446254Y-13112484D02*
X5417682Y-13112484D01*
X5541492Y-12979150D02*
X5617682Y-12979150D01*
X5570063Y-12912484D02*
X5570063Y-13083912D01*
X5570063Y-13083912D02*
X5579587Y-13102960D01*
X5579587Y-13102960D02*
X5598634Y-13112484D01*
X5598634Y-13112484D02*
X5617682Y-13112484D01*
X5836730Y-12979150D02*
X5836730Y-13179150D01*
X5836730Y-12988674D02*
X5855777Y-12979150D01*
X5855777Y-12979150D02*
X5893873Y-12979150D01*
X5893873Y-12979150D02*
X5912920Y-12988674D01*
X5912920Y-12988674D02*
X5922444Y-12998198D01*
X5922444Y-12998198D02*
X5931968Y-13017246D01*
X5931968Y-13017246D02*
X5931968Y-13074388D01*
X5931968Y-13074388D02*
X5922444Y-13093436D01*
X5922444Y-13093436D02*
X5912920Y-13102960D01*
X5912920Y-13102960D02*
X5893873Y-13112484D01*
X5893873Y-13112484D02*
X5855777Y-13112484D01*
X5855777Y-13112484D02*
X5836730Y-13102960D01*
X6046253Y-13112484D02*
X6027206Y-13102960D01*
X6027206Y-13102960D02*
X6017682Y-13083912D01*
X6017682Y-13083912D02*
X6017682Y-12912484D01*
X6208158Y-13112484D02*
X6208158Y-13007722D01*
X6208158Y-13007722D02*
X6198634Y-12988674D01*
X6198634Y-12988674D02*
X6179587Y-12979150D01*
X6179587Y-12979150D02*
X6141492Y-12979150D01*
X6141492Y-12979150D02*
X6122444Y-12988674D01*
X6208158Y-13102960D02*
X6189111Y-13112484D01*
X6189111Y-13112484D02*
X6141492Y-13112484D01*
X6141492Y-13112484D02*
X6122444Y-13102960D01*
X6122444Y-13102960D02*
X6112920Y-13083912D01*
X6112920Y-13083912D02*
X6112920Y-13064865D01*
X6112920Y-13064865D02*
X6122444Y-13045817D01*
X6122444Y-13045817D02*
X6141492Y-13036293D01*
X6141492Y-13036293D02*
X6189111Y-13036293D01*
X6189111Y-13036293D02*
X6208158Y-13026769D01*
X6274825Y-12979150D02*
X6351015Y-12979150D01*
X6303396Y-12912484D02*
X6303396Y-13083912D01*
X6303396Y-13083912D02*
X6312920Y-13102960D01*
X6312920Y-13102960D02*
X6331968Y-13112484D01*
X6331968Y-13112484D02*
X6351015Y-13112484D01*
X6493873Y-13102960D02*
X6474825Y-13112484D01*
X6474825Y-13112484D02*
X6436730Y-13112484D01*
X6436730Y-13112484D02*
X6417682Y-13102960D01*
X6417682Y-13102960D02*
X6408158Y-13083912D01*
X6408158Y-13083912D02*
X6408158Y-13007722D01*
X6408158Y-13007722D02*
X6417682Y-12988674D01*
X6417682Y-12988674D02*
X6436730Y-12979150D01*
X6436730Y-12979150D02*
X6474825Y-12979150D01*
X6474825Y-12979150D02*
X6493873Y-12988674D01*
X6493873Y-12988674D02*
X6503396Y-13007722D01*
X6503396Y-13007722D02*
X6503396Y-13026769D01*
X6503396Y-13026769D02*
X6408158Y-13045817D01*
X6674825Y-13112484D02*
X6674825Y-12912484D01*
X6674825Y-13102960D02*
X6655777Y-13112484D01*
X6655777Y-13112484D02*
X6617682Y-13112484D01*
X6617682Y-13112484D02*
X6598634Y-13102960D01*
X6598634Y-13102960D02*
X6589111Y-13093436D01*
X6589111Y-13093436D02*
X6579587Y-13074388D01*
X6579587Y-13074388D02*
X6579587Y-13017246D01*
X6579587Y-13017246D02*
X6589111Y-12998198D01*
X6589111Y-12998198D02*
X6598634Y-12988674D01*
X6598634Y-12988674D02*
X6617682Y-12979150D01*
X6617682Y-12979150D02*
X6655777Y-12979150D01*
X6655777Y-12979150D02*
X6674825Y-12988674D01*
X6751015Y-13188674D02*
X6760539Y-13179150D01*
X6760539Y-13179150D02*
X6779587Y-13150579D01*
X6779587Y-13150579D02*
X6789111Y-13131531D01*
X6789111Y-13131531D02*
X6798634Y-13102960D01*
X6798634Y-13102960D02*
X6808158Y-13055341D01*
X6808158Y-13055341D02*
X6808158Y-13017246D01*
X6808158Y-13017246D02*
X6798634Y-12969627D01*
X6798634Y-12969627D02*
X6789111Y-12941055D01*
X6789111Y-12941055D02*
X6779587Y-12922008D01*
X6779587Y-12922008D02*
X6760539Y-12893436D01*
X6760539Y-12893436D02*
X6751015Y-12883912D01*
M02*
