M48
; DRILL file {KiCad 9.0.7} date 2026-06-26T15:37:17+0530
; FORMAT={-:-/ absolute / metric / decimal}
; #@! TF.CreationDate,2026-06-26T15:37:17+05:30
; #@! TF.GenerationSoftware,Kicad,Pcbnew,9.0.7
; #@! TF.FileFunction,MixedPlating,1,2
FMAT,2
METRIC
; #@! TA.AperFunction,Plated,PTH,ComponentDrill
T1C0.200
; #@! TA.AperFunction,Plated,PTH,ViaDrill
T2C0.300
; #@! TA.AperFunction,Plated,PTH,ViaDrill
T3C0.400
; #@! TA.AperFunction,Plated,PTH,ComponentDrill
T4C0.600
; #@! TA.AperFunction,Plated,PTH,ComponentDrill
T5C0.800
; #@! TA.AperFunction,Plated,PTH,ComponentDrill
T6C0.900
; #@! TA.AperFunction,Plated,PTH,ComponentDrill
T7C1.000
; #@! TA.AperFunction,Plated,PTH,ComponentDrill
T8C1.100
; #@! TA.AperFunction,Plated,PTH,ComponentDrill
T9C1.300
; #@! TA.AperFunction,NonPlated,NPTH,ComponentDrill
T10C2.700
%
G90
G05
T1
X155.795Y-48.328
X155.795Y-49.852
X156.558Y-47.565
X156.558Y-49.09
X156.558Y-50.615
X157.32Y-48.328
X157.32Y-49.852
X158.082Y-47.565
X158.082Y-49.09
X158.082Y-50.615
X158.845Y-48.328
X158.845Y-49.852
T2
X121.135Y-36.447
X123.906Y-75.05
X135.859Y-75.05
X137.682Y-66.887
X147.409Y-48.762
X150.505Y-54.767
X150.517Y-44.29
X152.575Y-38.097
X153.228Y-58.248
X153.918Y-74.019
X158.016Y-56.99
X164.702Y-51.91
X165.494Y-50.64
X165.918Y-74.019
X167.869Y-59.081
X168.037Y-45.407
X171.358Y-40.794
X172.318Y-45.405
X182.013Y-46.83
X185.633Y-22.5
X186.273Y-23.508
T3
X129.882Y-16.416
X135.442Y-13.58
X146.758Y-46.25
X146.843Y-18.196
X150.62Y-36.737
X150.62Y-43.238
X158.082Y-41.75
T4
X52.0Y-8.0
X57.0Y-10.5
T5
X124.0Y-30.0
X124.0Y-32.54
X124.0Y-35.08
X124.0Y-37.62
X124.0Y-40.16
X124.0Y-42.7
X124.0Y-45.24
X124.0Y-47.78
X131.62Y-30.0
X131.62Y-32.54
X131.62Y-35.08
X131.62Y-37.62
X131.62Y-40.16
X131.62Y-42.7
X131.62Y-45.24
X131.62Y-47.78
X138.0Y-55.0
X140.5Y-55.0
T6
X130.0Y-80.0
X132.54Y-80.0
X142.0Y-80.0
X143.0Y-15.0
X144.54Y-80.0
X145.54Y-15.0
X154.0Y-80.0
X156.54Y-80.0
X166.0Y-80.0
X168.54Y-80.0
T7
X39.5Y-8.5
X39.5Y-13.5
X62.95Y-24.05
X62.95Y-36.05
X62.95Y-44.05
X62.95Y-56.05
X62.95Y-64.05
X62.95Y-76.05
X62.95Y-84.05
X62.95Y-96.05
X165.0Y-12.0
X167.54Y-12.0
X170.08Y-12.0
X172.62Y-12.0
X182.3Y-70.0
X184.84Y-70.0
X187.38Y-70.0
X187.92Y-30.0
X187.92Y-35.0
X187.92Y-40.0
X187.92Y-45.0
X189.92Y-70.0
X190.46Y-30.0
X190.46Y-35.0
X190.46Y-40.0
X190.46Y-45.0
X192.46Y-70.0
X193.0Y-30.0
X193.0Y-35.0
X193.0Y-40.0
X193.0Y-45.0
X195.0Y-70.0
T8
X125.0Y-55.0
X125.0Y-59.5
X125.0Y-65.0
X125.0Y-69.5
X130.0Y-90.0
X130.0Y-94.5
X131.5Y-55.0
X131.5Y-59.5
X131.5Y-65.0
X131.5Y-69.5
X136.5Y-90.0
X136.5Y-94.5
X142.0Y-90.0
X142.0Y-94.5
X148.5Y-90.0
X148.5Y-94.5
X154.0Y-90.0
X154.0Y-94.5
X160.5Y-90.0
X160.5Y-94.5
X166.0Y-90.0
X166.0Y-94.5
X172.5Y-90.0
X172.5Y-94.5
T9
X10.0Y-30.0
X10.0Y-50.0
X10.0Y-70.0
X10.0Y-90.0
X12.0Y-6.0
X12.0Y-16.0
X15.08Y-30.0
X15.08Y-50.0
X15.08Y-70.0
X15.08Y-90.0
X20.16Y-30.0
X20.16Y-50.0
X20.16Y-70.0
X20.16Y-90.0
X30.0Y-30.0
X30.0Y-50.0
X30.0Y-70.0
X30.0Y-90.0
X52.5Y-30.0
X52.5Y-50.0
X52.5Y-70.0
X52.5Y-90.0
X61.0Y-30.0
X61.0Y-50.0
X61.0Y-70.0
X61.0Y-90.0
X75.15Y-36.05
X75.15Y-56.05
X75.15Y-76.05
X75.15Y-96.05
X75.2Y-24.0
X75.2Y-44.0
X75.2Y-64.0
X75.2Y-84.0
X90.92Y-30.0
X90.92Y-50.0
X90.92Y-70.0
X90.92Y-90.0
X96.0Y-30.0
X96.0Y-50.0
X96.0Y-70.0
X96.0Y-90.0
T10
X41.25Y-30.0
X41.25Y-50.0
X41.25Y-70.0
X41.25Y-90.0
M30
