M48
; DRILL file {KiCad 9.0.7} date 2026-06-25T20:23:53+0530
; FORMAT={-:-/ absolute / metric / decimal}
; #@! TF.CreationDate,2026-06-25T20:23:53+05:30
; #@! TF.GenerationSoftware,Kicad,Pcbnew,9.0.7
; #@! TF.FileFunction,MixedPlating,1,2
FMAT,2
METRIC
; #@! TA.AperFunction,Plated,PTH,ComponentDrill
T1C0.200
; #@! TA.AperFunction,Plated,PTH,ViaDrill
T2C0.300
; #@! TA.AperFunction,Plated,PTH,ViaDrill
T3C0.400
; #@! TA.AperFunction,Plated,PTH,ComponentDrill
T4C0.600
; #@! TA.AperFunction,Plated,PTH,ViaDrill
T5C0.800
; #@! TA.AperFunction,Plated,PTH,ComponentDrill
T6C0.800
; #@! TA.AperFunction,Plated,PTH,ComponentDrill
T7C0.900
; #@! TA.AperFunction,Plated,PTH,ComponentDrill
T8C1.000
; #@! TA.AperFunction,Plated,PTH,ComponentDrill
T9C1.100
; #@! TA.AperFunction,Plated,PTH,ComponentDrill
T10C1.300
; #@! TA.AperFunction,NonPlated,NPTH,ComponentDrill
T11C2.700
%
G90
G05
T1
X155.795Y-48.328
X155.795Y-49.852
X156.558Y-47.565
X156.558Y-49.09
X156.558Y-50.615
X157.32Y-48.328
X157.32Y-49.852
X158.082Y-47.565
X158.082Y-49.09
X158.082Y-50.615
X158.845Y-48.328
X158.845Y-49.852
T2
X64.144Y-2.135
X73.957Y-0.533
X108.736Y-80.944
X120.918Y-69.155
X123.563Y-71.29
X126.571Y-2.376
X127.814Y-0.896
X129.882Y-83.858
X132.87Y-90.692
X136.731Y-33.79
X138.847Y-75.05
X145.046Y-86.164
X147.408Y-48.762
X150.532Y-54.108
X150.799Y-65.0
X151.147Y-45.579
X153.692Y-83.921
X159.763Y-66.403
X161.942Y-55.234
X162.752Y-72.102
X162.777Y-57.039
X164.93Y-52.08
X165.123Y-50.545
X165.74Y-72.102
X168.455Y-60.587
X171.232Y-43.403
X172.977Y-42.015
X180.68Y-63.261
X186.656Y-48.526
X187.487Y-47.705
T3
X73.108Y-1.344
X129.884Y-4.319
X135.457Y-13.337
X135.859Y-22.002
X150.799Y-18.123
X150.903Y-43.296
X152.908Y-83.085
X153.658Y-38.563
X153.758Y-40.413
X165.376Y-42.389
T4
X52.0Y-8.0
X57.0Y-10.5
T5
X28.287Y-16.108
X55.18Y-19.055
T6
X124.0Y-30.0
X124.0Y-32.54
X124.0Y-35.08
X124.0Y-37.62
X124.0Y-40.16
X124.0Y-42.7
X124.0Y-45.24
X124.0Y-47.78
X131.62Y-30.0
X131.62Y-32.54
X131.62Y-35.08
X131.62Y-37.62
X131.62Y-40.16
X131.62Y-42.7
X131.62Y-45.24
X131.62Y-47.78
X138.0Y-55.0
X140.5Y-55.0
T7
X130.0Y-80.0
X132.54Y-80.0
X142.0Y-80.0
X143.0Y-15.0
X144.54Y-80.0
X145.54Y-15.0
X154.0Y-80.0
X156.54Y-80.0
X166.0Y-80.0
X168.54Y-80.0
T8
X39.5Y-8.5
X39.5Y-13.5
X62.95Y-24.05
X62.95Y-36.05
X62.95Y-44.05
X62.95Y-56.05
X62.95Y-64.05
X62.95Y-76.05
X62.95Y-84.05
X62.95Y-96.05
X165.0Y-12.0
X167.54Y-12.0
X170.08Y-12.0
X172.62Y-12.0
X182.3Y-70.0
X184.84Y-70.0
X187.38Y-70.0
X189.92Y-70.0
X192.46Y-70.0
X195.0Y-70.0
T9
X125.0Y-55.0
X125.0Y-59.5
X125.0Y-65.0
X125.0Y-69.5
X130.0Y-90.0
X130.0Y-94.5
X131.5Y-55.0
X131.5Y-59.5
X131.5Y-65.0
X131.5Y-69.5
X136.5Y-90.0
X136.5Y-94.5
X142.0Y-90.0
X142.0Y-94.5
X148.5Y-90.0
X148.5Y-94.5
X154.0Y-90.0
X154.0Y-94.5
X160.5Y-90.0
X160.5Y-94.5
X166.0Y-90.0
X166.0Y-94.5
X172.5Y-90.0
X172.5Y-94.5
T10
X10.0Y-30.0
X10.0Y-50.0
X10.0Y-70.0
X10.0Y-90.0
X12.0Y-6.0
X12.0Y-16.0
X15.08Y-30.0
X15.08Y-50.0
X15.08Y-70.0
X15.08Y-90.0
X20.16Y-30.0
X20.16Y-50.0
X20.16Y-70.0
X20.16Y-90.0
X30.0Y-30.0
X30.0Y-50.0
X30.0Y-70.0
X30.0Y-90.0
X52.5Y-30.0
X52.5Y-50.0
X52.5Y-70.0
X52.5Y-90.0
X61.0Y-30.0
X61.0Y-50.0
X61.0Y-70.0
X61.0Y-90.0
X75.15Y-36.05
X75.15Y-56.05
X75.15Y-76.05
X75.15Y-96.05
X75.2Y-24.0
X75.2Y-44.0
X75.2Y-64.0
X75.2Y-84.0
X90.92Y-30.0
X90.92Y-50.0
X90.92Y-70.0
X90.92Y-90.0
X96.0Y-30.0
X96.0Y-50.0
X96.0Y-70.0
X96.0Y-90.0
T11
X41.25Y-30.0
X41.25Y-50.0
X41.25Y-70.0
X41.25Y-90.0
M30
