%TF.GenerationSoftware,KiCad,Pcbnew,9.0.7*%
%TF.CreationDate,2026-06-26T12:32:11+05:30*%
%TF.ProjectId,smart_home,736d6172-745f-4686-9f6d-652e6b696361,0.1*%
%TF.SameCoordinates,Original*%
%TF.FileFunction,Soldermask,Bot*%
%TF.FilePolarity,Negative*%
%FSLAX46Y46*%
G04 Gerber Fmt 4.6, Leading zero omitted, Abs format (unit mm)*
G04 Created by KiCad (PCBNEW 9.0.7) date 2026-06-26 12:32:11*
%MOMM*%
%LPD*%
G01*
G04 APERTURE LIST*
G04 Aperture macros list*
%AMRoundRect*
0 Rectangle with rounded corners*
0 $1 Rounding radius*
0 $2 $3 $4 $5 $6 $7 $8 $9 X,Y pos of 4 corners*
0 Add a 4 corners polygon primitive as box body*
4,1,4,$2,$3,$4,$5,$6,$7,$8,$9,$2,$3,0*
0 Add four circle primitives for the rounded corners*
1,1,$1+$1,$2,$3*
1,1,$1+$1,$4,$5*
1,1,$1+$1,$6,$7*
1,1,$1+$1,$8,$9*
0 Add four rect primitives between the rounded corners*
20,1,$1+$1,$2,$3,$4,$5,0*
20,1,$1+$1,$4,$5,$6,$7,0*
20,1,$1+$1,$6,$7,$8,$9,0*
20,1,$1+$1,$8,$9,$2,$3,0*%
G04 Aperture macros list end*
%ADD10RoundRect,0.250000X-1.050000X-1.050000X1.050000X-1.050000X1.050000X1.050000X-1.050000X1.050000X0*%
%ADD11C,2.600000*%
%ADD12R,1.700000X1.700000*%
%ADD13C,1.700000*%
%ADD14C,2.700000*%
%ADD15C,3.000000*%
%ADD16RoundRect,0.250000X-0.550000X-0.550000X0.550000X-0.550000X0.550000X0.550000X-0.550000X0.550000X0*%
%ADD17C,1.600000*%
%ADD18C,2.500000*%
%ADD19R,1.800000X1.800000*%
%ADD20C,1.800000*%
%ADD21C,2.000000*%
%ADD22R,2.500000X2.500000*%
G04 APERTURE END LIST*
D10*
%TO.C,J2B*%
X96000000Y-50000000D03*
D11*
X90920000Y-50000000D03*
%TD*%
D12*
%TO.C,J7*%
X193000000Y-40000000D03*
D13*
X190460000Y-40000000D03*
X187920000Y-40000000D03*
%TD*%
D14*
%TO.C,F3*%
X41250000Y-70000000D03*
D15*
X30000000Y-70000000D03*
X52500000Y-70000000D03*
%TD*%
D16*
%TO.C,U2*%
X124000000Y-30000000D03*
D17*
X124000000Y-32540000D03*
X124000000Y-35080000D03*
X124000000Y-37620000D03*
X124000000Y-40160000D03*
X124000000Y-42700000D03*
X124000000Y-45240000D03*
X124000000Y-47780000D03*
X131620000Y-47780000D03*
X131620000Y-45240000D03*
X131620000Y-42700000D03*
X131620000Y-40160000D03*
X131620000Y-37620000D03*
X131620000Y-35080000D03*
X131620000Y-32540000D03*
X131620000Y-30000000D03*
%TD*%
D12*
%TO.C,J8*%
X193000000Y-45000000D03*
D13*
X190460000Y-45000000D03*
X187920000Y-45000000D03*
%TD*%
D10*
%TO.C,J2D*%
X96000000Y-90000000D03*
D11*
X90920000Y-90000000D03*
%TD*%
D15*
%TO.C,K3*%
X61000000Y-70000000D03*
D18*
X62950000Y-76050000D03*
D15*
X75150000Y-76050000D03*
X75200000Y-64000000D03*
D18*
X62950000Y-64050000D03*
%TD*%
D10*
%TO.C,J1D*%
X10000000Y-90000000D03*
D11*
X15080000Y-90000000D03*
X20160000Y-90000000D03*
%TD*%
D15*
%TO.C,K4*%
X61000000Y-90000000D03*
D18*
X62950000Y-96050000D03*
D15*
X75150000Y-96050000D03*
X75200000Y-84000000D03*
D18*
X62950000Y-84050000D03*
%TD*%
D14*
%TO.C,F1*%
X41250000Y-30000000D03*
D15*
X30000000Y-30000000D03*
X52500000Y-30000000D03*
%TD*%
%TO.C,K2*%
X61000000Y-50000000D03*
D18*
X62950000Y-56050000D03*
D15*
X75150000Y-56050000D03*
X75200000Y-44000000D03*
D18*
X62950000Y-44050000D03*
%TD*%
D19*
%TO.C,D4*%
X166000000Y-80000000D03*
D20*
X168540000Y-80000000D03*
%TD*%
D15*
%TO.C,K1*%
X61000000Y-30000000D03*
D18*
X62950000Y-36050000D03*
D15*
X75150000Y-36050000D03*
X75200000Y-24000000D03*
D18*
X62950000Y-24050000D03*
%TD*%
D21*
%TO.C,SW4*%
X166000000Y-90000000D03*
X172500000Y-90000000D03*
X166000000Y-94500000D03*
X172500000Y-94500000D03*
%TD*%
D22*
%TO.C,PS1*%
X12000000Y-6000000D03*
D18*
X12000000Y-16000000D03*
D21*
X39500000Y-8500000D03*
X39500000Y-13500000D03*
%TD*%
%TO.C,SW2*%
X142000000Y-90000000D03*
X148500000Y-90000000D03*
X142000000Y-94500000D03*
X148500000Y-94500000D03*
%TD*%
D12*
%TO.C,J4*%
X165000000Y-12000000D03*
D13*
X167540000Y-12000000D03*
X170080000Y-12000000D03*
X172620000Y-12000000D03*
%TD*%
D19*
%TO.C,D2*%
X142000000Y-80000000D03*
D20*
X144540000Y-80000000D03*
%TD*%
D12*
%TO.C,J5*%
X193000000Y-30000000D03*
D13*
X190460000Y-30000000D03*
X187920000Y-30000000D03*
%TD*%
D21*
%TO.C,SW5*%
X125000000Y-55000000D03*
X131500000Y-55000000D03*
X125000000Y-59500000D03*
X131500000Y-59500000D03*
%TD*%
%TO.C,SW1*%
X130000000Y-90000000D03*
X136500000Y-90000000D03*
X130000000Y-94500000D03*
X136500000Y-94500000D03*
%TD*%
D12*
%TO.C,J3*%
X195000000Y-70000000D03*
D13*
X192460000Y-70000000D03*
X189920000Y-70000000D03*
X187380000Y-70000000D03*
X184840000Y-70000000D03*
X182300000Y-70000000D03*
%TD*%
D14*
%TO.C,F2*%
X41250000Y-50000000D03*
D15*
X30000000Y-50000000D03*
X52500000Y-50000000D03*
%TD*%
D19*
%TO.C,D5*%
X143000000Y-15000000D03*
D20*
X145540000Y-15000000D03*
%TD*%
D10*
%TO.C,J2A*%
X96000000Y-30000000D03*
D11*
X90920000Y-30000000D03*
%TD*%
D10*
%TO.C,J1C*%
X10000000Y-70000000D03*
D11*
X15080000Y-70000000D03*
X20160000Y-70000000D03*
%TD*%
D12*
%TO.C,J6*%
X193000000Y-35000000D03*
D13*
X190460000Y-35000000D03*
X187920000Y-35000000D03*
%TD*%
D17*
%TO.C,RV1*%
X52000000Y-8000000D03*
X57000000Y-10500000D03*
%TD*%
D10*
%TO.C,J1B*%
X10000000Y-50000000D03*
D11*
X15080000Y-50000000D03*
X20160000Y-50000000D03*
%TD*%
D10*
%TO.C,J2C*%
X96000000Y-70000000D03*
D11*
X90920000Y-70000000D03*
%TD*%
D21*
%TO.C,SW3*%
X154000000Y-90000000D03*
X160500000Y-90000000D03*
X154000000Y-94500000D03*
X160500000Y-94500000D03*
%TD*%
D16*
%TO.C,C1*%
X138000000Y-55000000D03*
D17*
X140500000Y-55000000D03*
%TD*%
D19*
%TO.C,D1*%
X130000000Y-80000000D03*
D20*
X132540000Y-80000000D03*
%TD*%
D19*
%TO.C,D3*%
X154000000Y-80000000D03*
D20*
X156540000Y-80000000D03*
%TD*%
D10*
%TO.C,J1A*%
X10000000Y-30000000D03*
D11*
X15080000Y-30000000D03*
X20160000Y-30000000D03*
%TD*%
D14*
%TO.C,F4*%
X41250000Y-90000000D03*
D15*
X30000000Y-90000000D03*
X52500000Y-90000000D03*
%TD*%
D21*
%TO.C,SW6*%
X125000000Y-65000000D03*
X131500000Y-65000000D03*
X125000000Y-69500000D03*
X131500000Y-69500000D03*
%TD*%
M02*
