%TF.GenerationSoftware,KiCad,Pcbnew,9.0.7*%
%TF.CreationDate,2026-06-26T15:37:16+05:30*%
%TF.ProjectId,smart_home,736d6172-745f-4686-9f6d-652e6b696361,0.1*%
%TF.SameCoordinates,Original*%
%TF.FileFunction,Copper,L2,Bot*%
%TF.FilePolarity,Positive*%
%FSLAX46Y46*%
G04 Gerber Fmt 4.6, Leading zero omitted, Abs format (unit mm)*
G04 Created by KiCad (PCBNEW 9.0.7) date 2026-06-26 15:37:16*
%MOMM*%
%LPD*%
G01*
G04 APERTURE LIST*
G04 Aperture macros list*
%AMRoundRect*
0 Rectangle with rounded corners*
0 $1 Rounding radius*
0 $2 $3 $4 $5 $6 $7 $8 $9 X,Y pos of 4 corners*
0 Add a 4 corners polygon primitive as box body*
4,1,4,$2,$3,$4,$5,$6,$7,$8,$9,$2,$3,0*
0 Add four circle primitives for the rounded corners*
1,1,$1+$1,$2,$3*
1,1,$1+$1,$4,$5*
1,1,$1+$1,$6,$7*
1,1,$1+$1,$8,$9*
0 Add four rect primitives between the rounded corners*
20,1,$1+$1,$2,$3,$4,$5,0*
20,1,$1+$1,$4,$5,$6,$7,0*
20,1,$1+$1,$6,$7,$8,$9,0*
20,1,$1+$1,$8,$9,$2,$3,0*%
G04 Aperture macros list end*
%TA.AperFunction,ComponentPad*%
%ADD10RoundRect,0.250000X-1.050000X-1.050000X1.050000X-1.050000X1.050000X1.050000X-1.050000X1.050000X0*%
%TD*%
%TA.AperFunction,ComponentPad*%
%ADD11C,2.600000*%
%TD*%
%TA.AperFunction,ComponentPad*%
%ADD12R,1.700000X1.700000*%
%TD*%
%TA.AperFunction,ComponentPad*%
%ADD13C,1.700000*%
%TD*%
%TA.AperFunction,ComponentPad*%
%ADD14C,3.000000*%
%TD*%
%TA.AperFunction,ComponentPad*%
%ADD15RoundRect,0.250000X-0.550000X-0.550000X0.550000X-0.550000X0.550000X0.550000X-0.550000X0.550000X0*%
%TD*%
%TA.AperFunction,ComponentPad*%
%ADD16C,1.600000*%
%TD*%
%TA.AperFunction,ComponentPad*%
%ADD17C,2.500000*%
%TD*%
%TA.AperFunction,HeatsinkPad*%
%ADD18C,0.600000*%
%TD*%
%TA.AperFunction,ComponentPad*%
%ADD19R,1.800000X1.800000*%
%TD*%
%TA.AperFunction,ComponentPad*%
%ADD20C,1.800000*%
%TD*%
%TA.AperFunction,ComponentPad*%
%ADD21C,2.000000*%
%TD*%
%TA.AperFunction,ComponentPad*%
%ADD22R,2.500000X2.500000*%
%TD*%
%TA.AperFunction,ViaPad*%
%ADD23C,0.800000*%
%TD*%
%TA.AperFunction,ViaPad*%
%ADD24C,0.600000*%
%TD*%
%TA.AperFunction,Conductor*%
%ADD25C,2.500000*%
%TD*%
%TA.AperFunction,Conductor*%
%ADD26C,0.500000*%
%TD*%
%TA.AperFunction,Conductor*%
%ADD27C,0.250000*%
%TD*%
G04 APERTURE END LIST*
D10*
%TO.P,J2B,1*%
%TO.N,LOAD2_OUT*%
X96000000Y-50000000D03*
D11*
%TO.P,J2B,2*%
%TO.N,N2*%
X90920000Y-50000000D03*
%TD*%
D12*
%TO.P,J7,1*%
%TO.N,GND*%
X193000000Y-40000000D03*
D13*
%TO.P,J7,2*%
%TO.N,+3V3*%
X190460000Y-40000000D03*
%TO.P,J7,3*%
%TO.N,V_SENSE_3*%
X187920000Y-40000000D03*
%TD*%
D14*
%TO.P,F3,1*%
%TO.N,L3_RAW*%
X30000000Y-70000000D03*
%TO.P,F3,2*%
%TO.N,L3*%
X52500000Y-70000000D03*
%TD*%
D15*
%TO.P,U2,1*%
%TO.N,IO16*%
X124000000Y-30000000D03*
D16*
%TO.P,U2,2*%
%TO.N,IO17*%
X124000000Y-32540000D03*
%TO.P,U2,3*%
%TO.N,IO18*%
X124000000Y-35080000D03*
%TO.P,U2,4*%
%TO.N,IO19*%
X124000000Y-37620000D03*
%TO.P,U2,5*%
%TO.N,N/C*%
X124000000Y-40160000D03*
%TO.P,U2,6*%
X124000000Y-42700000D03*
%TO.P,U2,7*%
X124000000Y-45240000D03*
%TO.P,U2,8*%
%TO.N,GND*%
X124000000Y-47780000D03*
%TO.P,U2,9*%
%TO.N,+5V*%
X131620000Y-47780000D03*
%TO.P,U2,10*%
%TO.N,N/C*%
X131620000Y-45240000D03*
%TO.P,U2,11*%
X131620000Y-42700000D03*
%TO.P,U2,12*%
X131620000Y-40160000D03*
%TO.P,U2,13*%
%TO.N,COIL4*%
X131620000Y-37620000D03*
%TO.P,U2,14*%
%TO.N,COIL3*%
X131620000Y-35080000D03*
%TO.P,U2,15*%
%TO.N,COIL2*%
X131620000Y-32540000D03*
%TO.P,U2,16*%
%TO.N,COIL1*%
X131620000Y-30000000D03*
%TD*%
D12*
%TO.P,J8,1*%
%TO.N,GND*%
X193000000Y-45000000D03*
D13*
%TO.P,J8,2*%
%TO.N,+3V3*%
X190460000Y-45000000D03*
%TO.P,J8,3*%
%TO.N,V_SENSE_4*%
X187920000Y-45000000D03*
%TD*%
D10*
%TO.P,J2D,1*%
%TO.N,LOAD4_OUT*%
X96000000Y-90000000D03*
D11*
%TO.P,J2D,2*%
%TO.N,N4*%
X90920000Y-90000000D03*
%TD*%
D14*
%TO.P,K3,1*%
%TO.N,COIL3*%
X61000000Y-70000000D03*
D17*
%TO.P,K3,2*%
%TO.N,LOAD3*%
X62950000Y-76050000D03*
D14*
%TO.P,K3,3*%
%TO.N,L3*%
X75150000Y-76050000D03*
%TO.P,K3,4*%
%TO.N,N/C*%
X75200000Y-64000000D03*
D17*
%TO.P,K3,5*%
%TO.N,+5V*%
X62950000Y-64050000D03*
%TD*%
D10*
%TO.P,J1D,1*%
%TO.N,L4_RAW*%
X10000000Y-90000000D03*
D11*
%TO.P,J1D,2*%
%TO.N,N4*%
X15080000Y-90000000D03*
%TO.P,J1D,3*%
%TO.N,PE*%
X20160000Y-90000000D03*
%TD*%
D14*
%TO.P,K4,1*%
%TO.N,COIL4*%
X61000000Y-90000000D03*
D17*
%TO.P,K4,2*%
%TO.N,LOAD4*%
X62950000Y-96050000D03*
D14*
%TO.P,K4,3*%
%TO.N,L4*%
X75150000Y-96050000D03*
%TO.P,K4,4*%
%TO.N,N/C*%
X75200000Y-84000000D03*
D17*
%TO.P,K4,5*%
%TO.N,+5V*%
X62950000Y-84050000D03*
%TD*%
D14*
%TO.P,F1,1*%
%TO.N,L1_RAW*%
X30000000Y-30000000D03*
%TO.P,F1,2*%
%TO.N,L1*%
X52500000Y-30000000D03*
%TD*%
D18*
%TO.P,U1,39*%
%TO.N,GND*%
X155795000Y-48327500D03*
X155795000Y-49852500D03*
X156557500Y-47565000D03*
X156557500Y-49090000D03*
X156557500Y-50615000D03*
X157320000Y-48327500D03*
X157320000Y-49852500D03*
X158082500Y-47565000D03*
X158082500Y-49090000D03*
X158082500Y-50615000D03*
X158845000Y-48327500D03*
X158845000Y-49852500D03*
%TD*%
D14*
%TO.P,K2,1*%
%TO.N,COIL2*%
X61000000Y-50000000D03*
D17*
%TO.P,K2,2*%
%TO.N,LOAD2*%
X62950000Y-56050000D03*
D14*
%TO.P,K2,3*%
%TO.N,L2*%
X75150000Y-56050000D03*
%TO.P,K2,4*%
%TO.N,N/C*%
X75200000Y-44000000D03*
D17*
%TO.P,K2,5*%
%TO.N,+5V*%
X62950000Y-44050000D03*
%TD*%
D19*
%TO.P,D4,1*%
%TO.N,GND*%
X166000000Y-80000000D03*
D20*
%TO.P,D4,2*%
%TO.N,LED4*%
X168540000Y-80000000D03*
%TD*%
D14*
%TO.P,K1,1*%
%TO.N,COIL1*%
X61000000Y-30000000D03*
D17*
%TO.P,K1,2*%
%TO.N,LOAD1*%
X62950000Y-36050000D03*
D14*
%TO.P,K1,3*%
%TO.N,L1*%
X75150000Y-36050000D03*
%TO.P,K1,4*%
%TO.N,N/C*%
X75200000Y-24000000D03*
D17*
%TO.P,K1,5*%
%TO.N,+5V*%
X62950000Y-24050000D03*
%TD*%
D21*
%TO.P,SW4,1*%
%TO.N,BTN4*%
X166000000Y-90000000D03*
X172500000Y-90000000D03*
%TO.P,SW4,2*%
%TO.N,GND*%
X166000000Y-94500000D03*
X172500000Y-94500000D03*
%TD*%
D22*
%TO.P,PS1,1*%
%TO.N,L1*%
X12000000Y-6000000D03*
D17*
%TO.P,PS1,2*%
%TO.N,N1*%
X12000000Y-16000000D03*
D21*
%TO.P,PS1,3*%
%TO.N,+5V*%
X39500000Y-8500000D03*
%TO.P,PS1,4*%
%TO.N,GND*%
X39500000Y-13500000D03*
%TD*%
%TO.P,SW2,1*%
%TO.N,BTN2*%
X142000000Y-90000000D03*
X148500000Y-90000000D03*
%TO.P,SW2,2*%
%TO.N,GND*%
X142000000Y-94500000D03*
X148500000Y-94500000D03*
%TD*%
D12*
%TO.P,J4,1*%
%TO.N,GND*%
X165000000Y-12000000D03*
D13*
%TO.P,J4,2*%
%TO.N,+5V*%
X167540000Y-12000000D03*
%TO.P,J4,3*%
%TO.N,SDA_LCD*%
X170080000Y-12000000D03*
%TO.P,J4,4*%
%TO.N,SCL_LCD*%
X172620000Y-12000000D03*
%TD*%
D19*
%TO.P,D2,1*%
%TO.N,GND*%
X142000000Y-80000000D03*
D20*
%TO.P,D2,2*%
%TO.N,LED2*%
X144540000Y-80000000D03*
%TD*%
D12*
%TO.P,J5,1*%
%TO.N,GND*%
X193000000Y-30000000D03*
D13*
%TO.P,J5,2*%
%TO.N,+3V3*%
X190460000Y-30000000D03*
%TO.P,J5,3*%
%TO.N,V_SENSE_1*%
X187920000Y-30000000D03*
%TD*%
D21*
%TO.P,SW5,1*%
%TO.N,IO0*%
X125000000Y-55000000D03*
X131500000Y-55000000D03*
%TO.P,SW5,2*%
%TO.N,GND*%
X125000000Y-59500000D03*
X131500000Y-59500000D03*
%TD*%
%TO.P,SW1,1*%
%TO.N,BTN1*%
X130000000Y-90000000D03*
X136500000Y-90000000D03*
%TO.P,SW1,2*%
%TO.N,GND*%
X130000000Y-94500000D03*
X136500000Y-94500000D03*
%TD*%
D12*
%TO.P,J3,1*%
%TO.N,GND*%
X195000000Y-70000000D03*
D13*
%TO.P,J3,2*%
%TO.N,+3V3*%
X192460000Y-70000000D03*
%TO.P,J3,3*%
%TO.N,TXD0*%
X189920000Y-70000000D03*
%TO.P,J3,4*%
%TO.N,RXD0*%
X187380000Y-70000000D03*
%TO.P,J3,5*%
%TO.N,EN*%
X184840000Y-70000000D03*
%TO.P,J3,6*%
%TO.N,IO0*%
X182300000Y-70000000D03*
%TD*%
D14*
%TO.P,F2,1*%
%TO.N,L2_RAW*%
X30000000Y-50000000D03*
%TO.P,F2,2*%
%TO.N,L2*%
X52500000Y-50000000D03*
%TD*%
D19*
%TO.P,D5,1*%
%TO.N,GND*%
X143000000Y-15000000D03*
D20*
%TO.P,D5,2*%
%TO.N,LED_PWR*%
X145540000Y-15000000D03*
%TD*%
D10*
%TO.P,J2A,1*%
%TO.N,LOAD1_OUT*%
X96000000Y-30000000D03*
D11*
%TO.P,J2A,2*%
%TO.N,N1*%
X90920000Y-30000000D03*
%TD*%
D10*
%TO.P,J1C,1*%
%TO.N,L3_RAW*%
X10000000Y-70000000D03*
D11*
%TO.P,J1C,2*%
%TO.N,N3*%
X15080000Y-70000000D03*
%TO.P,J1C,3*%
%TO.N,PE*%
X20160000Y-70000000D03*
%TD*%
D12*
%TO.P,J6,1*%
%TO.N,GND*%
X193000000Y-35000000D03*
D13*
%TO.P,J6,2*%
%TO.N,+3V3*%
X190460000Y-35000000D03*
%TO.P,J6,3*%
%TO.N,V_SENSE_2*%
X187920000Y-35000000D03*
%TD*%
D16*
%TO.P,RV1,1*%
%TO.N,L1*%
X52000000Y-8000000D03*
%TO.P,RV1,2*%
%TO.N,N1*%
X57000000Y-10500000D03*
%TD*%
D10*
%TO.P,J1B,1*%
%TO.N,L2_RAW*%
X10000000Y-50000000D03*
D11*
%TO.P,J1B,2*%
%TO.N,N2*%
X15080000Y-50000000D03*
%TO.P,J1B,3*%
%TO.N,PE*%
X20160000Y-50000000D03*
%TD*%
D10*
%TO.P,J2C,1*%
%TO.N,LOAD3_OUT*%
X96000000Y-70000000D03*
D11*
%TO.P,J2C,2*%
%TO.N,N3*%
X90920000Y-70000000D03*
%TD*%
D21*
%TO.P,SW3,1*%
%TO.N,BTN3*%
X154000000Y-90000000D03*
X160500000Y-90000000D03*
%TO.P,SW3,2*%
%TO.N,GND*%
X154000000Y-94500000D03*
X160500000Y-94500000D03*
%TD*%
D15*
%TO.P,C1,1*%
%TO.N,+5V*%
X138000000Y-55000000D03*
D16*
%TO.P,C1,2*%
%TO.N,GND*%
X140500000Y-55000000D03*
%TD*%
D19*
%TO.P,D1,1*%
%TO.N,GND*%
X130000000Y-80000000D03*
D20*
%TO.P,D1,2*%
%TO.N,LED1*%
X132540000Y-80000000D03*
%TD*%
D19*
%TO.P,D3,1*%
%TO.N,GND*%
X154000000Y-80000000D03*
D20*
%TO.P,D3,2*%
%TO.N,LED3*%
X156540000Y-80000000D03*
%TD*%
D10*
%TO.P,J1A,1*%
%TO.N,L1_RAW*%
X10000000Y-30000000D03*
D11*
%TO.P,J1A,2*%
%TO.N,N1*%
X15080000Y-30000000D03*
%TO.P,J1A,3*%
%TO.N,PE*%
X20160000Y-30000000D03*
%TD*%
D14*
%TO.P,F4,1*%
%TO.N,L4_RAW*%
X30000000Y-90000000D03*
%TO.P,F4,2*%
%TO.N,L4*%
X52500000Y-90000000D03*
%TD*%
D21*
%TO.P,SW6,1*%
%TO.N,EN*%
X125000000Y-65000000D03*
X131500000Y-65000000D03*
%TO.P,SW6,2*%
%TO.N,GND*%
X125000000Y-69500000D03*
X131500000Y-69500000D03*
%TD*%
D23*
%TO.N,+5V*%
X129882400Y-16415600D03*
X135442400Y-13580500D03*
%TO.N,+3V3*%
X146842800Y-18196100D03*
X150620200Y-43238100D03*
X150620200Y-36737300D03*
X146758500Y-46250000D03*
%TO.N,GND*%
X158082500Y-41750000D03*
D24*
%TO.N,COIL4*%
X121135100Y-36446800D03*
%TO.N,IO16*%
X123906200Y-75049600D03*
%TO.N,IO17*%
X135858600Y-75049600D03*
X150505000Y-54766600D03*
%TO.N,IO18*%
X164702200Y-51910000D03*
X153918000Y-74019500D03*
X152574700Y-38096700D03*
%TO.N,IO19*%
X165493900Y-50640000D03*
X165918000Y-74019500D03*
%TO.N,EN*%
X150516700Y-44290000D03*
X147408500Y-48762500D03*
X137681600Y-66886900D03*
%TO.N,IO0*%
X167869100Y-59080800D03*
%TO.N,TXD0*%
X168037000Y-45406600D03*
%TO.N,RXD0*%
X182013500Y-46830000D03*
%TO.N,SDA_LCD*%
X171358400Y-40794500D03*
X153228200Y-58248100D03*
%TO.N,SCL_LCD*%
X158016500Y-56990000D03*
X172317900Y-45405000D03*
%TO.N,V_SENSE_3*%
X186273300Y-23507900D03*
%TO.N,V_SENSE_4*%
X185633500Y-22500000D03*
%TD*%
D25*
%TO.N,L1*%
X78043000Y-17224900D02*
X60568100Y-17224900D01*
X81993100Y-29206900D02*
X81993100Y-21175000D01*
X18501700Y-6000000D02*
X34742900Y-22241200D01*
X50146500Y-27646500D02*
X52500000Y-30000000D01*
X44741200Y-22241200D02*
X50146500Y-27646500D01*
X75150000Y-36050000D02*
X81993100Y-29206900D01*
X12000000Y-6000000D02*
X18501700Y-6000000D01*
X60568100Y-17224900D02*
X50146500Y-27646500D01*
X81993100Y-21175000D02*
X78043000Y-17224900D01*
X34742900Y-22241200D02*
X44741200Y-22241200D01*
D26*
%TO.N,+5V*%
X131620000Y-47780000D02*
X129882400Y-46042400D01*
X131620000Y-48620000D02*
X131620000Y-47780000D01*
X138000000Y-55000000D02*
X131620000Y-48620000D01*
X129882400Y-46042400D02*
X129882400Y-16415600D01*
X129882400Y-16415600D02*
X132607300Y-16415600D01*
X132607300Y-16415600D02*
X135442400Y-13580500D01*
%TO.N,+3V3*%
X150620200Y-43238100D02*
X149770400Y-43238100D01*
X150620200Y-21973500D02*
X150620200Y-36737300D01*
X192460000Y-70000000D02*
X192460000Y-47000000D01*
X190460000Y-35000000D02*
X190460000Y-40000000D01*
X146842800Y-18196100D02*
X150620200Y-21973500D01*
X190460000Y-45000000D02*
X190460000Y-40000000D01*
X150620200Y-36737300D02*
X150620200Y-43238100D01*
X149770400Y-43238100D02*
X146758500Y-46250000D01*
X192460000Y-47000000D02*
X190460000Y-45000000D01*
X190460000Y-30000000D02*
X190460000Y-35000000D01*
%TO.N,GND*%
X193000000Y-30000000D02*
X193000000Y-35000000D01*
X126506400Y-61006400D02*
X125000000Y-59500000D01*
X142000000Y-80000000D02*
X142000000Y-81351700D01*
X157701300Y-49090000D02*
X158082500Y-49090000D01*
X136000000Y-59500000D02*
X131500000Y-59500000D01*
X130000000Y-80000000D02*
X130000000Y-81351700D01*
X166000000Y-81351700D02*
X167524900Y-82876600D01*
X128475100Y-82876600D02*
X128475100Y-92975100D01*
X142000000Y-81351700D02*
X143466600Y-82818300D01*
X193000000Y-45000000D02*
X193000000Y-40000000D01*
X154000000Y-80000000D02*
X154000000Y-81351700D01*
X155795000Y-49852500D02*
X156557500Y-50615000D01*
X167524900Y-82876600D02*
X167524900Y-92975100D01*
X158082500Y-47565000D02*
X157320000Y-48327500D01*
X143466600Y-93033400D02*
X142000000Y-94500000D01*
X157320000Y-48327500D02*
X157701300Y-48708800D01*
X157701300Y-49090000D02*
X157701300Y-49471200D01*
X155795000Y-48327500D02*
X156557500Y-49090000D01*
X195000000Y-48301700D02*
X193000000Y-46301700D01*
X154000000Y-81351700D02*
X155466600Y-82818300D01*
X195000000Y-70000000D02*
X195000000Y-48301700D01*
X165000000Y-12000000D02*
X165000000Y-13301700D01*
X165000000Y-13301700D02*
X158082500Y-20219200D01*
X157701300Y-49471200D02*
X157320000Y-49852500D01*
X130000000Y-71000000D02*
X130000000Y-80000000D01*
X123507600Y-58007600D02*
X125000000Y-59500000D01*
X155466600Y-82818300D02*
X155466600Y-93033400D01*
X143466600Y-82818300D02*
X143466600Y-93033400D01*
X123507600Y-48272400D02*
X123507600Y-58007600D01*
X193000000Y-45650800D02*
X193000000Y-45000000D01*
X140500000Y-55000000D02*
X136000000Y-59500000D01*
X131500000Y-69500000D02*
X130000000Y-71000000D01*
X158082500Y-20219200D02*
X158082500Y-41750000D01*
X157320000Y-49852500D02*
X158082500Y-50615000D01*
X167524900Y-92975100D02*
X166000000Y-94500000D01*
X166000000Y-80000000D02*
X166000000Y-81351700D01*
X126506400Y-67993600D02*
X126506400Y-61006400D01*
X193000000Y-35000000D02*
X193000000Y-40000000D01*
X158845000Y-48327500D02*
X158082500Y-49090000D01*
X157701300Y-48708800D02*
X157701300Y-49090000D01*
X125000000Y-69500000D02*
X126506400Y-67993600D01*
X124000000Y-47780000D02*
X123507600Y-48272400D01*
X130000000Y-81351700D02*
X128475100Y-82876600D01*
X128475100Y-92975100D02*
X130000000Y-94500000D01*
X193000000Y-45650800D02*
X193000000Y-46301700D01*
X158082500Y-41750000D02*
X158082500Y-47565000D01*
X158845000Y-49852500D02*
X158082500Y-50615000D01*
X155466600Y-93033400D02*
X154000000Y-94500000D01*
D27*
%TO.N,COIL4*%
X121135100Y-92363200D02*
X121135100Y-36446800D01*
X118002800Y-95495500D02*
X121135100Y-92363200D01*
X61000000Y-90000000D02*
X82144200Y-90000000D01*
X87639700Y-95495500D02*
X118002800Y-95495500D01*
X82144200Y-90000000D02*
X87639700Y-95495500D01*
%TO.N,IO16*%
X122390200Y-73533600D02*
X123906200Y-75049600D01*
X122390200Y-31609800D02*
X122390200Y-73533600D01*
X124000000Y-30000000D02*
X122390200Y-31609800D01*
%TO.N,IO17*%
X123533300Y-38746700D02*
X124235900Y-38746700D01*
X135858600Y-69411400D02*
X137478400Y-67791600D01*
X122842900Y-38056300D02*
X123533300Y-38746700D01*
X129058300Y-59371500D02*
X137478400Y-67791600D01*
X135858600Y-75049600D02*
X135858600Y-69411400D01*
X150505000Y-54996400D02*
X150505000Y-54766600D01*
X129058300Y-43569100D02*
X129058300Y-59371500D01*
X137709800Y-67791600D02*
X150505000Y-54996400D01*
X122842900Y-33697100D02*
X122842900Y-38056300D01*
X137478400Y-67791600D02*
X137709800Y-67791600D01*
X124000000Y-32540000D02*
X122842900Y-33697100D01*
X124235900Y-38746700D02*
X129058300Y-43569100D01*
%TO.N,IO18*%
X153918000Y-62694200D02*
X153918000Y-74019500D01*
X155350300Y-61261900D02*
X153918000Y-62694200D01*
X155350300Y-61261900D02*
X152574700Y-58486300D01*
X164702200Y-51910000D02*
X155350300Y-61261900D01*
X152574700Y-58486300D02*
X152574700Y-38096700D01*
%TO.N,IO19*%
X165918000Y-51064100D02*
X165493900Y-50640000D01*
X165918000Y-74019500D02*
X165918000Y-51064100D01*
%TO.N,EN*%
X147408500Y-54139800D02*
X147408500Y-57160000D01*
X151786600Y-72817500D02*
X151786600Y-55085600D01*
X147408500Y-48762500D02*
X147408500Y-54139800D01*
X180180200Y-74659800D02*
X153628900Y-74659800D01*
X147408500Y-57160000D02*
X137681600Y-66886900D01*
X153628900Y-74659800D02*
X151786600Y-72817500D01*
X151786600Y-55085600D02*
X150840800Y-54139800D01*
X150516700Y-45654300D02*
X150516700Y-44290000D01*
X184840000Y-70000000D02*
X180180200Y-74659800D01*
X150840800Y-54139800D02*
X147408500Y-54139800D01*
X147408500Y-48762500D02*
X150516700Y-45654300D01*
%TO.N,IO0*%
X182300000Y-70000000D02*
X178788300Y-70000000D01*
X178788300Y-70000000D02*
X167869100Y-59080800D01*
%TO.N,TXD0*%
X186904300Y-71191500D02*
X186110000Y-70397200D01*
X189920000Y-70000000D02*
X188728500Y-71191500D01*
X188728500Y-71191500D02*
X186904300Y-71191500D01*
X186110000Y-70397200D02*
X186110000Y-63479600D01*
X186110000Y-63479600D02*
X168037000Y-45406600D01*
%TO.N,RXD0*%
X187380000Y-70000000D02*
X187380000Y-52196500D01*
X187380000Y-52196500D02*
X182013500Y-46830000D01*
%TO.N,SDA_LCD*%
X170080000Y-39516100D02*
X171020100Y-40456200D01*
X171020100Y-40456200D02*
X153228200Y-58248100D01*
X171020100Y-40456200D02*
X171358400Y-40794500D01*
X170080000Y-12000000D02*
X170080000Y-39516100D01*
%TO.N,SCL_LCD*%
X158016500Y-54476700D02*
X158016500Y-56990000D01*
X172620000Y-45102900D02*
X172317900Y-45405000D01*
X172317900Y-45405000D02*
X171667100Y-44754200D01*
X167739000Y-44754200D02*
X158016500Y-54476700D01*
X171667100Y-44754200D02*
X167739000Y-44754200D01*
X172620000Y-12000000D02*
X172620000Y-45102900D01*
%TO.N,V_SENSE_3*%
X186273300Y-38353300D02*
X186273300Y-23507900D01*
X187920000Y-40000000D02*
X186273300Y-38353300D01*
%TO.N,V_SENSE_4*%
X185633500Y-42713500D02*
X185633500Y-22500000D01*
X187920000Y-45000000D02*
X185633500Y-42713500D01*
%TD*%
M02*
