%TF.GenerationSoftware,KiCad,Pcbnew,9.0.7*%
%TF.CreationDate,2026-06-26T15:37:16+05:30*%
%TF.ProjectId,smart_home,736d6172-745f-4686-9f6d-652e6b696361,0.1*%
%TF.SameCoordinates,Original*%
%TF.FileFunction,Paste,Top*%
%TF.FilePolarity,Positive*%
%FSLAX46Y46*%
G04 Gerber Fmt 4.6, Leading zero omitted, Abs format (unit mm)*
G04 Created by KiCad (PCBNEW 9.0.7) date 2026-06-26 15:37:16*
%MOMM*%
%LPD*%
G01*
G04 APERTURE LIST*
G04 Aperture macros list*
%AMRoundRect*
0 Rectangle with rounded corners*
0 $1 Rounding radius*
0 $2 $3 $4 $5 $6 $7 $8 $9 X,Y pos of 4 corners*
0 Add a 4 corners polygon primitive as box body*
4,1,4,$2,$3,$4,$5,$6,$7,$8,$9,$2,$3,0*
0 Add four circle primitives for the rounded corners*
1,1,$1+$1,$2,$3*
1,1,$1+$1,$4,$5*
1,1,$1+$1,$6,$7*
1,1,$1+$1,$8,$9*
0 Add four rect primitives between the rounded corners*
20,1,$1+$1,$2,$3,$4,$5,0*
20,1,$1+$1,$4,$5,$6,$7,0*
20,1,$1+$1,$6,$7,$8,$9,0*
20,1,$1+$1,$8,$9,$2,$3,0*%
G04 Aperture macros list end*
%ADD10RoundRect,0.250000X-0.262500X-0.450000X0.262500X-0.450000X0.262500X0.450000X-0.262500X0.450000X0*%
%ADD11RoundRect,0.150000X-0.825000X-0.150000X0.825000X-0.150000X0.825000X0.150000X-0.825000X0.150000X0*%
%ADD12RoundRect,0.250000X-0.250000X-0.475000X0.250000X-0.475000X0.250000X0.475000X-0.250000X0.475000X0*%
%ADD13R,1.500000X0.900000*%
%ADD14R,0.900000X1.500000*%
%ADD15R,1.050000X1.050000*%
%ADD16R,1.100000X0.250000*%
%ADD17RoundRect,0.375000X-0.625000X-0.375000X0.625000X-0.375000X0.625000X0.375000X-0.625000X0.375000X0*%
%ADD18RoundRect,0.500000X-0.500000X-1.400000X0.500000X-1.400000X0.500000X1.400000X-0.500000X1.400000X0*%
G04 APERTURE END LIST*
D10*
%TO.C,R5*%
X129087500Y-86000000D03*
X130912500Y-86000000D03*
%TD*%
D11*
%TO.C,U6*%
X81225000Y-68095000D03*
X81225000Y-69365000D03*
X81225000Y-70635000D03*
X81225000Y-71905000D03*
X86175000Y-71905000D03*
X86175000Y-70635000D03*
X86175000Y-69365000D03*
X86175000Y-68095000D03*
%TD*%
D10*
%TO.C,R22*%
X88087500Y-98000000D03*
X89912500Y-98000000D03*
%TD*%
D12*
%TO.C,C3*%
X137050000Y-17000000D03*
X138950000Y-17000000D03*
%TD*%
D10*
%TO.C,R2*%
X141087500Y-75000000D03*
X142912500Y-75000000D03*
%TD*%
D12*
%TO.C,C10*%
X80050000Y-80000000D03*
X81950000Y-80000000D03*
%TD*%
D10*
%TO.C,R15*%
X84087500Y-40000000D03*
X85912500Y-40000000D03*
%TD*%
%TO.C,R9*%
X151912500Y-15000000D03*
X150087500Y-15000000D03*
%TD*%
%TO.C,R1*%
X129087500Y-75000000D03*
X130912500Y-75000000D03*
%TD*%
D13*
%TO.C,U1*%
X149250000Y-41750000D03*
X149250000Y-43020000D03*
X149250000Y-44290000D03*
X149250000Y-45560000D03*
X149250000Y-46830000D03*
X149250000Y-48100000D03*
X149250000Y-49370000D03*
X149250000Y-50640000D03*
X149250000Y-51910000D03*
X149250000Y-53180000D03*
X149250000Y-54450000D03*
X149250000Y-55720000D03*
X149250000Y-56990000D03*
X149250000Y-58260000D03*
D14*
X152290000Y-59510000D03*
X153560000Y-59510000D03*
X154830000Y-59510000D03*
X156100000Y-59510000D03*
X157370000Y-59510000D03*
X158640000Y-59510000D03*
X159910000Y-59510000D03*
X161180000Y-59510000D03*
X162450000Y-59510000D03*
X163720000Y-59510000D03*
D13*
X166750000Y-58260000D03*
X166750000Y-56990000D03*
X166750000Y-55720000D03*
X166750000Y-54450000D03*
X166750000Y-53180000D03*
X166750000Y-51910000D03*
X166750000Y-50640000D03*
X166750000Y-49370000D03*
X166750000Y-48100000D03*
X166750000Y-46830000D03*
X166750000Y-45560000D03*
X166750000Y-44290000D03*
X166750000Y-43020000D03*
X166750000Y-41750000D03*
D15*
X155795000Y-47565000D03*
X155795000Y-49090000D03*
X155795000Y-50615000D03*
X157320000Y-47565000D03*
X157320000Y-49090000D03*
X157320000Y-50615000D03*
X158845000Y-47565000D03*
X158845000Y-49090000D03*
X158845000Y-50615000D03*
%TD*%
D10*
%TO.C,R3*%
X153087500Y-75000000D03*
X154912500Y-75000000D03*
%TD*%
%TO.C,R6*%
X141087500Y-86000000D03*
X142912500Y-86000000D03*
%TD*%
%TO.C,R14*%
X169087500Y-45500000D03*
X170912500Y-45500000D03*
%TD*%
%TO.C,R18*%
X84087500Y-98000000D03*
X85912500Y-98000000D03*
%TD*%
D16*
%TO.C,U8*%
X182850000Y-21000000D03*
X182850000Y-21500000D03*
X182850000Y-22000000D03*
X182850000Y-22500000D03*
X182850000Y-23000000D03*
X187150000Y-23000000D03*
X187150000Y-22500000D03*
X187150000Y-22000000D03*
X187150000Y-21500000D03*
X187150000Y-21000000D03*
%TD*%
D12*
%TO.C,C11*%
X80050000Y-98000000D03*
X81950000Y-98000000D03*
%TD*%
%TO.C,C7*%
X133550000Y-47000000D03*
X135450000Y-47000000D03*
%TD*%
D10*
%TO.C,R4*%
X165087500Y-75000000D03*
X166912500Y-75000000D03*
%TD*%
%TO.C,R19*%
X88087500Y-40000000D03*
X89912500Y-40000000D03*
%TD*%
%TO.C,R21*%
X88087500Y-80000000D03*
X89912500Y-80000000D03*
%TD*%
%TO.C,R20*%
X88087500Y-60000000D03*
X89912500Y-60000000D03*
%TD*%
D12*
%TO.C,C8*%
X80050000Y-40000000D03*
X81950000Y-40000000D03*
%TD*%
%TO.C,C4*%
X145550000Y-42500000D03*
X147450000Y-42500000D03*
%TD*%
D10*
%TO.C,R8*%
X165087500Y-86000000D03*
X166912500Y-86000000D03*
%TD*%
D12*
%TO.C,C16*%
X184050000Y-27000000D03*
X185950000Y-27000000D03*
%TD*%
D11*
%TO.C,U7*%
X81225000Y-88095000D03*
X81225000Y-89365000D03*
X81225000Y-90635000D03*
X81225000Y-91905000D03*
X86175000Y-91905000D03*
X86175000Y-90635000D03*
X86175000Y-89365000D03*
X86175000Y-88095000D03*
%TD*%
D12*
%TO.C,C5*%
X145550000Y-45000000D03*
X147450000Y-45000000D03*
%TD*%
D10*
%TO.C,R12*%
X145587500Y-52500000D03*
X147412500Y-52500000D03*
%TD*%
D11*
%TO.C,U4*%
X81225000Y-28095000D03*
X81225000Y-29365000D03*
X81225000Y-30635000D03*
X81225000Y-31905000D03*
X86175000Y-31905000D03*
X86175000Y-30635000D03*
X86175000Y-29365000D03*
X86175000Y-28095000D03*
%TD*%
D10*
%TO.C,R7*%
X153087500Y-86000000D03*
X154912500Y-86000000D03*
%TD*%
%TO.C,R16*%
X84087500Y-60000000D03*
X85912500Y-60000000D03*
%TD*%
%TO.C,R13*%
X169087500Y-42000000D03*
X170912500Y-42000000D03*
%TD*%
D11*
%TO.C,U5*%
X81225000Y-48095000D03*
X81225000Y-49365000D03*
X81225000Y-50635000D03*
X81225000Y-51905000D03*
X86175000Y-51905000D03*
X86175000Y-50635000D03*
X86175000Y-49365000D03*
X86175000Y-48095000D03*
%TD*%
D10*
%TO.C,R17*%
X84087500Y-80000000D03*
X85912500Y-80000000D03*
%TD*%
D12*
%TO.C,C2*%
X137050000Y-13000000D03*
X138950000Y-13000000D03*
%TD*%
D17*
%TO.C,U3*%
X126850000Y-12700000D03*
X126850000Y-15000000D03*
D18*
X133150000Y-15000000D03*
D17*
X126850000Y-17300000D03*
%TD*%
D10*
%TO.C,R11*%
X145587500Y-50000000D03*
X147412500Y-50000000D03*
%TD*%
D12*
%TO.C,C6*%
X145550000Y-47500000D03*
X147450000Y-47500000D03*
%TD*%
%TO.C,C9*%
X80050000Y-60000000D03*
X81950000Y-60000000D03*
%TD*%
M02*
