%TF.GenerationSoftware,KiCad,Pcbnew,9.0.7*%
%TF.CreationDate,2026-06-25T20:23:42+05:30*%
%TF.ProjectId,smart_home,736d6172-745f-4686-9f6d-652e6b696361,0.1*%
%TF.SameCoordinates,Original*%
%TF.FileFunction,Paste,Top*%
%TF.FilePolarity,Positive*%
%FSLAX46Y46*%
G04 Gerber Fmt 4.6, Leading zero omitted, Abs format (unit mm)*
G04 Created by KiCad (PCBNEW 9.0.7) date 2026-06-25 20:23:42*
%MOMM*%
%LPD*%
G01*
G04 APERTURE LIST*
G04 Aperture macros list*
%AMRoundRect*
0 Rectangle with rounded corners*
0 $1 Rounding radius*
0 $2 $3 $4 $5 $6 $7 $8 $9 X,Y pos of 4 corners*
0 Add a 4 corners polygon primitive as box body*
4,1,4,$2,$3,$4,$5,$6,$7,$8,$9,$2,$3,0*
0 Add four circle primitives for the rounded corners*
1,1,$1+$1,$2,$3*
1,1,$1+$1,$4,$5*
1,1,$1+$1,$6,$7*
1,1,$1+$1,$8,$9*
0 Add four rect primitives between the rounded corners*
20,1,$1+$1,$2,$3,$4,$5,0*
20,1,$1+$1,$4,$5,$6,$7,0*
20,1,$1+$1,$6,$7,$8,$9,0*
20,1,$1+$1,$8,$9,$2,$3,0*%
G04 Aperture macros list end*
%ADD10RoundRect,0.250000X-0.262500X-0.450000X0.262500X-0.450000X0.262500X0.450000X-0.262500X0.450000X0*%
%ADD11RoundRect,0.250000X-0.250000X-0.475000X0.250000X-0.475000X0.250000X0.475000X-0.250000X0.475000X0*%
%ADD12R,1.500000X0.900000*%
%ADD13R,0.900000X1.500000*%
%ADD14R,1.050000X1.050000*%
%ADD15RoundRect,0.375000X-0.625000X-0.375000X0.625000X-0.375000X0.625000X0.375000X-0.625000X0.375000X0*%
%ADD16RoundRect,0.500000X-0.500000X-1.400000X0.500000X-1.400000X0.500000X1.400000X-0.500000X1.400000X0*%
G04 APERTURE END LIST*
D10*
%TO.C,R5*%
X129087500Y-86000000D03*
X130912500Y-86000000D03*
%TD*%
D11*
%TO.C,C3*%
X137050000Y-17000000D03*
X138950000Y-17000000D03*
%TD*%
D10*
%TO.C,R2*%
X141087500Y-75000000D03*
X142912500Y-75000000D03*
%TD*%
%TO.C,R9*%
X151912500Y-15000000D03*
X150087500Y-15000000D03*
%TD*%
%TO.C,R1*%
X129087500Y-75000000D03*
X130912500Y-75000000D03*
%TD*%
D12*
%TO.C,U1*%
X149250000Y-41750000D03*
X149250000Y-43020000D03*
X149250000Y-44290000D03*
X149250000Y-45560000D03*
X149250000Y-46830000D03*
X149250000Y-48100000D03*
X149250000Y-49370000D03*
X149250000Y-50640000D03*
X149250000Y-51910000D03*
X149250000Y-53180000D03*
X149250000Y-54450000D03*
X149250000Y-55720000D03*
X149250000Y-56990000D03*
X149250000Y-58260000D03*
D13*
X152290000Y-59510000D03*
X153560000Y-59510000D03*
X154830000Y-59510000D03*
X156100000Y-59510000D03*
X157370000Y-59510000D03*
X158640000Y-59510000D03*
X159910000Y-59510000D03*
X161180000Y-59510000D03*
X162450000Y-59510000D03*
X163720000Y-59510000D03*
D12*
X166750000Y-58260000D03*
X166750000Y-56990000D03*
X166750000Y-55720000D03*
X166750000Y-54450000D03*
X166750000Y-53180000D03*
X166750000Y-51910000D03*
X166750000Y-50640000D03*
X166750000Y-49370000D03*
X166750000Y-48100000D03*
X166750000Y-46830000D03*
X166750000Y-45560000D03*
X166750000Y-44290000D03*
X166750000Y-43020000D03*
X166750000Y-41750000D03*
D14*
X155795000Y-47565000D03*
X155795000Y-49090000D03*
X155795000Y-50615000D03*
X157320000Y-47565000D03*
X157320000Y-49090000D03*
X157320000Y-50615000D03*
X158845000Y-47565000D03*
X158845000Y-49090000D03*
X158845000Y-50615000D03*
%TD*%
D10*
%TO.C,R3*%
X153087500Y-75000000D03*
X154912500Y-75000000D03*
%TD*%
%TO.C,R6*%
X141087500Y-86000000D03*
X142912500Y-86000000D03*
%TD*%
%TO.C,R14*%
X169087500Y-45500000D03*
X170912500Y-45500000D03*
%TD*%
D11*
%TO.C,C7*%
X133550000Y-47000000D03*
X135450000Y-47000000D03*
%TD*%
D10*
%TO.C,R4*%
X165087500Y-75000000D03*
X166912500Y-75000000D03*
%TD*%
D11*
%TO.C,C4*%
X145550000Y-42500000D03*
X147450000Y-42500000D03*
%TD*%
D10*
%TO.C,R8*%
X165087500Y-86000000D03*
X166912500Y-86000000D03*
%TD*%
D11*
%TO.C,C5*%
X145550000Y-45000000D03*
X147450000Y-45000000D03*
%TD*%
D10*
%TO.C,R12*%
X145587500Y-52500000D03*
X147412500Y-52500000D03*
%TD*%
%TO.C,R7*%
X153087500Y-86000000D03*
X154912500Y-86000000D03*
%TD*%
%TO.C,R13*%
X169087500Y-42000000D03*
X170912500Y-42000000D03*
%TD*%
D11*
%TO.C,C2*%
X137050000Y-13000000D03*
X138950000Y-13000000D03*
%TD*%
D15*
%TO.C,U3*%
X126850000Y-12700000D03*
X126850000Y-15000000D03*
D16*
X133150000Y-15000000D03*
D15*
X126850000Y-17300000D03*
%TD*%
D10*
%TO.C,R11*%
X145587500Y-50000000D03*
X147412500Y-50000000D03*
%TD*%
D11*
%TO.C,C6*%
X145550000Y-47500000D03*
X147450000Y-47500000D03*
%TD*%
M02*
